<svg xmlns="http://www.w3.org/2000/svg" xmlns:xlink="http://www.w3.org/1999/xlink" viewBox="0 0 885 317"><symbol id="a" viewBox="-14 -14 28 28"><circle opacity=".2" fill="#FFF" r="13.8"/></symbol><use xlink:href="#a" width="27.6" height="27.6" x="-14" y="-14" transform="matrix(1 0 0 -1 567 117)" overflow="visible"/><use xlink:href="#a" width="27.6" height="27.6" x="-14" y="-14" transform="matrix(1 0 0 -1 612 95)" overflow="visible"/><use xlink:href="#a" width="27.6" height="27.6" x="-14" y="-14" transform="matrix(1 0 0 -1 697 14)" overflow="visible"/><use xlink:href="#a" width="27.6" height="27.6" x="-14" y="-14" transform="matrix(1 0 0 -1 650 152)" overflow="visible"/><use xlink:href="#a" width="27.6" height="27.6" x="-14" y="-14" transform="matrix(1 0 0 -1 782 103)" overflow="visible"/><use xlink:href="#a" width="27.6" height="27.6" x="-14" y="-14" transform="matrix(1 0 0 -1 746 147)" overflow="visible"/><use xlink:href="#a" width="27.6" height="27.6" x="-14" y="-14" transform="matrix(1 0 0 -1 760 131)" overflow="visible"/><use xlink:href="#a" width="27.6" height="27.6" x="-14" y="-14" transform="matrix(1 0 0 -1 719 125)" overflow="visible"/><use xlink:href="#a" width="27.6" height="27.6" x="-14" y="-14" transform="matrix(1 0 0 -1 709 189)" overflow="visible"/><use xlink:href="#a" width="27.6" height="27.6" x="-14" y="-14" transform="matrix(1 0 0 -1 652 211)" overflow="visible"/><use xlink:href="#a" width="27.6" height="27.6" x="-14" y="-14" transform="matrix(1 0 0 -1 560 186)" overflow="visible"/><use xlink:href="#a" width="27.6" height="27.6" x="-14" y="-14" transform="matrix(1 0 0 -1 521 164)" overflow="visible"/><use xlink:href="#a" width="27.6" height="27.6" x="-14" y="-14" transform="matrix(1 0 0 -1 468 134)" overflow="visible"/><use xlink:href="#a" width="27.6" height="27.6" x="-14" y="-14" transform="matrix(1 0 0 -1 804 300)" overflow="visible"/><use xlink:href="#a" width="27.6" height="27.6" x="-14" y="-14" transform="matrix(1 0 0 -1 645 240)" overflow="visible"/><use xlink:href="#a" width="27.6" height="27.6" x="-14" y="-14" transform="matrix(1 0 0 -1 472 202)" overflow="visible"/><use xlink:href="#a" width="27.6" height="27.6" x="-14" y="-14" transform="matrix(1 0 0 -1 356 158)" overflow="visible"/><use xlink:href="#a" width="27.6" height="27.6" x="-14" y="-14" transform="matrix(1 0 0 -1 292 96)" overflow="visible"/><use xlink:href="#a" width="27.6" height="27.6" x="-14" y="-14" transform="matrix(1 0 0 -1 296 61)" overflow="visible"/><use xlink:href="#a" width="27.6" height="27.6" x="-14" y="-14" transform="matrix(1 0 0 -1 322 46)" overflow="visible"/><path fill="#FFF" d="M310.3,151.5h563.8c6,0,10.8,4.8,10.8,10.8v41.5c0,6-4.8,10.8-10.8,10.8H310.3c-6,0-10.8-4.8-10.8-10.8	v-41.5C299.5,156.3,304.3,151.5,310.3,151.5z"/><g><path d="M5885,2851.4l105-112l-77-81c-43-45-122-123-176-173c-54-51-121-116-150-144s-119-104-202-170c-249-198-230-148-160-419 c112-434,175-844,136-880c-61-57-285-78-861-81l-575-2l-82-119c-220-316-470-616-697-836l-163-158l-81,78 c-172,165-535,602-686,825l-60,88l-100-12c-286-32-469-36-732-15c-343,28-558,60-597,90c-53,42,0,714,81,1021c20,73,17,82-26,110 c-191,125-777,689-777,749c0,49,262,335,511,558c206,184,219,200,217,270c-2,90-22,218-38,244c-15,24-90,625-90,723 c0,103,63,136,330,166c356,42,486,50,770,51l330,1l110,153c142,197,421,502,655,716c102,94,197,170,211,170c78,0,693-668,863-938 l55-87l183,17c284,28,1053,21,1110-10c65-35,36-402-68-874c-63-282-64-273,34-338C5340,3329.4,5775,2966.4,5885,2851.4z M4196,2249.4c247,682-123,1423-821,1645c-994,315-1929-618-1604-1602C2156,1126.4,3778,1098.4,4196,2249.4z" transform="matrix(.05 0 0 -.05 0 301)"/><path fill="#FFF" d="M3375,3894.4c698-222,1068-963,821-1645c-418-1151-2040-1123-2425,43 C1446,3276.4,2381,4209.4,3375,3894.4z M3744,2548.4c107,515-387,997-889,867c-490-127-750-606-572-1058 C2553,1668.4,3590,1803.4,3744,2548.4z" transform="matrix(.05 0 0 -.05 0 301)"/><path d="M2855,3415.4c502,130,996-352,889-867c-154-745-1191-880-1461-191C2105,2809.4,2365,3288.4,2855,3415.4z M3429,2628.4 c188,25,258,256,122,398c-78,81-197,79-277-5C3131,2872.4,3238,2602.4,3429,2628.4z" transform="matrix(.05 0 0 -.05 0 301)"/><path fill="#FFF" d="M3551,3026.4c136-142,66-373-122-398c-191-26-298,244-155,393C3354,3105.4,3473,3107.4,3551,3026.4z" transform="matrix(.05 0 0 -.05 0 301)"/></g><g><path d="M301.5 91.5c4.6-.9 11.8-1.6 19.1-1.6 10.4.1 17.2 1.9 22.2 6 4.2 3.1 6.7 8 6.6 14.3 0 7.8-5.2 14.6-13.8 17.7l0 .2c7.7 2 16.6 8.4 16.6 20.4 0 7-2.8 12.2-6.9 16.2-5.7 5.1-14.8 7.5-28 7.4-7.2 0-12.7-.5-16.2-1L301.5 91.5zM311.5 163.4c2 .4 5 .5 8.8.5 10.8.1 20.8-3.9 20.8-15.6.1-11-9.4-15.6-20.8-15.7l-8.6 0L311.5 163.4zM311.7 124.7l9.5 0c11 .1 17.5-5.7 17.6-13.5 0-9.5-7.1-13.2-17.7-13.3-4.8 0-7.6.3-9.2.7L311.7 124.7zM366.2 86.5l10.6.1-.4 85.2-10.6-.1L366.2 86.5zM426.2 172l-.8-7.3-.4 0c-3.3 4.5-9.5 8.6-17.8 8.5-11.8-.1-17.7-8.4-17.7-16.8.1-14 12.6-21.7 35-21.4l0-1.2c0-4.8-1.3-13.4-13.1-13.5-5.4 0-11 1.6-15.1 4.2l-2.4-7c4.8-3.1 11.8-5.1 19.1-5.1 17.8.1 22 12.2 22 23.9l-.1 21.7c0 5 .2 10 .9 13.9L426.2 172zM424.8 142.3c-11.5-.3-24.6 1.7-24.7 13 0 6.8 4.5 10.1 9.9 10.1 7.6 0 12.4-4.7 14.1-9.6.4-1.1.6-2.3.6-3.4L424.8 142.3zM493.3 170.1c-2.8 1.4-8.9 3.3-16.7 3.3-17.5-.1-28.9-12-28.8-29.8.1-17.9 12.4-30.8 31.4-30.7 6.2 0 11.8 1.6 14.6 3.1l-2.4 8.1c-2.5-1.5-6.5-2.8-12.2-2.8-13.3-.1-20.6 9.7-20.6 21.9-.1 13.4 8.5 21.8 20 21.8 6 0 10-1.5 13-2.8L493.3 170.1zM516.2 141l.2 0c1.5-2 3.5-4.5 5.2-6.6l17.1-20 12.7.1L529 138.3l25.4 34.3-12.8-.1-19.9-27.9-5.4 6-.1 21.8-10.4-.1.4-85.2 10.4.1L516.2 141zM573.1 91.8l-.4 80.9-10.4-.1.4-80.9L573.1 91.8zM592 130.5c0-6-.1-10.9-.4-15.7l9.4 0 .5 9.6.2 0c2.9-5.5 9.7-10.9 19.3-10.8 8 0 20.5 4.9 20.4 24.8l-.2 34.7-10.6-.1.2-33.5c0-9.4-3.4-17.2-13.4-17.2-7 0-12.4 4.9-14.2 10.7-.5 1.3-.7 3.1-.7 4.9l-.2 34.9-10.6-.1L592 130.5zM669 141.8l.2 0c1.5-2 3.5-4.5 5.2-6.6l17.1-20 12.7.1-22.6 23.8 25.4 34.3-12.8-.1-19.9-27.9-5.4 6-.1 21.8-10.4-.1.4-85.2 10.4.1L669 141.8zM757.1 135.7l-31.4-.2-.2 29.2 35 .2 0 8.8-45.5-.2.4-80.9 43.7.2 0 8.8-33.2-.2-.1 25.6 31.4.2L757.1 135.7zM777 115.7l12.5 34.4c1.3 3.8 2.7 8.4 3.7 11.9l.2 0c1.1-3.5 2.3-7.9 3.8-12.1l11.7-34 11.2.1L804 157.2c-7.7 19.9-12.9 30.1-20.1 36.3-5.2 4.5-10.4 6.3-13 6.8l-2.6-8.9c2.6-.8 6.1-2.5 9.3-5.1 2.9-2.3 6.5-6.3 8.9-11.7.5-1.1.8-1.9.9-2.5 0-.6-.2-1.4-.7-2.8l-21.2-53.6L777 115.7zM834.2 146.9c.2 14.3 9.3 20.2 19.8 20.3 7.6 0 12.1-1.3 16.1-2.9l1.8 7.6c-3.7 1.7-10.1 3.5-19.3 3.5-17.9-.1-28.5-11.9-28.4-29.4.1-17.5 10.5-31.3 27.4-31.2 19 .1 23.9 16.8 23.9 27.5 0 2.2-.3 3.8-.4 4.9L834.2 146.9zM865.2 139.5c.2-6.7-2.7-17.2-14.6-17.2-10.7-.1-15.4 9.8-16.3 17.1L865.2 139.5z"/></g><g><path d="M354.9 213.8c-2.5 14.8-8.5 23.6-18.1 26.5h-37.2v-47.1h39.2C349.5 193.2 354.9 200.1 354.9 213.8zM344.3 216.5c1.6-9.8-1.9-14.8-10.5-14.9h-23.1v29.8h20C337.6 231.2 342.2 226.3 344.3 216.5zM423 231.3c0 3.5-.7 5.9-2.1 7.1-1.4 1.2-3.9 1.8-7.5 1.8h-28.5c-3.6 0-6.2-.6-7.5-1.8-1.4-1.2-2.1-3.6-2.1-7.1v-20.1c0-3.5.7-5.9 2.1-7.1 1.4-1.2 3.9-1.8 7.5-1.8h28.5c3.6 0 6.2.6 7.5 1.8 1.4 1.2 2.1 3.6 2.1 7.1V231.3zM414 233v-23.9h-29.7V233H414zM470.1 228.2L470.1 228.2l-6.7 12.1h-6.2l-22.9-37.6h9.1l17.3 28.4 5.8-10-9.6-18.4h8.3l14.5 28.3 17.3-28.3h7.9l-22.3 37.6h-6L470.1 228.2zM562.2 240.3h-7.8l-29.4-26.5v26.5h-8.2v-37.8h7.6l29.7 26.4v-26.4h8.1V240.3zM623.3 240.3h-39.8v-37.4h9.1v30.4h30.7V240.3zM687.2 231.3c0 3.5-.7 5.9-2.1 7.1-1.4 1.2-3.9 1.8-7.5 1.8h-28.5c-3.6 0-6.2-.6-7.5-1.8-1.4-1.2-2.1-3.6-2.1-7.1v-20.1c0-3.5.7-5.9 2.1-7.1 1.4-1.2 3.9-1.8 7.5-1.8h28.5c3.6 0 6.2.6 7.5 1.8 1.4 1.2 2.1 3.6 2.1 7.1V231.3zM678.2 233v-23.9h-29.7V233H678.2zM757.5 240.3H748l-5.6-8.2h-27.6l-5.3 8.2h-9.8l24-37.6h9.5L757.5 240.3zM738 225.2l-9.5-15.3-9.5 15.3H738zM813.5 219.1c-2 11.8-6.8 18.9-14.5 21.2h-29.8v-37.6h31.3C809.2 202.7 813.5 208.1 813.5 219.1zM805.1 221.3c1.3-7.9-1.5-11.9-8.4-12h-18.4v23.9h15.9C799.7 233 803.4 229.1 805.1 221.3zM875.6 231.3c0 3.6-.7 6-2.2 7.2-1.5 1.2-4.1 1.8-8 1.8h-24.5c-4.2 0-6.9-.7-8.2-2-1.3-1.4-2-4.3-2-8.7h9.1v3.6h27.4v-8.6h-25.5c-3.8 0-6.5-.6-7.9-1.8-1.4-1.2-2.2-3.6-2.2-7.1v-4.1c0-3.6.7-6 2.2-7.2 1.4-1.2 4.1-1.8 7.9-1.8h32.9v6.7h-34.8v8h25.5c3.8 0 6.5.6 8 1.8 1.5 1.2 2.2 3.6 2.2 7.1V231.3z"/></g></svg>