<?xml version="1.0" encoding="utf-8"?>
<!-- Generator: Adobe Illustrator 24.1.2, SVG Export Plug-In . SVG Version: 6.00 Build 0)  -->
<svg version="1.1" id="Слой_1" xmlns="http://www.w3.org/2000/svg" xmlns:xlink="http://www.w3.org/1999/xlink" x="0px" y="0px"
	 viewBox="0 0 300 301" enable-background="new 0 0 300 301" xml:space="preserve">
<g transform="translate(0.000000,301.000000) scale(0.050000,-0.050000)">
	<g id="XMLID_1_">
		<g>
			<path d="M5880,3149.5l105-112l-77-81c-43-45-122-123-176-173c-54-51-121-116-150-144s-119-104-202-170c-249-198-230-148-160-419
				c112-434,175-844,136-880c-61-57-285-78-861-81l-575-2l-82-119c-220-316-470-616-697-836l-163-158l-81,78
				c-172,165-535,602-686,825l-60,88l-100-12c-286-32-469-36-732-15c-343,28-558,60-597,90c-53,42,0,714,81,1021c20,73,17,82-26,110
				c-191,125-777,689-777,749c0,49,262,335,511,558c206,184,219,200,217,270c-2,90-22,218-38,244c-15,24-90,625-90,723
				c0,103,63,136,330,166c356,42,486,50,770,51l330,1l110,153c142,197,421,502,655,716c102,94,197,170,211,170c78,0,693-668,863-938
				l55-87l183,17c284,28,1053,21,1110-10c65-35,36-402-68-874c-63-282-64-273,34-338C5335,3627.5,5770,3264.5,5880,3149.5z
				 M4191,2547.5c247,682-123,1423-821,1645c-994,315-1929-618-1604-1602C2151,1424.5,3773,1396.5,4191,2547.5z"/>
			<path fill="#FFFFFF" d="M3370,4192.5c698-222,1068-963,821-1645c-418-1151-2040-1123-2425,43
				C1441,3574.5,2376,4507.5,3370,4192.5z M3739,2846.5c107,515-387,997-889,867c-490-127-750-606-572-1058
				C2548,1966.5,3585,2101.5,3739,2846.5z"/>
			<path d="M2850,3713.5c502,130,996-352,889-867c-154-745-1191-880-1461-191C2100,3107.5,2360,3586.5,2850,3713.5z M3424,2926.5
				c188,25,258,256,122,398c-78,81-197,79-277-5C3126,3170.5,3233,2900.5,3424,2926.5z"/>
			<path fill="#FFFFFF" d="M3546,3324.5c136-142,66-373-122-398c-191-26-298,244-155,393C3349,3403.5,3468,3405.5,3546,3324.5z"/>
		</g>
		<g>
		</g>
	</g>
</g>
</svg>
