<svg xmlns="http://www.w3.org/2000/svg" viewBox="0 0 300 301"><defs/><path d="M294 144l5 5-4 4-8 9-8 7-10 9c-12 9-12 7-8 20 6 22 9 43 7 44-3 3-14 4-43 5h-29l-4 6c-11 15-24 30-35 41l-8 8-4-4c-9-8-27-30-34-41l-3-4h-5c-15 2-24 2-37 1-17-1-28-3-30-4-3-3 0-36 4-51 1-4 1-5-1-6-10-6-39-34-39-37s13-17 26-28c10-10 10-10 10-14l-2-12-4-36c0-5 3-7 16-8 18-3 25-3 39-3h16l6-8a278 278 0 0143-44c4 0 35 33 43 47l3 4 9-1c15-1 53-1 56 1s2 20-4 44c-3 14-3 13 2 16l35 30zm-84 30c12-34-7-72-41-83a64 64 0 00-81 80 64 64 0 00122 3z"/><path fill="#FFF" d="M169 91a64 64 0 11-80 80 64 64 0 0180-80zm18 68c5-26-19-50-45-44-24 7-37 31-28 53 13 35 65 28 73-9z"/><path d="M143 115c25-6 49 18 44 44-8 37-60 44-73 9-9-22 4-46 28-53zm28 40c10-2 13-13 6-20-4-4-10-4-14 0-7 7-1 21 8 20z"/><path fill="#FFF" d="M177 135c7 7 4 18-6 20-9 1-15-13-8-20 4-4 10-4 14 0z"/></svg>