<svg xmlns="http://www.w3.org/2000/svg" xmlns:xlink="http://www.w3.org/1999/xlink" viewBox="0 0 1747.16 1152.61"><defs><radialGradient id="radial-gradient" cx="1116.61" cy="637.38" r="152.46" gradientUnits="userSpaceOnUse"><stop offset="0.1"/><stop offset="0.11" stop-color="#080602"/><stop offset="0.16" stop-color="#231b08"/><stop offset="0.22" stop-color="#392c0d"/><stop offset="0.28" stop-color="#4a3910"/><stop offset="0.37" stop-color="#554213"/><stop offset="0.48" stop-color="#5c4815"/><stop offset="0.8" stop-color="#5e4915"/><stop offset="1"/></radialGradient><radialGradient id="radial-gradient-2" cx="632.67" cy="424.66" r="5.08" gradientUnits="userSpaceOnUse"><stop offset="0" stop-color="#d4e194"/><stop offset="0.06" stop-color="#afba7a"/><stop offset="0.14" stop-color="#868f5e"/><stop offset="0.22" stop-color="#626845"/><stop offset="0.31" stop-color="#44482f"/><stop offset="0.4" stop-color="#2b2e1e"/><stop offset="0.51" stop-color="#181911"/><stop offset="0.62" stop-color="#0a0b07"/><stop offset="0.76" stop-color="#020302"/><stop offset="1"/></radialGradient><radialGradient id="radial-gradient-3" cx="574.94" cy="399.28" r="5.08" xlink:href="#radial-gradient-2"/><radialGradient id="radial-gradient-4" cx="596.61" cy="408.8" r="38.11" gradientUnits="userSpaceOnUse"><stop offset="0.05"/><stop offset="0.09" stop-color="#040a03"/><stop offset="0.3" stop-color="#183411"/><stop offset="0.48" stop-color="#25531c"/><stop offset="0.64" stop-color="#2e6622"/><stop offset="0.75" stop-color="#316d24"/><stop offset="0.79" stop-color="#4f6e16"/><stop offset="0.83" stop-color="#716f06"/><stop offset="0.86" stop-color="#7e6f00"/><stop offset="0.89" stop-color="#7a6c00"/><stop offset="0.91" stop-color="#706200"/><stop offset="0.94" stop-color="#5d5200"/><stop offset="0.96" stop-color="#443c00"/><stop offset="0.98" stop-color="#231f00"/><stop offset="1"/></radialGradient><radialGradient id="radial-gradient-5" cx="1008.27" cy="589.76" r="101.64" gradientUnits="userSpaceOnUse"><stop offset="0" stop-color="#200"/><stop offset="0.73" stop-color="#984023"/><stop offset="1" stop-color="#200"/></radialGradient><radialGradient id="radial-gradient-6" cx="1008.27" cy="589.76" r="50.82" gradientUnits="userSpaceOnUse"><stop offset="0.15" stop-color="#fff"/><stop offset="0.21" stop-color="#e5d3d3"/><stop offset="0.29" stop-color="#c49c9e"/><stop offset="0.36" stop-color="#ad7477"/><stop offset="0.42" stop-color="#9e5c5f"/><stop offset="0.45" stop-color="#995356"/><stop offset="0.57" stop-color="#6b3335"/><stop offset="0.69" stop-color="#431718"/><stop offset="0.79" stop-color="#2b0606"/><stop offset="0.85" stop-color="#200"/><stop offset="0.86" stop-color="#260201"/><stop offset="0.86" stop-color="#330704"/><stop offset="0.87" stop-color="#471009"/><stop offset="0.88" stop-color="#641d0f"/><stop offset="0.89" stop-color="#8a2e18"/><stop offset="0.9" stop-color="#b74223"/><stop offset="0.9" stop-color="#d34e29"/><stop offset="0.9" stop-color="#c84927"/><stop offset="0.91" stop-color="#9c361c"/><stop offset="0.93" stop-color="#772514"/><stop offset="0.94" stop-color="#58180c"/><stop offset="0.95" stop-color="#400d07"/><stop offset="0.97" stop-color="#2f0603"/><stop offset="0.98" stop-color="#250101"/><stop offset="1" stop-color="#200"/></radialGradient><radialGradient id="radial-gradient-7" cx="1008.27" cy="589.76" r="42.35" gradientUnits="userSpaceOnUse"><stop offset="0.15" stop-color="#fff"/><stop offset="0.28" stop-color="#c2c2c2"/><stop offset="0.43" stop-color="#888"/><stop offset="0.56" stop-color="#575757"/><stop offset="0.69" stop-color="#313131"/><stop offset="0.81" stop-color="#161616"/><stop offset="0.92" stop-color="#060606"/><stop offset="1"/></radialGradient><radialGradient id="radial-gradient-8" cx="574.94" cy="399.28" r="76.23" gradientUnits="userSpaceOnUse"><stop offset="0.64"/><stop offset="0.72" stop-color="#000200"/><stop offset="0.75" stop-color="#020902"/><stop offset="0.77" stop-color="#051405"/><stop offset="0.78" stop-color="#082509"/><stop offset="0.8" stop-color="#0d3b0e"/><stop offset="0.8" stop-color="#0f4310"/><stop offset="0.81" stop-color="#1e2c0a"/><stop offset="0.83" stop-color="#2d1605"/><stop offset="0.85" stop-color="#360901"/><stop offset="0.86" stop-color="#390400"/><stop offset="0.87" stop-color="#250300"/><stop offset="0.89" stop-color="#140100"/><stop offset="0.9" stop-color="#090100"/><stop offset="0.93" stop-color="#020000"/><stop offset="1"/></radialGradient><radialGradient id="radial-gradient-9" cx="613.51" cy="416.23" r="21.11" gradientUnits="userSpaceOnUse"><stop offset="0.1" stop-color="#402b36"/><stop offset="0.12" stop-color="#3c2933"/><stop offset="0.33" stop-color="#22171d"/><stop offset="0.55" stop-color="#0f0a0d"/><stop offset="0.77" stop-color="#040303"/><stop offset="1"/></radialGradient><radialGradient id="radial-gradient-10" cx="917.44" cy="549.83" r="16.41" gradientUnits="userSpaceOnUse"><stop offset="0.1" stop-color="#494156"/><stop offset="0.24" stop-color="#332e3d"/><stop offset="0.42" stop-color="#1d1a22"/><stop offset="0.61" stop-color="#0d0b0f"/><stop offset="0.8" stop-color="#030304"/><stop offset="1"/></radialGradient><radialGradient id="radial-gradient-11" cx="761.18" cy="286.09" r="47.79" gradientUnits="userSpaceOnUse"><stop offset="0.1"/><stop offset="0.29" stop-color="#001516"/><stop offset="0.52" stop-color="#002729"/><stop offset="0.75" stop-color="#003134"/><stop offset="1" stop-color="#003538"/></radialGradient><radialGradient id="radial-gradient-12" cx="597.64" cy="409.26" r="9.87" gradientUnits="userSpaceOnUse"><stop offset="0.1"/><stop offset="0.28" stop-color="#151011"/><stop offset="0.51" stop-color="#281e20"/><stop offset="0.75" stop-color="#332729"/><stop offset="1" stop-color="#372a2c"/></radialGradient><radialGradient id="radial-gradient-13" cx="1088.14" cy="624.86" r="0.74" xlink:href="#radial-gradient-11"/><pattern id="Алиса" data-name="Алиса" width="144.13" height="138.36" patternUnits="userSpaceOnUse" viewBox="0 0 144.13 138.36"><path class="cls-1" d="M0 0h144v138H0z"/><path class="cls-2" d="M211 159c-12-2-19 0-23 3-3 2-5 5-2 12s2 14-5 15-11-4-12-12c0-5-2-8-5-7s-5 5-4 11c2 8 6 12 6 21 1 6-2 13-12 15-9 1-16-5-17-11 0-7 4-11 4-18s-4-10-6-17c-3-10 1-19 7-23 15-8 23 4 36 2 11-2 24-18 33-20 9-1 14 5 15 14s-4 16-15 15zm-42 0a4 4 0 10-4 4 4 4 0 004-4zm49-15a2 2 0 10-1 1 2 2 0 001-1z"/><path class="cls-3" d="M49 139c0 8 4 14-1 17-9 4-28-15-28-36 0-12 8-19 18-19 12 0 18 8 18 17s-7 13-7 21zm-6-5a2 2 0 10-2 2 2 2 0 002-2z"/><path class="cls-4" d="M124 163c-8 3-20-15-18-27 1-8 7-13 13-14 7-2 13 2 13 7 1 6-3 7-4 15-1 7 4 16-4 19zm-4-28a3 3 0 10-3 3 3 3 0 003-3z"/><path class="cls-3" d="M19 140a3 3 0 11-2-2 3 3 0 012 2z"/><path class="cls-4" d="M85 133c0 8 12 7 18 14 10 14-2 46-22 46-12 0-24-10-24-29 0-16 10-21 8-42-1-11-13-21-13-35 0-6 4-13 12-13 7 0 11 6 11 13 0 6-6 15 1 19 5 2 13-5 20-7 5-2 12 0 14 8 3 9-3 15-11 17-6 2-15 2-14 9zm-16-31a3 3 0 10-4 3 3 3 0 004-3zm26 10a2 2 0 10-3-3 2 2 0 003 3zm-20 59a3 3 0 10-4 4 3 3 0 004-4z"/><path class="cls-2" d="M67 159c-12-2-19 0-23 3-3 2-5 5-2 12s2 14-5 15-11-4-12-12c0-5-2-8-5-7s-5 5-4 11c1 8 6 12 6 21 1 6-3 13-12 15-9 1-16-5-17-11 0-7 4-11 3-18s-4-10-5-17c-3-10 1-19 7-23 15-8 23 4 36 2 11-2 24-18 33-19 9-2 14 4 15 14s-4 15-15 14zm-42 0a4 4 0 10-4 4 4 4 0 004-4zm49-15a2 2 0 10-2 1 2 2 0 002-1z"/><path class="cls-4" d="M190 112c0 6-4 11-8 12s-9-2-13 1c-5 2-7 11-17 11-8 0-15-8-15-19 0-20 13-29 25-29 17 0 28 12 28 24zm-19-14a4 4 0 10-4 3 4 4 0 004-3z"/><path class="cls-2" d="M211 20c-12-1-19 1-23 3-3 3-5 6-2 12 3 7 2 15-5 16s-11-5-12-12c0-5-2-8-5-8s-5 6-4 12c2 8 6 12 6 20 1 6-2 14-12 15-9 2-16-4-17-10 0-7 4-11 4-18s-4-10-6-17c-3-11 1-19 7-23 15-8 23 4 36 2 11-2 24-19 33-20s14 5 15 14-4 15-15 14zm-42 1a4 4 0 10-4 4 4 4 0 004-4zm49-16a2 2 0 10-1 2 2 2 0 001-2z"/><path class="cls-4" d="M32 84c-14 2-21-14-18-21 4-7 12-4 20-4 9 0 16-7 20-2s-5 24-22 27zm0-18a2 2 0 10-2 2 2 2 0 002-2z"/><path class="cls-3" d="M49 1c0 7 4 14-1 16-9 4-28-14-28-36 0-12 8-19 18-19 12 0 18 8 18 18S49-7 49 1zm-6-5a2 2 0 00-2-2 2 2 0 00-2 2 2 2 0 002 2 2 2 0 002-2z"/><path class="cls-4" d="M46 112c0 6-4 11-8 12s-9-2-13 1c-5 2-8 11-17 11-8 0-15-8-15-19 0-20 13-29 25-29 17 0 28 12 28 24zM26 98a4 4 0 10-3 3 4 4 0 003-3z"/><path class="cls-2" d="M46 88a2 2 0 11-3-2 2 2 0 013 2z"/><path class="cls-4" d="M129 70c-3 4 1 11-1 15s-7 5-10 3c-4-3-3-7-8-9-6-3-18 2-20-7-1-5 2-9 7-10 6-2 10 0 16-3s11-9 22-12c10-3 16 1 16 5 1 9-17 10-22 18zm-2-8a2 2 0 10-2 3 2 2 0 002-3z"/><path class="cls-3" d="M156 109c0 17-14 26-27 23-10-2-13-18-17-26-3-9-8-23-20-23-11 0-13 15-23 15-11 0-25-16-25-40 0-15 10-31 21-31 12 1 5 20 15 20s8-16 9-23c2-9 7-14 19-13 14 1 22 13 19 23-4 11-24 17-22 30 2 8 13 12 26 17 15 4 25 11 25 28zm-45-76a3 3 0 103-3 3 3 0 00-3 3zM65 58a2 2 0 10-2 2 2 2 0 002-2zm17 11a4 4 0 10-4 4 4 4 0 004-4zm20-16a2 2 0 10-2 2 2 2 0 002-2zm30 55a3 3 0 10-4 3 3 3 0 004-3z"/><path class="cls-4" d="M124 24c-8 3-20-15-18-27 1-8 7-13 13-14 8-1 13 3 13 7 1 7-3 8-4 15-1 8 4 17-4 19zm-4-27a3 3 0 00-3-3 3 3 0 00-2 3 3 3 0 002 3 3 3 0 003-3z"/><path class="cls-3" d="M19 2a3 3 0 11-2-3 3 3 0 012 3zM153 89c0-9-5-15-11-15s-11 6-11 15 5 12 11 12 11-4 11-12z"/><path class="cls-4" d="M85-6c0 8 12 7 18 14 10 15-2 47-22 47-12 0-24-10-24-29 0-16 10-22 8-43-1-10-13-20-13-34 0-6 4-14 12-14 7 0 11 6 11 13s-6 16 1 19c5 3 13-5 20-7 5-1 12 1 14 9 3 9-3 15-11 17-6 1-15 2-14 8zM69-36a3 3 0 00-4-4 3 3 0 00-3 4 3 3 0 003 3 3 3 0 004-3zm26 9a2 2 0 002-2 2 2 0 00-2-2 2 2 0 00-3 2 2 2 0 003 2zM75 33a3 3 0 10-4 3 3 3 0 004-3z"/><path class="cls-2" d="M67 20c-12-1-19 1-23 3-3 3-5 6-2 12 3 7 2 15-5 16s-11-5-12-12c0-5-2-8-5-8s-5 6-4 12c1 8 6 12 6 20 1 6-3 14-12 15-9 2-16-4-17-10 0-7 4-11 3-18s-4-10-5-17c-3-11 1-19 7-23 15-8 23 4 36 2C45 10 58-6 67-8c9-1 14 5 15 14s-4 15-15 14zm-42 1a4 4 0 10-4 4 4 4 0 004-4zM74 5a2 2 0 10-2 2 2 2 0 002-2zM130 42a1 1 0 11-1-1 1 1 0 011 1z"/><path class="cls-5" d="M136 4a2 2 0 11-2-2 2 2 0 012 2z"/><path class="cls-6" d="M52 27a1 1 0 11-1-1 1 1 0 011 1zM49 96a1 1 0 11-2-2 1 1 0 012 2z"/><path class="cls-3" d="M133 74a1 1 0 11-1-1 1 1 0 011 1z"/><path class="cls-7" d="M96 92a3 3 0 11-4-4 3 3 0 014 4z"/><path class="cls-3" d="M101 132a2 2 0 11-2-3 2 2 0 012 3zM62 125a2 2 0 11-2-1 2 2 0 012 1z"/><circle class="cls-7" cx="133.12" cy="11.21" r="2.62"/><circle class="cls-4" cx="123.15" cy="46.07" r="2.36"/><path class="cls-5" d="M28 53a3 3 0 11-3-3 3 3 0 013 3z"/><path class="cls-4" d="M23 46a1 1 0 11-2-2 1 1 0 012 2z"/><path class="cls-3" d="M87 97a2 2 0 11-2-1 2 2 0 012 1z"/><path class="cls-4" d="M-15 70c-3 4 1 11-1 15s-7 5-10 3c-4-3-4-7-8-9-6-3-18 2-20-7-1-5 2-9 7-10 6-2 9 0 15-3s12-9 23-12c10-3 16 1 16 6 1 8-17 9-22 17zm-2-8a2 2 0 00-2-2 2 2 0 00-3 2 2 2 0 003 3 2 2 0 002-3z"/><path class="cls-3" d="M12 109c0 17-14 26-27 23-10-2-13-18-17-26-3-9-9-23-20-23s-13 15-24 15c-10 0-24-16-24-40 0-15 10-31 21-31 12 1 4 20 15 20 10 0 8-16 9-23 2-9 7-14 19-13 14 1 22 13 19 23-4 11-24 17-22 30 2 8 13 12 26 16 15 5 25 12 25 29zm-45-76a3 3 0 003 3 3 3 0 004-3 3 3 0 00-4-3 3 3 0 00-3 3zm-47 25a2 2 0 00-1-2 2 2 0 00-2 2 2 2 0 002 2 2 2 0 001-2zm18 11a4 4 0 00-4-4 4 4 0 00-4 4 4 4 0 004 4 4 4 0 004-4zm20-16a2 2 0 00-2-1 2 2 0 00-1 1 2 2 0 001 2 2 2 0 002-2zm29 55a3 3 0 00-3-3 3 3 0 00-3 3 3 3 0 003 3 3 3 0 003-3z"/><path class="cls-3" d="M9 89c0-9-5-15-11-15s-11 6-11 15 5 12 11 12S9 97 9 89z"/></pattern><symbol id="circle" data-name="circle" viewBox="0 0 94.54 111.37"><path class="cls-8" d="M89 3h-1zM86 2v1h2a2 2 0 00-2 0V2zM48 4zM30 19s-1 0 0 0zM28 23zM48 4h-1 1zM81 3zM58 1zM66 0zM79 1zM52 2zM20 51zM30 51zM25 30zM51 88s0 2 1 0h-1zM81 3h-1a1 1 0 001 0zM52 88zM26 48zM25 35zM29 54zM34 59zM4 65s0-1 0 0zM81 2v0zM31 53a8 8 0 001 1l-1-1zM20 109l-1-1 1 1zM34 56a1 1 0 000 1 6 6 0 010-1z"/><path class="cls-8" d="M8 59v1H7l-1 2-2 3a1 1 0 011 0l-1 1v-1l-1 3v-1-1c0 1 1 0 0 0a29 29 0 00-1 3v1a3 3 0 01-1 1 2 2 0 000 2 2 2 0 010 2l-1-1v3a28 28 0 000 5l1 7a9 9 0 001 1v1c0 1 0 0 0 0l2 2a19 19 0 011 3l1 2a27 27 0 003 3l2 2 3 2a10 10 0 002 2h2l-1 1h2a6 6 0 012 1l3 1h-1 1a5 5 0 002 0l1 1a31 31 0 006 0c-1 0-1 0 0 0s1 0 0 0h3a28 28 0 005-1h1a13 13 0 004-2v-1h1a10 10 0 002-1 10 10 0 001-2v-1l2-4a8 8 0 001-3v-2c0-1 0 1 0 0v-5l1-7v-1l-1-6a21 21 0 00-3-7 2 2 0 00-1 0l-1-2 1 1-2-2-1-1-1-1a18 18 0 00-4-2h1a4 4 0 00-3-1l-2-1h1l-2-1a14 14 0 00-1-1 6 6 0 01-1 0l-2-2v-1a10 10 0 00-1-1l-1-1a5 5 0 00-1-2v-2a22 22 0 01-2-6v1l1 1a15 15 0 01-1-5v1a56 56 0 010-6v0l-1-1 1-1v-1-2l1 1a4 4 0 010-2l1-5h1v-1a11 11 0 011-2l-1 1 1-2v0l1-1a3 3 0 010-2l1 1 1-3v1-1l1-1a20 20 0 001-1 13 13 0 012-1h-1a22 22 0 015-3l2-1h-1l4-2 3-1s1 0 0 0l7-2v1l1-1a3 3 0 011 0c-1 0 0 0 0 0l2-1a8 8 0 011 0v1l2-1h-1a3 3 0 001 1h1l3-1v1h3c1 0 0 0 0 0h7a6 6 0 002 0h2a2 2 0 01-1 1l2-1v1a6 6 0 002 0V2l-1 1-1-1h1-4l-1-1s-1 0 0 0h-5-4s1 0 0 0h-2l1-1h-3l-2 1a22 22 0 00-3 0h-3a2 2 0 01-1 0h1a27 27 0 01-4 1s1 0 0 0h-1 1a4 4 0 01-2 0h-1l-1 1-2 1-5 2a15 15 0 00-2 1h-1a6 6 0 01-1 2V8a4 4 0 00-2 1l-1 1h1a14 14 0 01-1 1v-1a7 7 0 00-2 2 5 5 0 01-2 2h1l-2 2-1 2v1h-1 1v-1 1l-1 1c-1 0 0 0 0 0a23 23 0 00-1 3v-1l-1 2v1c0 1 0 0 0 0a11 11 0 01-1 3v-1a7 7 0 010 1v2c0-1-1 1-1-1a4 4 0 010 1v3c0-1 0 0 0 0v2-1 7c0-1 0-1 0 0v-2 1a15 15 0 010-1v2l1 5v-1 3l1 1v1l2 2h-1v1l1 1 1 1a4 4 0 001 1 10 10 0 001 1l1 1a4 4 0 011 1l3 2h1l3 2h-1l3 1a8 8 0 013 2h1v2l-1-1 1 1a6 6 0 001 1 5 5 0 011 2v-1l1 2a12 12 0 010 1l1 1v1l-1-2a10 10 0 001 2 3 3 0 01-1-1 4 4 0 011 1 6 6 0 010 2v1a5 5 0 010 3v6c1-1 0 1 1 1l-1 2-1 1 1 1v-1l-1 3v4l-1 3a5 5 0 01-1 2v1h-1a3 3 0 010 1l-4 2h-2l-6 2-7-1v1c-1-1-2 0-1-1l-2-1-1 1a14 14 0 00-3-1 5 5 0 01-3-2h-1v-1l-3-2-2-1a17 17 0 01-2-2 12 12 0 00-1-2l-1-1-1-1v-1l-1-1a3 3 0 01-1-1c-1-1 0-1 0 0l-1-2a2 2 0 00-1-1v-2a1 1 0 010-1l-1-3 1 2s0-1 0 0a7 7 0 01-1-3 2 2 0 000-1v-2s0-1 0 0a1 1 0 000 1v1a2 2 0 010-1 5 5 0 01-1-1l1-2v-5h1a3 3 0 000 1v-2-1l1-1a14 14 0 001-3 7 7 0 012-3l4-4a15 15 0 014-3l2-1 1-1a4 4 0 012-1 6 6 0 002 0v-1h2l2-1 2 1 2-1h-1c1 0 1-1-1-1a12 12 0 00-1 0h1a2 2 0 00-1 0 1 1 0 00-1 0h-1l-1 1h-1l1-1-2 1h-2a5 5 0 01-1 1h-2a4 4 0 01-2 1 10 10 0 00-1 2 1 1 0 010-1 7 7 0 01-1 1l-1 2-1-1v1h-1l-1 2H8c-1 1 0 0 0 0zM1 82H0zm0 3v-1 1zm1-5v1-1zM2 79v1zM48 4zM17 108h1-1zM59 2h1-1zM64 2h1zM68 2V1zM27 35zM32 18h-1 1zM31 53z"/><path class="cls-8" d="M31 19a3 3 0 000-1 3 3 0 000 1zM84 3zM84 3h0zM85 3zM79 2zM78 2a7 7 0 001 0h-1zM72 0l1 1V0h-1zM68 0c-1 0-1 0 0 0zM40 8v0zM36 12h1v-1l-1 1zM33 13v1-1zM33 59v-1 1zM49 71a2 2 0 000 1 4 4 0 000-1zM24 107h-1a2 2 0 001 0zM61 59h1-1zM62 57v2a2 2 0 000-2zM86 53zM92 68zM92 71zM86 53v0zM64 54zM80 50a1 1 0 00-1 0zM74 52l1-1h-1v1zM66 54zM83 51v0zM57 84zM50 84zM92 76zM65 97v0zM64 54h1a1 1 0 00-1 0zM65 98zM91 88zM93 79v1a1 1 0 000-1zM90 92a1 1 0 000 1v-1zM87 96h1a1 1 0 01-1 0zM68 74zM64 54zM92 94h-1a5 5 0 001 0zM57 69v-1 1zM90 96a2 2 0 000 1v-1z"/><path class="cls-8" d="M65 78c1 0 0 0 0 0l1-1v-1l1-2h1a1 1 0 01-1 0v-1h1v1a9 9 0 010-2c1 0 0 1 0 0v1h1l1-2h-1l2-2v-1-2 0h1a13 13 0 000-4h1a7 7 0 00-1-3 5 5 0 00-2-2 6 6 0 00-1 0 11 11 0 00-3 0h-2l-1 1-4 4-1 2a6 6 0 00-1 2v2a3 3 0 01-1 2v2a5 5 0 000 2v4c0 1 0 1 0 0v2 4a18 18 0 000 3c0 1 0 0 0 0v1a9 9 0 000 1 8 8 0 000 2v1-1l2 3a4 4 0 002 2h-1l2 1s-1 0 0 0l3 2 4 3 4 2a14 14 0 005 1 1 1 0 001-1h1c2-1 5-1 6-3l1-1h1l1-1v-1a5 5 0 001-1 4 4 0 011 0v-2c1 1 2-1 2-1s0-1 0 0v-2l1-2a47 47 0 001-5v2a35 35 0 010-4c0-1 0 0 0 0a27 27 0 000-4h1l-1-1 1-1h-1 1l-1-1a3 3 0 010-2l-1-3h1v-1a10 10 0 01-1-1v-1-1a2 2 0 01-1-1h1l-1-2v-1s0 1 0 0l-1-3s0 1 0 0l-2-3-1-1h1a10 10 0 00-2-3 9 9 0 00-1-2h-1a3 3 0 00-2-1 14 14 0 01-2-1 7 7 0 00-1 0 2 2 0 01-1 1v-1l-1 1a7 7 0 01-1 0h-1a2 2 0 00-1 0h-1 1l-2 1h-1-1c-1 0 0 0 0 0l-3 2-2 1a2 2 0 00-1 0h-1v1a1 1 0 010-1 11 11 0 00-1 1l-1 1h1-1 1c0 1 0 0 0 0l1-1a3 3 0 011-1v1l1-1h2v-1h2v-1h2s-1 0 0 0l1-1v1l1-1 2-1h4a3 3 0 012 1l1-1h-1a1 1 0 011 0h-1 1v1h-1a1 1 0 011 0l1 1 2 1 2 3a19 19 0 001 1v1a2 2 0 010 1l1 1v1a4 4 0 010 1v-1l1 4v-1a7 7 0 010 2l1 2c0-1 0-1 0 0s0 1 0 0h-1 1l-1 1h1v4a4 4 0 010 2v-1a2 2 0 010 1l1 1-1 1v-1a2 2 0 010 1v-1 2l1 1v2l-1 1v0l1 1v-1c0 1 0 1 0 0v2h-1v4h-1v4l-1-1v3l-3 2a12 12 0 01-1 2l-1 1-1 1v-1l-2 2a3 3 0 01-1 0 6 6 0 01-1 1v-1 1h-1-3-1a7 7 0 01-2 0h2a5 5 0 00-2 0h1a3 3 0 01-2 0l-2-2-4-2h-1l-1-1v-1h-1l-1-1-2-1v-1l-1-1a3 3 0 01-1-2 2 2 0 010-1l-1-3 1-2a27 27 0 000-5l1-4-1-1v-1 1l1-2h-1a6 6 0 001-3v-2-1h1l1-2v-2 1l2-3 2-1h1a1 1 0 011-1v1h2-1 2a1 1 0 011 1h-1a6 6 0 001 1v1a6 6 0 000-2l-1 1a2 2 0 011 0 1 1 0 010 1 1 1 0 000 1 4 4 0 00-1 0v1l1-1a1 1 0 010 1l-2 1v4h-1a2 2 0 000-1v2l-1 1v-1a5 5 0 00-1 3 4 4 0 01-1 2l-3 3a9 9 0 01-3 3h-1v1l-3 1h-1l-1 1v-1l-1 1-1-1-1 1c0 1-1 1 1 1h1-1a1 1 0 001 0 8 8 0 001 0h1l1-1h2a3 3 0 011-1h1l2-2v1a4 4 0 011-1v-1l1 1v-1l1-1 1-1zm7-16v0zm0-1zm-2 2a2 2 0 000 1v-1zM70 64zM86 53zM57 67zM79 49zM75 50zM73 51z"/><path class="cls-8" d="M94 79c1 1 1 0 0 0zM93 67zM92 93v1-1zM93 68a1 1 0 000-1 2 2 0 000 1zM62 56zM62 56zM62 56zM65 53zM66 53a3 3 0 00-1 0h1zM71 53h-1 1zM74 52c-1 0 0 0 0 0zM89 58h-1 1zM91 61zM90 64zM88 95v0zM76 102a1 1 0 00-1 0 2 2 0 001 0zM59 71z"/></symbol><style>.cls-1,.cls-10,.cls-26,.cls-28,.cls-29,.cls-30,.cls-31,.cls-38{fill:none}.cls-2,.cls-7{fill:#c6dd7f}.cls-2,.cls-3,.cls-4{mix-blend-mode:multiply}.cls-3,.cls-5{fill:#e9ddb7}.cls-4,.cls-6{fill:#a6d0e4}.cls-8{fill:#202020}.cls-10,.cls-26,.cls-31,.cls-32,.cls-33,.cls-34,.cls-35{stroke:#000}.cls-10,.cls-26,.cls-28,.cls-29,.cls-30,.cls-31,.cls-32,.cls-33,.cls-34,.cls-35,.cls-37,.cls-38{stroke-miterlimit:10}.cls-26,.cls-28,.cls-29,.cls-30,.cls-31{stroke-width:2px}.cls-37,.cls-38{stroke:#1d1d1b}.cls-28,.cls-29,.cls-30,.cls-31,.cls-37,.cls-38{stroke-linecap:round}.cls-27{font-size:7.05px;font-family:MyriadPro-Regular,Myriad Pro}.cls-28{stroke:#404040}.cls-29{stroke:gray}.cls-30{stroke:#dfdfdf}.cls-32{fill:#404040}.cls-32,.cls-33,.cls-34,.cls-35{stroke-width:.5px}.cls-33{fill:gray}.cls-34{fill:#dfdfdf}.cls-37{fill:#ededed}</style></defs><g style="isolation:isolate"><g id="Слой_1" data-name="Слой 1"><path d="M1494 439a49 49 0 0114 1 77 77 0 00-14-1zM1479 439h15-15zM1447 370a145 145 0 00-8-24 192 192 0 018 24zM503 552l-1 1 5-8-2 2a57 57 0 0115-15 125 125 0 0128-12c21-7 45-7 64-21-12-2-23-10-29-19a37 37 0 01-3-6 44 44 0 014-15 950 950 0 0027-37h-1l1-1c8-8 16-16 18-27l-5 8c16-25 27-54 23-83a4 4 0 003-1 99 99 0 0110-1 68 68 0 0132 4c-6-10-17-16-27-22-5-3-8-8-11-13a39 39 0 01-5-9c-5-9 5-17 7-25a5 5 0 000-1l1-1a3 3 0 00-1 1 5 5 0 000-1l1-1v-1a119 119 0 0118-19 20 20 0 004-3 81 81 0 0110-6c-6 1-10 5-13 8a82 82 0 00-10 9c4-5 10-11 16-14a41 41 0 019-5c11-2 28 0 28-16 3 8-2 15-2 22 3-1 8-2 9-6 2-24-13-51 0-71 1-3 3-9 6-13s5-11 9-1c2 1 4 1 4-1 1 3 1-7 1-9 0-12-1-13-2-8-1 1-2 8-4-5-1 2-3 2-5-1l-5-11c3 1 6 6 8-2 3-4 6-9 8 2 3 9 6 13 8 10 3-5 6-3 8-6 3-9 6 1 9-5 2-6 5 9 8 7s5-9 8-2c2 6 3-6 5-9 1-15 2-15 4 6l2 21c1 5 1 2 2-7l2-16c2-8 5-5 7-5 3 9 5 6 7 3 3 1 5 5 6 9s2 6 2-4v-5l1 26c1 14 2 20 4 20l6 20 12 27c-9-13-20-25-22-41 0 20-5 44 16 56l7 6 8 5v0c1-15 3-29 13-42a67 67 0 017-8 62 62 0 018-6 77 77 0 0157-9 142 142 0 0137 13l-1-1a129 129 0 00-36-10h-10c-13-1-26 1-37 8a69 69 0 00-9 5c-18 13-21 32-25 51 27-4 50 8 66 29 2-3 3-7 6-9a27 27 0 0113 2c10 4 18 13 25 20-10-5-17-18-30-16-2 0-3 5-3 8l1 10a125 125 0 01-3 36 27 27 0 01-3 7c-3 5-8 0-11 3 11-2 21 4 32 2l6-6 5-7a160 160 0 0016-29c-10-9-22-23-35-28a32 32 0 00-11-3h3a8 8 0 00-2 0h-1a6 6 0 00-2 1h-1c12-23 14-47 21-73 2-8 16-2 24 1 16 7 30 17 49 21 15 3 30 11 40 23 14 16 28 39 51 33a9 9 0 01-4 3l-11-1a25 25 0 00-4-1c3 16 3 31-5 46-8 12-19 26-33 24l-7-2a23 23 0 007 2c5 2 9 3 14 0 22-17 31-42 26-69h2c4 1 8 3 11 1 26 4 53 12 79 2 2-1 8 4 13 7-6 4-10-4-16-2-8 3-22 4-20 13 6 20-8 46 3 55 25 19 66-4 95 18a39 39 0 0012 6c-2-4-8-4-8-9 4 6 11 8 17 11l-4-3c2-3 4-5 8-7a6 6 0 00-2 6c1 6 11 8 18 10-2-3-8-5-6-6l2-2 1 1c6 3 12 8 19 10 0-3-5-6-4-6 15-19 23-39 23-62 3 22-7 41-15 61a19 19 0 002 7l4-7a25 25 0 004 19c-4-6-4-13-3-19a119 119 0 0011-24l1-1a95 95 0 01-12 26c7-9 11-19 15-30l5-6a57 57 0 015-4 31 31 0 0113-7h2l1 1h4a3 3 0 001 0h4l21 8a116 116 0 0121 16 89 89 0 019 12l1 1a6 6 0 00-1 0l1 1a111 111 0 0115 63 73 73 0 000-9v-4 1a99 99 0 00-3-20 107 107 0 013 22l-1 9-1 11a161 161 0 010 2 45 45 0 000 12l7 4 15 7a30 30 0 008 2c-8 0-15-2-23-6a36 36 0 00-6-3c0-2-3 0-3-2-2 6-7 12-10 18a16 16 0 00-1 1c-2 3-4 6-1 10-3-3-2-6 0-9-10 11-26 14-40 12a2935 2935 0 00-30-16 30 30 0 002 3l-15-7c-27-12-42 31-38 59v1l-1 6a12 12 0 01-1 4c-5 5-15 8-22 11 8-3 18-5 22-11a12 12 0 002-5 56 56 0 01-2 7c-4 12-30 14-26 24 6 16 29 3 33-14a9 9 0 011 0c-5 22-28 29-44 13-5 6-2 14-1 20v-1l-2-8c-1 3 1 5 2 8 3 17 6 35 3 54-1 4 2 8 2 12h-2l1 3a6 6 0 01-2-2l-1-1v-1 1l-1-2 1 2a12 12 0 001 4c1 4 1 9-2 10-21 5-32 21-52 26-8 1-14-11-17-9-11 6-9 26-24 32l5-4c-19 8-45 21-63 6h1l-10-2 1-1h1a1 1 0 00-1 0c-4 1-7 5-10 8l2-1-3 7-1-5c-1-1-3 0-4 1 1-4 5 0 6-3-3-1-6 2-9 2l1-1-7 2c-7 6-8 15-16 19 7-5 11-13 13-22a60 60 0 01-6 7l-1-2c-16-15-47-11-63 3-2 3 0 7-2 10a25 25 0 000-6l5-22-4 12 2-9a27 27 0 00-2 10l-1 2a11 11 0 001-2l-1 9a43 43 0 000 6l-2 2c-38 12-49-45-38-75-24-2-47-19-69-20a77 77 0 0110-22 66 66 0 006-8 50 50 0 00-6 8c-14 14-33 21-52 6-3-3-9 1-13-1a37 37 0 01-12-8l-2 1c-2 1-1 5-1 7l-6-5-3 7-2 8c0 14 14 20 20 31a1 1 0 01-1-1c-10 18-18 37-26 56-3 6-14 1-18 7-6 8-13 3-19 9 3 1 6 3 6 5 1 8 0 19-9 24v-5c-1 6-4 11-8 16-4-3 2-6 0-9-7 6-13 10-17 17a33 33 0 00-3 9c0 1-5 1-7 3-6 9-6 21-12 30 0-2-2-4-4-5-1 5-5 5-8 6-14 2-28 0-41 5h-13l2 1a17 17 0 01-3-1l-1-1a6 6 0 001 3l-1-1 1 1a5 5 0 001 1c3 5 3 11 5 16 5 16 19 26 29 38 13 14 15 39 2 55-14 16-36 24-54 15l-20-10c-15-7-30-13-47-17a69 69 0 01-8-5 60 60 0 01-4-13c4-21 23-33 35-50a11 11 0 003-7c3-9 5-19 3-27 0-10-7-18-16-22l-6-3-16-10-15-11-13-11a112 112 0 008 8l-29-22c-3-1-4 3-6 3 10-10 21-21 19-35h1c21-30-3-59-33-71l4-1 1-4c5-3 10 0 15-1-5-2-10-5-12-11a78 78 0 01-4-9c-6-16-7-33-6-49l-1 1 2-3zM1451 389v1zM1451 393v-1-2 3z" transform="translate(-41 177)"/><path d="M1451 396a89 89 0 010 9 75 75 0 01-2 10v-3a156 156 0 002-16zM1451 396a92 92 0 010-4v4zM1451 402zM1449 412v3l-1 3 1-6zM1443 354a19 19 0 01-1-3l1 3zM1438 341l4 10-2-3a29 29 0 00-3-8l-1-1a9 9 0 012 2 1 1 0 000 1l1 1a1 1 0 00-1-1v-1zM1440 348l2 4-2-4z" transform="translate(-41 177)"/><path d="M1440 348v-1a1 1 0 010 1zM1440 347l-4-8 1 1a69 69 0 013 7zM1439 346a145 145 0 018 24 192 192 0 00-8-24zM1438 341v1a1 1 0 010-1zM1437 446zM1436 339v-1zM1436 339v-1zM1436 447a12 12 0 001-1l-1 2a5 5 0 010-1zM1436 339v-1l-1-1 1 2z" transform="translate(-41 177)"/><path d="M1436 338v1l-1-1a6 6 0 011 0zM1436 448a10 10 0 001 10c-5-3-3-7-1-10zM1427 492a58 58 0 011 11 101 101 0 00-1-11zM1431 330l-5-5-3-4a83 83 0 018 9zM1427 492c-2-10-6-19-13-23l-12-6h6-7l-2-1a59 59 0 009 0c11 3 17 16 19 30z" transform="translate(-41 177)"/><path d="M1423 321l3 4a116 116 0 00-21-16h1a92 92 0 0117 12zM1420 460a67 67 0 01-12 2 18 18 0 00-2-1 89 89 0 0014-1z" transform="translate(-41 177)"/><path d="M1405 308l-2-1a7 7 0 01-1 0h1a9 9 0 01-1 0 9 9 0 01-3-3 81 81 0 0124 17 92 92 0 00-17-12 43 43 0 00-4-2h1a12 12 0 002 1zM1406 461a18 18 0 012 1 59 59 0 01-9 0l-1-1h8zM1406 309z" transform="translate(-41 177)"/><path d="M1406 309h-1a92 92 0 001 0zM1406 461h-6a24 24 0 016 0zM1405 308a12 12 0 01-2-1zM1404 308l-1-1h-1l2 1z" transform="translate(-41 177)"/><path d="M1403 307l2 2-21-7 16 4 3 1z" transform="translate(-41 177)"/><path d="M1403 307h-1a3 3 0 010-1 9 9 0 001 1zM1408 463h-7 7z" transform="translate(-41 177)"/><path d="M1402 307h1l-3-1h1v1z" transform="translate(-41 177)"/><path d="M1402 306a3 3 0 000 1h-1a63 63 0 00-18-7 49 49 0 0115 4 10 10 0 004 2zM1401 463h1a15 15 0 01-7-1l6 1zM1401 307z" transform="translate(-41 177)"/><path d="M1401 307v-1h-1a75 75 0 00-13-4l-4-1h-1 3a68 68 0 0116 6zM1401 306h-1z" transform="translate(-41 177)"/><path d="M1400 306l-16-4h3l13 4zM1399 304h-1a10 10 0 01-1-12l2-7-2 7c-1 5 0 9 2 12zM1400 461h-2-1 3zM1398 461l1 1h-2l1-1zM1395 460l2 1c-9-1-18-4-25-11a52 52 0 0023 10z" transform="translate(-41 177)"/><path d="M1397 462h-2c-11-2-21-7-28-15h1c8 9 18 13 29 15zM1400 306l-13-4a75 75 0 0113 4zM1387 302h-3l-1-1 4 1zM1385 301h-1 1z" transform="translate(-41 177)"/><path d="M1383 301l1 1-2-1h1z" transform="translate(-41 177)"/><path d="M1343 478z"/><path d="M1384 301zM1384 301zM1384 301zM1384 301a6 6 0 01-1 0h1zM1384 301zM1384 301h-3 3zM1384 301a7 7 0 01-1-1 4 4 0 001 1z" transform="translate(-41 177)"/><path d="M1385 301a5 5 0 01-1 0 2 2 0 00-1-1 5 5 0 002 1zM1383 300zM1383 301h-1 1zM1383 300zM1383 300zM1383 300zM1383 300zM1383 300a3 3 0 01-1-2l1 2zM1383 300zM1383 300a2 2 0 01-1 0 2 2 0 011 0zM1383 300zM1383 300zM1383 300h-1 1z" transform="translate(-41 177)"/><path d="M1383 300a2 2 0 00-1 0 3 3 0 010-1l1 1zM1382 300a2 2 0 001 0 2 2 0 01-1 0zM1382 300a4 4 0 001 1l-2-1h1z" transform="translate(-41 177)"/><path d="M1382 300a2 2 0 001 0h-1zM1382 300v-1a3 3 0 000 1zM1383 301h-2 2z" transform="translate(-41 177)"/><path d="M1382 299v1a4 4 0 01-1-2 4 4 0 001 1zM1382 301h-2 1zM1382 300l-2-1 2 1zM1382 296a13 13 0 000 2 3 3 0 010-2v-11 11zM1382 299a6 6 0 01-1-2 8 8 0 001 2zM1382 301h-1 1zM1382 301h-1 1zM1381 301h1-3zM1382 301h-1zM1384 301h-4 4zM1381 301h-2zM1381 297a9 9 0 000 1 3 3 0 010-2 8 8 0 000 1zM1381 301h-1z" transform="translate(-41 177)"/><path d="M1381 297a8 8 0 010-1 9 9 0 000 1zM1381 301h-3 3zM1380 301h1-2 1z" transform="translate(-41 177)"/><path d="M1381 297a9 9 0 010-1v-1 2zM1381 295zM1381 296z" transform="translate(-41 177)"/><path d="M1380 295l1 1a5 5 0 01-1-1zM1381 301h-1zM1380 295zM1381 295l-1-9 1 9zM1380 301h-2zM1380 301h-1 1zM1380 299a34 34 0 00-6 1h-2a31 31 0 018-1zM1380 300a1 1 0 010 1zM1380 301h-2 1zM1381 300h-3 3zM1380 301h-1l-1-1zM1380 301h-2zM1380 301h-1zM1379 301h-1 1zM1379 301zM1379 301zM1379 301h-1 1zM1379 301l-1-1zM1379 301l-1-1zM1379 301h-1z" transform="translate(-41 177)"/><path d="M1379 301h-1a1 1 0 010-1zM1378 300zM1378 301h-2 2zM1378 300zM1378 301zM1378 301zM1378 301zM1378 301z" transform="translate(-41 177)"/><path d="M1378 300a1 1 0 000 1l-3-1h2zM1378 300h-1 1zM1378 301l-1-1zM1378 300zM1378 300h-3 3z" transform="translate(-41 177)"/><path d="M1378 301a85 85 0 00-1-1zM1378 301h-2l-4-1h2l4 1zM1378 300h-1-2 3zM1377 301h-2 1zM1376 300h-2 2zM1375 300h-1zM1375 300h2-3zM1375 301h-1l-2-1zM1375 300h-1 1zM1374 300h-2 2zM1374 300h0zM1374 300h-1zM1374 300h-3a6 6 0 011 0h2zM1374 300h-1zM1374 300zM1374 300h-1-2 3zM1373 300zM1373 300h-2 2zM1373 300zM1373 300h-2zM1374 301l-2-1zM1370 300h3-3zM1374 300zM1373 300h-3zM1373 300h-3zM1372 300h-1zM1372 300h-1 1zM1372 300zM1372 300zM1372 300z" transform="translate(-41 177)"/><path d="M1372 300a6 6 0 00-1 0h-1 1zM1369 300h1zM1371 300h-2 1zM1371 300h-2 1zM1371 300h-2zM1371 300h-2 2zM1369 300h1l-2 1 1-1zM1370 300h-4 4zM1370 300h-4 4zM1370 300h-1 1zM1369 300h1-1-1 1zM1370 300h-4 4zM1369 300h-3 2zM1367 300h1-2zM1369 300h-2 2zM1369 300h-1 1zM1367 290c2 3 3 6 1 9a3 3 0 01-1 1h-1a14 14 0 00-2 0 6 6 0 004-3c1-2 0-5-1-7zM1368 300h-1 1zM1367 300zM1367 300h-3a14 14 0 002 0h1zM1366 300h0zM1366 300zM1366 300h-3 3zM1366 300h-1 1zM1366 300zM1366 300zM1366 300zM1366 300h-2 1zM1365 300h1-1zM1365 300zM1365 300h-1z" transform="translate(-41 177)"/><path d="M1364 300h1a14 14 0 00-1 0h-2 2zM1364 300h1-3 2zM1364 300zM1364 300h2a22 22 0 00-13 7 36 36 0 0115-6 24 24 0 00-10 6 365 365 0 00-9 9l4-10a18 18 0 0111-6zM1364 300z" transform="translate(-41 177)"/><path d="M1364 300h-1-1a15 15 0 012 0zM1363 300h1-1zM1363 300h-1l-2 1a14 14 0 012-1h1zM1362 301l-5 1a20 20 0 015-1z" transform="translate(-41 177)"/><path d="M1362 300l-3 1a5 5 0 011 0l2-1z" transform="translate(-41 177)"/><path d="M1362 300a14 14 0 00-3 1h-1a8 8 0 014-1zM1354 304c1-2 3-3 5-3a13 13 0 00-5 4v-1zM1354 305l-1 1c0 1 0 0 0 0l1-1zM1349 316a79 79 0 010 1v-1zM1349 316v1l-3 4v-1l3-4zM1352 287a122 122 0 01-4 28 195 195 0 004-28z" transform="translate(-41 177)"/><path d="M1348 315l-2 5v1l2-6zM1346 320v1l-1 1 1-1z" transform="translate(-41 177)"/><path d="M1346 321l-1 1a84 84 0 00-7 13 74 74 0 018-14zM1338 335a48 48 0 00-4 11h-1a45 45 0 015-11zM1336 288c-3 21-11 46-32 55l-1-1c17-15 28-33 33-54zM1325 528l-4-5 4 5zM1320 522l1 1a9 9 0 00-1-1zM1335 447c-21 13-16 37-21 58a13 13 0 000-5c3-21 0-43 21-53z" transform="translate(-41 177)"/><path d="M1314 500a13 13 0 010 5 12 12 0 01-2 5 12 12 0 001-4l1-6zM1306 325c-4 5-10 6-15 9 3-4 11-5 15-9zM1277 621a48 48 0 012 6 10 10 0 01-2-3 89 89 0 000-3zM1277 624a12 12 0 01-1-4l1 4zM1277 621l-1-1zM1276 620zM1276 619v0zM1276 620l-1-2 1 2zM1273 546l2 8c-1-3-3-5-2-8zM1262 332l4 4a23 23 0 01-4-4zM1117 682h-1a1 1 0 011 0zM1112 243c-3 2-7 0-11-1l11 1zM1081 694l1 2c-10 10-25 17-39 23-6 2-17 6-21-3 21-3 42-10 59-22zM1052 309l7 2a23 23 0 01-7-2zM1017 691a13 13 0 010 1v-1zM1016 701a25 25 0 010 6 43 43 0 010-6zM937 234h-2a8 8 0 012 0zM945 237a27 27 0 00-13-2 6 6 0 012-1 32 32 0 0111 3zM917 592a50 50 0 016-8 66 66 0 01-6 8zM856 214a54 54 0 00-2-7 75 75 0 00-2-8l-5-11a84 84 0 015 10 44 44 0 013 8 39 39 0 011 8zM846 639v-1a1 1 0 010 1zM824 94zM824 93v0zM676 228c3-3 7-7 13-8a81 81 0 00-10 6l2-2-4 3-1 1z" transform="translate(-41 177)"/><path d="M681 224l-2 2-2 1 4-3z" transform="translate(-41 177)"/><path d="M679 226a20 20 0 01-4 3l2-2 2-1zM677 227l-2 2 1-1 1-1zM665 807l2 2a5 5 0 01-1-1 13 13 0 00-1-1zM665 805l1 1a5 5 0 00-2-1 6 6 0 011 0zM666 237l-9 11v1l-1 1a83 83 0 0110-13zM656 250v0zM656 250zM656 250a5 5 0 010 1v-1zM656 251zM656 250v1a7 7 0 00-1 1 14 14 0 00-1 2 7 7 0 001-1l1-3zM656 251a5 5 0 010 1v-1z" transform="translate(-41 177)"/><path d="M655 252l1-1v1a5 5 0 01-2 2l1-2z" transform="translate(-41 177)"/><path d="M655 252l1-1-2 1h1z" transform="translate(-41 177)"/><path d="M656 250l-1 2a3 3 0 011-2zM655 252l-1 2a14 14 0 011-2zM655 252z" transform="translate(-41 177)"/><path d="M655 252l-1 1-1 2a2 2 0 00-1 2l1-2a3 3 0 001-1c-2 5-6 9-10 13l11-15z" transform="translate(-41 177)"/><path d="M655 253a49 49 0 00-1 0h1zM654 254zM654 254a3 3 0 01-1 1 2 2 0 001-1z" transform="translate(-41 177)"/><path d="M654 254a2 2 0 01-1 1 6 6 0 001-1zM653 254v1a1 1 0 010-1zM653 255zM653 255zM653 255l-1 2a2 2 0 011-2zM644 267l-2 2c-3 4-8 6-12 10 3-4 9-8 14-12zM638 303c19 28 5 64-10 91l-5 8-2 4 4-7c17-28 30-64 13-96zM628 923c5 3 10 10 7 16a80 80 0 01-5 7 35 35 0 00-9 15c-4 18-7 10-7 12 0 1 0 3-1 2l-3-16c-2-3-7-6-3-8l-7-6c-1-2 0-4 3-6a54 54 0 01-4-6c-9-9-17-18-23-29 13 12 31 13 48 18a13 13 0 014 1zM629 289a73 73 0 019 14 61 61 0 00-12-14c-2-2 1-6 2-8a19 19 0 012-2c-3 3-4 7-1 10z" transform="translate(-41 177)"/><path d="M623 402h1l-1 1v-1zM623 402v1l-1 1-5 8 4-6z" transform="translate(-41 177)"/><path d="M622 404l1-1-12 18-1 2a8 8 0 00-1 0l8-11z" transform="translate(-41 177)"/><path d="M621 406l-4 6-8 12a8 8 0 00-2 2l-8 11-1 2 23-33zM610 803a28 28 0 010 6 61 61 0 000-8 21 21 0 010 2z" transform="translate(-41 177)"/><path d="M610 423v-1l-3 5-7 10 8-12 2-2zM610 803a21 21 0 000-2l-4-8-4-3a130 130 0 00-14-12l6 3c9 4 16 12 16 22z" transform="translate(-41 177)"/><path d="M606 793l4 8a19 19 0 00-5-8l-3-3 4 3zM609 423a8 8 0 011 0l-2 2z" transform="translate(-41 177)"/><path d="M609 424v-1l-1 2-1 1z" transform="translate(-41 177)"/><path d="M609 424l-2 2a8 8 0 012-2zM607 829v1l-1 3 1-4zM599 437h1l-7 9z" transform="translate(-41 177)"/><path d="M598 439l-12 17a124 124 0 0112-17zM588 778a130 130 0 0114 12l-18-14 4 2zM585 458l8-11-8 11zM586 456l-1 2-5 7-14 19c-8 11-16 21-26 29l-3 2c9-7 17-16 24-25l25-34z" transform="translate(-41 177)"/><path d="M585 458l-3 4-2 3 5-7z" transform="translate(-41 177)"/><path d="M585 458l-1 1-2 3zM580 465l2-3a1895 1895 0 00-2 3zM573 900l3 4a41 41 0 01-6-6 29 29 0 013 2zM572 768l12 8-24-16 12 8zM569 887a38 38 0 00-1 7v-11l1 4zM580 205a79 79 0 00-13 12 72 72 0 0113-12zM557 757l3 3-8-6zM567 485a104 104 0 01-12 16 117 117 0 0012-16z" transform="translate(-41 177)"/><path d="M557 757l-5-3a112 112 0 01-8-8l13 11zM553 340c2 7-2 13-7 19 3-6 5-12 4-18l-2-23a211 211 0 005 22zM567 217c-22 26-22 65-19 101-7-36-4-75 19-101zM540 513a100 100 0 0015-12 110 110 0 01-21 17l6-5zM536 698v0zM537 515a75 75 0 01-7 5 102 102 0 01-10 6 58 58 0 01-12 3l-3 1a104 104 0 0032-15z" transform="translate(-41 177)"/><path d="M530 520l4-2a70 70 0 01-11 6 63 63 0 007-4zM536 368a89 89 0 00-9 11l-1 1a72 72 0 0110-12zM527 379l19-20c-7 14-22 29-34 45l9-16 6-9z" transform="translate(-41 177)"/><path d="M521 386a69 69 0 015-6l-5 8-11 18v1c3-8 7-15 11-21zM520 526a43 43 0 00-1 0h1zM520 526h-1a55 55 0 01-10 3l-5 1h1l3-1a58 58 0 0012-3z" transform="translate(-41 177)"/><path d="M521 388l-9 16-2 2 11-18zM509 529a55 55 0 0010-3 96 96 0 01-70 4 112 112 0 0012 1 112 112 0 0043-1l5-1zM510 407l2-3-4 7 1-3 1-1z" transform="translate(-41 177)"/><path d="M510 407l-1 1-1 2-3 5-2 3a99 99 0 017-11zM505 415l3-4c-5 10-10 19-16 24a52 52 0 005-7 153 153 0 008-13z" transform="translate(-41 177)"/><path d="M503 418l2-3a153 153 0 01-8 13l6-10zM505 530h-1c-14 2-29 3-43 1a113 113 0 01-19-4c20 6 41 6 63 3zM502 628z" transform="translate(-41 177)"/><path d="M503 418a142 142 0 01-9 14l9-14zM494 432l-2 3a18 18 0 01-2 1 36 36 0 004-4zM492 435z" transform="translate(-41 177)"/><path d="M492 435l-1 1a23 23 0 01-4 3 8 8 0 01-5 1 15 15 0 008-4 18 18 0 002-1z" transform="translate(-41 177)"/><path d="M491 436a16 16 0 01-4 3 23 23 0 004-3zM474 435c6 4 11 4 16 1a15 15 0 01-8 4 11 11 0 01-5-2l-14-10-3-1 14 8z" transform="translate(-41 177)"/><path d="M482 440a8 8 0 005-1c-5 3-11 3-17-3a105 105 0 00-14-12l7 4a106 106 0 019 8c4 4 7 5 10 4z" transform="translate(-41 177)"/><path d="M460 427l3 1-7-4h-1l5 3z" transform="translate(-41 177)"/><path d="M460 427l-5-3a107 107 0 00-9-6 110 110 0 0114 9z" transform="translate(-41 177)"/><path d="M455 424h1a211 211 0 00-1 0zM461 531a112 112 0 01-12-1l-8-3h1a113 113 0 0019 4z" transform="translate(-41 177)"/><path d="M441 527l8 3c-15-3-29-10-40-21a92 92 0 0032 18zM442 527h-1z" transform="translate(-41 177)"/><path d="M426 518a97 97 0 0015 9 113 113 0 01-32-18 73 73 0 01-6-6l23 15zM418 408a179 179 0 0135 14 168 168 0 00-92-18l11-1a197 197 0 0146 5z" transform="translate(-41 177)"/><path d="M446 418a130 130 0 00-28-10 143 143 0 00-25-5 127 127 0 0153 15zM409 509a94 94 0 01-8-7l2 1a73 73 0 006 6z" transform="translate(-41 177)"/><path d="M401 502a94 94 0 008 7 110 110 0 01-10-8l2 1zM403 503l-2-1-4-5a29 29 0 00-5-5 28 28 0 019 8l2 3zM393 494l6 7c-9-6-19-9-30-8h1c6-3 13-5 19-3a21 21 0 014 4zM393 403a143 143 0 0125 5 197 197 0 00-46-5 135 135 0 0121 0z" transform="translate(-41 177)"/><path d="M392 492a19 19 0 00-3-2c-5-4-11-3-16 0l2-2c4-4 11-1 17 4zM393 403a135 135 0 00-21 0h-7a114 114 0 0128 0z" transform="translate(-41 177)"/><path d="M389 490c-6-2-13 0-19 3l3-3c5-2 11-4 16 0z" transform="translate(-41 177)"/><path d="M373 490l-3 3h-3l6-3zM369 493a44 44 0 01-17 8l12-6 5-2zM364 403h1a96 96 0 00-11 2c-13 2-28 9-39 18 14-12 32-20 49-20zM367 493l-3 2c-6 3-12 6-19 7h-4a11 11 0 002-1c9-5 17-7 24-8z" transform="translate(-41 177)"/><path d="M355 405l6-1a127 127 0 00-19 5 92 92 0 0112-4h1zM364 495l-12 6a36 36 0 01-6 1h-1c7-1 13-4 19-7z" transform="translate(-41 177)"/><path d="M352 501a17 17 0 01-6 1 36 36 0 006-1zM346 502h-1 1zM341 502a32 32 0 004 0 28 28 0 01-8 0 13 13 0 004 0zM354 405a92 92 0 00-12 4l-8 3c-10 4-20 12-28 21a67 67 0 019-10 4 4 0 011 0c10-9 25-16 38-18zM341 502a41 41 0 01-13-4 58 58 0 0013 4z" transform="translate(-41 177)"/><path d="M341 502a13 13 0 01-4 0 36 36 0 01-7-1 47 47 0 01-11-7 66 66 0 009 4 41 41 0 0013 4zM334 412l8-3a94 94 0 00-25 15c-10 8-18 18-20 31a45 45 0 019-22c8-9 18-17 28-21z" transform="translate(-41 177)"/><path d="M330 501a36 36 0 007 1 23 23 0 01-7-1zM328 498a66 66 0 01-9-4 72 72 0 01-13-13c6 8 14 14 22 17z" transform="translate(-41 177)"/><path d="M319 494a47 47 0 0011 7 52 52 0 01-18-12 60 60 0 007 5zM315 423a67 67 0 00-9 10 62 62 0 00-4 6 62 62 0 0113-16zM301 474a52 52 0 005 7l-6-7a37 37 0 01-3-12 33 33 0 004 12z" transform="translate(-41 177)"/><path d="M300 474a51 51 0 0012 15c-7-5-12-11-14-19a25 25 0 002 4z" transform="translate(-41 177)"/><path d="M300 474a25 25 0 01-2-4 27 27 0 01-1-3 37 37 0 01-1-8 29 29 0 001 3 37 37 0 003 12z" transform="translate(-41 177)"/><path d="M297 467a27 27 0 001 3c-5-10-2-21 4-31a44 44 0 00-5 28z" transform="translate(-41 177)"/><path d="M297 455a35 35 0 000 7 29 29 0 01-1-3 35 35 0 011-4z" transform="translate(-41 177)"/><path class="cls-10" d="M824 92v2c0 1 0 0 0 0M824 94v-1M824 94v1M847 188a509 509 0 01-18-47c-2 0-3-6-4-20l-1-26M856 214v0a54 54 0 00-2-7 75 75 0 00-2-8l-5-11" transform="translate(-41 177)"/><path class="cls-10" d="M847 188a84 84 0 015 10 44 44 0 013 8 39 39 0 011 8M847 188" transform="translate(-41 177)"/><path class="cls-10" d="M856 214l-8-5-7-6c-21-12-16-36-16-56 2 16 13 28 22 41M935 234h-1a6 6 0 00-2 1c-3 2-4 6-6 9a69 69 0 00-66-29c4-19 7-38 25-51a69 69 0 019-5c11-7 24-9 37-8h10a129 129 0 0136 10l1 1a142 142 0 00-37-13l-10-1c-16-1-33 1-47 10a62 62 0 00-8 6 67 67 0 00-7 8 72 72 0 00-13 42M935 234h2a8 8 0 00-2 0z" transform="translate(-41 177)"/><path class="cls-10" d="M945 237a32 32 0 00-11-3h1M945 237c13 5 25 19 35 28l-3 6a161 161 0 01-18 30l-6 6c-11 2-21-4-32-2 3-3 8 2 11-3a27 27 0 003-7 125 125 0 003-36l-1-10c0-3 1-8 3-8 13-2 20 11 30 16-7-7-15-16-25-20z" transform="translate(-41 177)"/><path class="cls-10" d="M1059 311c14 2 25-12 33-24 8-15 8-30 5-46a25 25 0 014 1c4 1 8 3 11 1a9 9 0 004-3c-23 6-37-17-51-33a71 71 0 00-40-23c-19-4-33-14-49-21-8-3-22-9-24-1-7 26-9 50-21 73h1a27 27 0 0113 2M1059 311l-7-2a23 23 0 007 2z" transform="translate(-41 177)"/><path class="cls-10" d="M1266 336c-29-22-70 1-95-18-11-9 3-35-3-55-2-9 12-10 20-13 6-2 10 6 16 2-5-3-11-8-13-7-26 10-53 2-79-2l-11-1h-2c5 27-4 52-26 69-5 3-9 2-14 0" transform="translate(-41 177)"/><path class="cls-10" d="M1266 336a23 23 0 01-4-4zM1291 334c-4 2-6 4-8 7l4 3c-6-3-13-5-17-11 0 5 6 5 8 9a39 39 0 01-12-6M1291 334c3-4 11-5 15-9-4 5-10 6-15 9z" transform="translate(-41 177)"/><path class="cls-10" d="M1348 315l-2 6-1 1a119 119 0 01-11 24h-1l-4 7a19 19 0 01-2-7c8-20 18-39 15-61 0 23-8 43-23 62-1 0 4 3 4 6-7-2-13-7-19-10 21-9 29-34 32-55a101 101 0 01-35 56c-2 1 4 3 6 6-7-2-17-4-18-10a6 6 0 012-6M1348 315a195 195 0 004-28 122 122 0 01-4 28z" transform="translate(-41 177)"/><path class="cls-10" d="M1363 300h-1l-3 1c-2 0-4 1-5 3v1l-1 1-4 10v1c-4 11-8 21-15 30a95 95 0 0012-26v-1l2-5M1363 300h1a14 14 0 002 0h1a3 3 0 001-1c2-3 1-6-1-9 1 2 2 5 1 7a6 6 0 01-4 3h-1" transform="translate(-41 177)"/><path class="cls-10" d="M1363 300h-1l-2 1h-2a8 8 0 014-1h1M1365 300h-1M1375 301l-3-1h-7M1377 301h-2M1380 301h-2M1383 301h-3M1381 297a8 8 0 001 2v1a7 7 0 001 0 7 7 0 001 1M1380 286v8a5 5 0 000 1l1 1a9 9 0 000 1" transform="translate(-41 177)"/><path class="cls-10" d="M1385 301a5 5 0 01-1 0 4 4 0 01-1-1 2 2 0 01-1 0 3 3 0 010-1 6 6 0 01-1-2 8 8 0 010-1 5 5 0 01-1 0 6 6 0 010-1M1374 300h4l1 1h5M1372 300h2M1370 300h1M1369 300h1M1369 300h-1 1M1371 300h-2M1372 300" transform="translate(-41 177)"/><path class="cls-10" d="M1379 301l-1-1h-1-5M1384 301h-5M1381 295v2a9 9 0 000 1 4 4 0 001 2 4 4 0 001 1 6 6 0 001 0M1381 295l-1-9 1 9z" transform="translate(-41 177)"/><path class="cls-10" d="M1340 472"/><path class="cls-10" d="M1383 300l-1-1a4 4 0 01-1-1 3 3 0 010-2v-1M1384 301a2 2 0 00-1-1M1380 301h4M1374 300h6M1366 300h8M1364 300h1M1363 300h1M1374 301l-2-1h-8M1377 301h-2M1379 301h-2M1384 301h-5" transform="translate(-41 177)"/><path class="cls-10" d="M1343 478"/><path class="cls-10" d="M1384 301h1M1383 300a5 5 0 002 1M1382 298a3 3 0 001 2M1382 298a3 3 0 010-2v-11 11a13 13 0 000 2z" transform="translate(-41 177)"/><path class="cls-10" d="M1375 301h5l1-1h2l-1-1M1375 301h-1M1364 300h2a43 43 0 014 0h2l2 1M1362 300h2M1362 301l-5 1a20 20 0 015-1zM1362 301" transform="translate(-41 177)"/><path class="cls-10" d="M1365 300a14 14 0 00-1 0h-2M1365 300h1M1368 300h-1-1-2M1371 300h-2-1M1374 300h-1-2M1381 301h-3l-3-1h-1M1387 302l-4-1h-2M1400 306l-13-4M1401 307v-1h-1M1405 308l-2-1h-2" transform="translate(-41 177)"/><path class="cls-10" d="M1398 304a10 10 0 01-1-12l2-7-2 7c-1 5 0 9 2 12a9 9 0 003 2 3 3 0 000 1 7 7 0 001 0 12 12 0 002 1" transform="translate(-41 177)"/><path class="cls-10" d="M1379 301h1a3 3 0 01-1 0h-1a1 1 0 010-1h2a1 1 0 010 1h4v1l16 4h1l1 1h1a9 9 0 01-1-1 10 10 0 01-4-2M1379 301" transform="translate(-41 177)"/><path class="cls-10" d="M1368 300h10v1h1M1371 300h-1M1370 300h-2M1364 300h2M1366 300h1M1367 300h1M1364 300a18 18 0 00-11 6l1-1a13 13 0 015-4 5 5 0 011 0 14 14 0 012-1 15 15 0 012 0 14 14 0 012 0h2M1367 300h-3M1369 300h-2M1374 300h-5M1374 300" transform="translate(-41 177)"/><path class="cls-10" d="M1381 301h2-5l-4-1M1381 301" transform="translate(-41 177)"/><path class="cls-10" d="M1374 300h3l1 1h3M1363 300h11M1364 300h-1M1364 300" transform="translate(-41 177)"/><path class="cls-10" d="M1379 301h3l2 1 21 7h1a43 43 0 00-6-3 75 75 0 00-13-4h-3l-4-1h-4l-4-1h-8M1379 301" transform="translate(-41 177)"/><path class="cls-10" d="M1372 300h6l1 1M1371 300h1M1368 300h3M1367 300h1M1367 300" transform="translate(-41 177)"/><path class="cls-10" d="M1374 300h-4l-2 1a36 36 0 00-15 6 22 22 0 0113-7h1" transform="translate(-41 177)"/><path class="cls-10" d="M1385 301h-2a40 40 0 00-5-1h-5M1401 307a68 68 0 00-16-6M1426 325l5 5a83 83 0 00-8-9 92 92 0 00-17-12 37 37 0 00-4-2" transform="translate(-41 177)"/><path class="cls-10" d="M1402 307h1l2 2a116 116 0 0121 16M1402 307" transform="translate(-41 177)"/><path class="cls-10" d="M1361 484"/><path class="cls-10" d="M1371 300a6 6 0 011 0 31 31 0 018-1l2 1h1a63 63 0 0118 7M1371 300" transform="translate(-41 177)"/><path class="cls-10" d="M1374 300a1 1 0 00-1 0h-1a31 31 0 00-13 7 57 57 0 00-5 4 79 79 0 00-8 9v1a74 74 0 00-8 13 48 48 0 00-4 12c-1 6-1 13 3 19a25 25 0 01-4-19 45 45 0 015-12 84 84 0 017-12l1-1 3-4a168 168 0 019-10 24 24 0 0110-6l1-1h2M1426 325l-3-4a81 81 0 00-24-17h-1a49 49 0 00-15-4 2 2 0 00-1 0h-2a34 34 0 00-6 0M1440 348v-1a69 69 0 00-3-7 63 63 0 00-2-3M1440 348l2 4-2-4zM1440 348" transform="translate(-41 177)"/><path class="cls-10" d="M1436 338a6 6 0 00-1 0l1 1 1 1a29 29 0 013 8" transform="translate(-41 177)"/><path class="cls-10" d="M1438 342v-1a9 9 0 00-2-2v-1M1438 342a1 1 0 011 1l-1-1z" transform="translate(-41 177)"/><path class="cls-10" d="M1442 351l-4-10a1 1 0 000 1M1442 351l1 3a19 19 0 01-1-3zM1436 338v1l4 8a1 1 0 010 1l2 3M1435 337a89 89 0 00-9-12M1435 337l1 1" transform="translate(-41 177)"/><path class="cls-10" d="M1448 370a99 99 0 013 20v3a73 73 0 010 9 71 71 0 010 3c3-23-5-45-15-66v-1" transform="translate(-41 177)"/><path class="cls-10" d="M1447 370a145 145 0 00-8-24 192 192 0 018 24zM1447 370h1M1451 396v-4a107 107 0 00-3-22" transform="translate(-41 177)"/><path class="cls-10" d="M1494 439h-15a30 30 0 01-8-2l-15-7-6-4a45 45 0 01-1-11v-3l1-11 1-5v-3-4 3a133 133 0 01-2 23 75 75 0 002-10 92 92 0 000-9M1494 439a77 77 0 0114 1 49 49 0 00-14-1z" transform="translate(-41 177)"/><path class="cls-10" d="M1437 446c3-6 8-12 10-18 0 2 3 0 3 2a36 36 0 016 3c8 4 15 6 23 6h15M1436 448a5 5 0 010-1 16 16 0 011-1M1436 448c-2 3-4 7 1 10a10 10 0 01-1-10zM1437 446l-1 2" transform="translate(-41 177)"/><path class="cls-10" d="M1435 457c-3-4-1-7 1-10a12 12 0 001-1 3 3 0 000-1" transform="translate(-41 177)"/><path class="cls-10" d="M1427 492c-2-14-8-27-19-30a18 18 0 00-2-1 24 24 0 00-6 0h-2l-1 1h-2a15 15 0 007 1h6a77 77 0 01-13-1c-11-2-21-7-28-15a30 30 0 01-2-3 45 45 0 0034 18 59 59 0 009 0 67 67 0 0012-2 89 89 0 01-14 1h-6a48 48 0 01-28-11 52 52 0 0023 10c15 2 30-1 40-12-2 3-3 6 0 9M1427 492a58 58 0 011 11 101 101 0 00-1-11z" transform="translate(-41 177)"/><path class="cls-10" d="M1312 510a12 12 0 002-5 13 13 0 000-5v-1c-4-28 11-71 38-59l15 7h1l27 13 2 1h1l1 1 2 1h1l12 6c7 4 11 13 13 23M1312 510c-4 7-14 8-22 11 7-3 17-5 22-11z" transform="translate(-41 177)"/><path class="cls-10" d="M1321 523a8 8 0 00-2-1c-4 17-27 30-33 14-4-10 22-12 26-24a56 56 0 002-7c5-21 0-45 21-58-21 10-18 32-21 53l-1 6a12 12 0 01-1 4M1321 523l4 5-4-5z" transform="translate(-41 177)"/><path class="cls-10" d="M1275 554v1c-1-6-4-14 1-20 16 16 39 9 44-13l1 1" transform="translate(-41 177)"/><path class="cls-10" d="M1275 554l-2-8c-1 3 1 5 2 8zM1277 624a10 10 0 002 3 48 48 0 00-2-6l-1-1-1-2 1 2 1 1a6 6 0 002 2l-1-3h2c0-4-3-8-2-12 3-19 0-37-3-54" transform="translate(-41 177)"/><path class="cls-10" d="M1277 624l-1-4v-1 1a12 12 0 001 4M1116 682l-1 1 10 2h-1c18 15 44 2 63-6l-5 4c15-6 13-26 24-32 3-2 9 10 17 9 20-5 31-21 52-26 3-1 3-6 2-10" transform="translate(-41 177)"/><path class="cls-10" d="M1116 682h1a1 1 0 00-1 0zM917 592a77 77 0 00-10 22c22 1 45 18 69 20-11 30 0 87 38 75l2-2a25 25 0 000-6l1-9a27 27 0 012-10l-2 9a13 13 0 010 1 11 11 0 01-1 2l1-2v-1l4-12-5 22a43 43 0 000 6c2-3 0-7 2-10 16-14 47-18 63-3-17 12-38 19-59 22 4 9 15 5 21 3 14-6 29-13 39-23a60 60 0 006-7c-2 9-6 17-13 22 8-4 9-13 16-19l7-2-1 1c3 0 6-3 9-2-1 3-5-1-6 3 1-1 3-2 4-1l1 5 3-7-2 1c3-3 6-7 10-8M917 592a66 66 0 006-8 50 50 0 00-6 8zM846 638c-6-11-20-17-20-31l2-8c0-3 2-4 3-7l6 5c0-2-1-6 1-7l2-1a37 37 0 0012 8c4 2 10-2 13 1 19 15 38 8 52-6M846 638a1 1 0 010 1v-1zM668 806l-2-1h13c13-5 27-3 41-5 3-1 7-1 8-6 2 1 4 3 4 5 6-9 6-21 12-30 2-2 7-2 7-3a33 33 0 013-9c4-7 10-11 17-17 2 3-4 6 0 9 4-5 7-10 8-16v5c9-5 10-16 9-24 0-2-3-4-6-5 6-6 13-1 19-9 4-6 15-1 18-7 8-19 16-38 26-56a1 1 0 001 1M664 805a6 6 0 011 0 17 17 0 003 1M666 806a5 5 0 00-2-1" transform="translate(-41 177)"/><path class="cls-10" d="M569 887a60 60 0 004 13l3 4c6 11 14 20 23 29a54 54 0 004 6c-3 2-4 4-3 6l7 6c-4 2 1 5 3 8 1 11 2 15 3 16s1-1 1-2c0-2 2 6 7-12a35 35 0 019-15 80 80 0 005-7c3-7-2-13-7-16a13 13 0 00-4-1c-17-5-35-6-48-18a41 41 0 01-6-6 29 29 0 013 2 69 69 0 008 5 261 261 0 0167 27c18 9 40 1 54-15 13-16 11-41-2-55-10-12-24-22-29-38-2-5-2-11-5-16a13 13 0 00-1-1l-1-1 1 1 2 2a5 5 0 01-2-2 6 6 0 01-1-3l1 1 1 1 1 1" transform="translate(-41 177)"/><path class="cls-10" d="M607 830a11 11 0 01-3 7c-12 17-31 29-35 50a38 38 0 00-1 7v-11l1 4" transform="translate(-41 177)"/><path class="cls-10" d="M607 830l-1 3 1-4v1z" transform="translate(-41 177)"/><path class="cls-10" d="M602 790l3 3a19 19 0 015 8 21 21 0 010 2c2 8 0 18-3 27" transform="translate(-41 177)"/><path class="cls-10" d="M536 700c2 14-9 25-19 35 2 0 3-4 6-3l29 22 5 3 15 11 12 8 18 14 4 3 4 8a61 61 0 010 8 28 28 0 000-6c0-10-7-18-16-22l-6-3-4-2-24-16-3-3-13-11a112 112 0 008 8l8 6 12 8 16 10a130 130 0 0114 12M536 700v-2 2zM504 629c30 12 54 41 33 71h-1M504 629l-2-1 2 1zM503 552l-2 3 1-1c-1 16 0 33 6 49a78 78 0 004 9c2 6 7 9 12 11-5 1-10-2-15 1l-1 4-4 1" transform="translate(-41 177)"/><path class="cls-10" d="M621 406l2-4h1l5-8c-2 11-10 19-18 27l-1 2-2 2-1 1a8 8 0 012-2v-1a8 8 0 011 0v-1h1l-4 5-7 10h-1l-1 2a124 124 0 00-12 17l-1 2-1 1a44 44 0 00-4 15 37 37 0 003 6c6 9 17 17 29 19-19 14-43 14-64 21l-10 3c-7 2-12 5-18 9a57 57 0 00-15 15l2-2-5 8 1-1" transform="translate(-41 177)"/><path class="cls-10" d="M523 524a63 63 0 007-4 75 75 0 007-5c9-7 17-16 24-25a876 876 0 0037-51l23-33M519 526l4-2M409 509c11 11 25 18 40 21a112 112 0 0012 1c14 2 29 1 43-1l5-1a55 55 0 0010-3M364 495l5-2h1c6-3 13-5 19-3a19 19 0 013 2 28 28 0 019 8l2 3a73 73 0 006 6M337 502a28 28 0 008 0c7-1 13-4 19-7M315 423a67 67 0 00-9 10 45 45 0 00-9 22 35 35 0 000 7 37 37 0 003 12 51 51 0 0012 15 52 52 0 0018 12 36 36 0 007 1M418 408a197 197 0 00-46-5h-8c-17 0-35 8-48 20M527 379l-6 9-11 19-1 1-1 2-3 5a153 153 0 01-8 13l-3 4a36 36 0 01-4 4 15 15 0 01-8 4c-3 1-6 0-10-4a106 106 0 00-9-8l-3-1a110 110 0 00-14-9 130 130 0 00-28-10" transform="translate(-41 177)"/><path class="cls-10" d="M512 404l9-16 5-8a72 72 0 0110-12 89 89 0 00-9 11M492 435l2-3 9-14a85 85 0 009-14M487 439a16 16 0 004-3l1-1M456 424l7 4 14 10a11 11 0 005 2 8 8 0 005-1M418 408a179 179 0 0135 14l3 2M364 495l-12 6a17 17 0 01-6 1h-5a58 58 0 01-13-4 66 66 0 01-9-4 60 60 0 01-7-5c-7-5-12-11-14-19a27 27 0 01-1-3 37 37 0 01-1-8 35 35 0 011-4c2-13 9-23 20-31a94 94 0 0125-15 92 92 0 0112-4 96 96 0 0111-2 114 114 0 0128 0 143 143 0 0125 5M367 493l-3 2M409 509a110 110 0 01-10-8l-6-7a21 21 0 00-4-4c-5-4-11-2-16 0l-6 3M442 527h-1a113 113 0 01-32-18M540 513l-3 2a104 104 0 01-32 15h-1a113 113 0 01-62-3M593 447l-8 11-3 4-15 23a104 104 0 01-12 16 100 100 0 01-15 12M617 412l-8 12-2 2-8 11-6 9M654 254a5 5 0 002-2 5 5 0 000-1 5 5 0 000-1v2c-2 8-12 16-7 25a39 39 0 005 9c3 5 6 10 11 13 10 6 21 12 27 22a68 68 0 00-32-4 99 99 0 00-10 1 4 4 0 01-3 1c4 29-7 58-23 83l-1 1-1 1-5 8" transform="translate(-41 177)"/><path class="cls-10" d="M653 255a3 3 0 001-1l1-2a7 7 0 011-1 3 3 0 011-1l-1 1-1 1a14 14 0 00-1 2M654 254a2 2 0 01-1 1M654 253a7 7 0 010 1" transform="translate(-41 177)"/><path class="cls-10" d="M656 251v-1a3 3 0 00-1 2v1" transform="translate(-41 177)"/><path class="cls-10" d="M654 253h1l1-2" transform="translate(-41 177)"/><path class="cls-10" d="M657 249l-1 1-1 3-2 1a1 1 0 000 1l1-2M666 237a82 82 0 0110-9l1-1 2-1a81 81 0 0110-6c-6 1-10 5-13 8l-1 1a20 20 0 004-3l2-2-4 3-2 2a119 119 0 00-18 19" transform="translate(-41 177)"/><path class="cls-10" d="M655 252l1-2a83 83 0 0110-13M654 254a6 6 0 01-1 1 2 2 0 00-1 2l1-2v-1l1-1 1-1M644 267c4-4 8-8 10-13M630 279c3-4 9-8 14-12M617 412l4-6 4-7c17-28 30-64 13-96a73 73 0 00-9-14c-3-3-2-7 1-10M593 446l7-9 8-12 1-2 8-11M593 446a2 2 0 010 1M534 518a110 110 0 0021-17 117 117 0 0012-16l13-20 5-7 8-11M520 526a102 102 0 0010-6l4-2M367 493h2a55 55 0 0132 9l2 1 23 15a97 97 0 0015 9l8 3c23 7 48 6 70-4h1M492 435a18 18 0 01-2 1c-4 3-10 3-16-1l-14-8-5-3-2-2a168 168 0 00-92-18l-6 1h-1c-13 2-28 9-38 18a4 4 0 00-1 0 62 62 0 00-13 16 37 37 0 00-5 20 29 29 0 000 3 33 33 0 004 12 52 52 0 005 7 72 72 0 0013 13 47 47 0 0011 7 23 23 0 007 1 13 13 0 004 0 11 11 0 002-1c9-5 17-7 24-8M567 217c-23 26-26 65-19 101a211 211 0 005 22c2 7-2 13-7 19l-19 20-1 1a69 69 0 00-5 6c-4 6-8 13-11 21l-1 1-1 3c-5 10-10 19-16 24M567 217a72 72 0 0113-12 79 79 0 00-13 12zM567 217" transform="translate(-41 177)"/><path class="cls-10" d="M409 509a94 94 0 01-8-7l-4-5a29 29 0 00-5-5c-6-5-13-8-17-4l-2 2-3 3h-1a44 44 0 01-17 8 36 36 0 01-6 1h-1a32 32 0 01-4 0 41 41 0 01-13-4c-8-3-16-9-22-17l-6-7a25 25 0 01-2-4c-5-10-2-21 4-31a62 62 0 014-6c8-9 18-17 28-21l8-3a127 127 0 0119-5l11-1a135 135 0 0121 0 127 127 0 0153 15 107 107 0 019 6h1a105 105 0 0114 12c6 6 12 6 17 3a23 23 0 004-3l1-1a52 52 0 005-7l6-10a99 99 0 017-11l2-3c12-16 27-31 34-45 3-6 5-12 4-18l-2-23c-3-36-3-75 19-101M520 526a58 58 0 01-12 3l-3 1c-22 3-43 3-63-3h-1a92 92 0 01-32-18M523 524l-3 2M534 518a70 70 0 01-11 6M630 279a19 19 0 00-2 2c-1 2-4 6-2 8a61 61 0 0112 14c19 28 5 64-10 91l-5 8v1a544 544 0 01-39 56l-2 3-2 3-14 19c-8 11-16 21-26 29l-6 5M644 267l-2 2c-3 4-8 6-12 10M655 252l-11 15M656 251l-1 1" transform="translate(-41 177)"/><path class="cls-10" d="M615 428"/><path class="cls-10" d="M666 237l-9 11v1l-1 1v1" transform="translate(-41 177)"/><path class="cls-10" d="M625 415"/><path class="cls-10" d="M824 95v5c0 10 0 8-2 4s-3-8-6-9c-2 3-4 6-7-3-2 0-5-3-7 5l-2 16c-1 9-1 12-2 7l-2-21c-2-21-3-21-4-6-2 3-3 15-5 9-3-7-5 0-8 2s-6-13-8-7c-3 6-6-4-8 5-3 4-6 1-8 6-3 3-6-1-8-10-3-10-6-6-9-1-2 7-5 2-8 1l5 11c2 3 4 3 5 1 2 13 3 6 4 5 1-5 2-4 2 8 0 2 0 12-1 9 0 2-2 2-4 1-4-10-7-3-9 1l-6 13c-13 20 2 47 0 71-1 4-6 5-9 6 0-7 5-14 2-22 0 16-17 14-28 16a41 41 0 00-9 5c-6 3-12 9-16 14M239 725a140 140 0 0028 138 175 175 0 00247 15c95-85 98-234 3-323-259 169-160 248-123 215a37 37 0 003-52 46 46 0 00-64-3 57 57 0 00-5 80 71 71 0 00101 6 89 89 0 007-126 112 112 0 00-157-9 139 139 0 00-40 59z" transform="translate(-41 177)"/><path class="cls-10" d="M804 724h301v407H804zM804 1063h301M804 927h301M804 859h301"/><path class="cls-10" d="M845 614h213a46 46 0 00-44-31 57 57 0 00-57 57 71 71 0 0072 71 89 89 0 0089-89 112 112 0 00-112-112 140 140 0 00-139 140 175 175 0 00174 174c121 0 218-97 218-218" transform="translate(-41 177)"/><path class="cls-10" d="M1004 724v407M954 724v407M904 724v407M1420 987h1-1zM1420 987h1M1420 987h1M1420 987h1M1420 987h1M1420 987h1M1420 987"/><circle cx="1116.61" cy="637.38" r="152.46" style="mix-blend-mode:screen;opacity:.25;fill:url(#radial-gradient)"/><circle cx="632.67" cy="424.66" r="5.08" style="fill:url(#radial-gradient-2);mix-blend-mode:screen"/><circle cx="574.94" cy="399.28" r="5.08" style="fill:url(#radial-gradient-3);mix-blend-mode:screen"/><circle cx="596.61" cy="408.8" r="38.11" style="opacity:.2;fill:url(#radial-gradient-4);mix-blend-mode:screen"/><path class="cls-1" d="M1049 413l-217-96-27-11c-16-8-26-12 0-1l-88-38-8-4-93-41" transform="translate(-41 177)"/><circle cx="1008.27" cy="589.76" r="101.64" style="opacity:.15;fill:url(#radial-gradient-5);mix-blend-mode:screen"/><circle cx="1008.27" cy="589.76" r="50.82" style="fill:url(#radial-gradient-6);opacity:.5;mix-blend-mode:screen"/><circle cx="1008.27" cy="589.76" r="42.35" style="fill:url(#radial-gradient-7);mix-blend-mode:screen"/><path style="stroke-width:2px;stroke:#fff;opacity:.03;mix-blend-mode:screen;stroke-miterlimit:10;fill:none" d="M1008 590l-47 166 47-166 47-167-47 167-166-47 166 47 167 47-167-47 18 12-18-12-17-12 17 12-12 17 12-17 12-18-12 18-16 120 16-120 17-120-17 120-120-17 120 17 120 16-120-16 36 94-36-94-36-94 36 94-94 36 94-36 94-36-94 36 103 86-103-86-103-87 103 87-86 103 86-103 87-103-87 103 7 20-7-20-6-20 6 20-20 6 20-6 20-7-20 7 96 158-96-158-95-158 95 158-158 95 158-95 158-96-158 96 10 212-10-212-9-212 9 212-212 9 212-9 212-10-212 10 73 68-73-68-73-68 73 68-68 73 68-73 68-73-68 73 24 142-24-142-24-143 24 143-142 24 142-24 143-24-143 24-63 209 63-209 64-209-64 209-209-63 209 63 209 63-209-63 1 125-1-125V465v125H883h125l125-1-125 1 33 141-33-141-32-142 32 142-141 32 141-32 142-33-142 33 36 16-36-16-35-17 35 17-16 35 16-35 17-36-17 36 178 97-178-97-178-98 178 98-97 178 97-178 98-178"/><circle cx="574.94" cy="399.28" r="76.23" style="fill:url(#radial-gradient-8);opacity:.5;mix-blend-mode:screen"/><circle cx="613.51" cy="416.23" r="21.11" style="fill:url(#radial-gradient-9);mix-blend-mode:screen"/><circle cx="917.44" cy="549.83" r="16.41" style="fill:url(#radial-gradient-10);mix-blend-mode:screen"/><path d="M713 286c23 5 25 9 7 24 22-8 25-5 17 17 15-18 19-16 24 7 5-23 9-25 24-7-8-22-5-25 17-17-18-15-16-19 7-24-23-4-25-9-7-24-22 8-25 5-17-17-15 18-19 16-24-7-5 23-9 25-24 7 8 22 5 25-17 17 18 15 16 20-7 24z" transform="translate(-41 177)" style="fill:url(#radial-gradient-11);mix-blend-mode:screen"/><circle cx="597.64" cy="409.26" r="9.87" style="fill:url(#radial-gradient-12);mix-blend-mode:screen"/><circle cx="1088.14" cy="624.86" r="0.74" style="fill:url(#radial-gradient-13);mix-blend-mode:screen"/><path style="stroke-linecap:round;stroke:#1d1d1b;stroke-miterlimit:10" d="M1226 790l14-37"/><path class="cls-26" d="M1406 317c0-117 170-212 381-212M1787 105c0 67-85 122-190 122 0 424-229 762-502 723V818H895V547" transform="translate(-41 177)"/><circle class="cls-10" cx="170.21" cy="427.74" r="130.12"/><path class="cls-10" d="M170 298v6M170 558v-7"/><text class="cls-27" transform="translate(179 404)">1</text><text class="cls-27" transform="translate(179 378)">2</text><text class="cls-27" transform="translate(179 352)">3</text><text class="cls-27" transform="translate(179 326)">4</text><text class="cls-27" transform="translate(179 300)">5</text><path class="cls-10" d="M170 428V298M167 402h6M167 376h6M167 350h6M167 324h6M170 428v130M173 454h-6M173 480h-6M173 506h-6M173 532h-6"/><path class="cls-28" d="M170 558V376M170 376v182"/><path class="cls-29" d="M170 454v-26M170 428v26"/><path class="cls-30" d="M170 428"/><path class="cls-31" d="M170 428v-26M170 402v26"/><path class="cls-32" d="M167 373h6v6h-6zM167 555h6v6h-6z"/><path class="cls-33" d="M167 425h6v6h-6zM167 451h6v6h-6z"/><path class="cls-34" d="M167 425h6v6h-6z"/><path class="cls-34" d="M167 425h6v6h-6z"/><path class="cls-35" d="M167 399h6v6h-6zM167 425h6v6h-6z"/><path d="M1288 93a102 102 0 01-14 30 100 100 0 01-10 13c-4 4-8 8-13 10a10 10 0 01-8 0l-6-6a2 2 0 00-2 0l-24 18a118 118 0 01-28 14 71 71 0 01-30 4c-3 0-9-1-9-6l2-7 3-8 15-35c1-2-2-3-3-1l-14 33-3 8c-1 3-3 5-3 8-1 5 2 8 7 10l14 1a75 75 0 0016-2 107 107 0 0029-13l30-22h-2c3 5 7 9 13 8s11-5 15-9a104 104 0 0028-47 2 2 0 00-3-1zM1301 94c-3 8 2 17 9 21 9 6 20 4 29 0 18-7 33-20 43-36a67 67 0 0010-28c0-2-3-2-3 0-1 17-11 32-23 44a98 98 0 01-22 14c-8 5-19 9-28 6-8-3-15-12-12-20 1-2-2-3-3-1zM1335 47c-3 2-2 6 0 8 3 2 7 1 9-2a21 21 0 003-5 30 30 0 003-7c0-3 0-7-4-9-3-2-7-2-9 1a2 2 0 001 2 2 2 0 002 0c1-2 3-2 4-1 3 1 3 3 3 6s-2 6-3 8-3 5-6 5a3 3 0 01-2-2l1-2a2 2 0 00-2-2zM1246 55c-1 5 4 9 8 9a8 8 0 006-2 11 11 0 003-7 16 16 0 00-1-8 2 2 0 00-2-1 2 2 0 00-1 2c2 3 2 8 0 11a6 6 0 01-2 2 5 5 0 01-2 0 6 6 0 01-2 0 4 4 0 01-1-1h-1a6 6 0 01-1-1l-1-1a2 2 0 010-1 5 5 0 010-1c0 1 0 1 0 0a2 2 0 00-3-1zM1176 66c-1 6-1 12 4 16a10 10 0 006 3 9 9 0 007-3 32 32 0 005-6 82 82 0 008-16 42 42 0 003-8c0-3 0-7-2-9a7 7 0 00-7-3c-2 1-2 3 0 3l5 2 1 7a60 60 0 01-6 14 73 73 0 01-7 12l-5 4a6 6 0 01-5-1c-5-3-5-9-4-14 1-2-2-3-3-1z" transform="translate(-41 177)"/><use width="94.54" height="111.37" transform="translate(371 305)" xlink:href="#circle"/><path class="cls-8" d="M525 141v-1l-1 1zM525 140a1 1 0 00-1 0h1zM511 139zM506 147zM505 149v-1 1zM511 139zM523 139zM515 136zM518 136zM523 137zM512 137zM509 224zM507 227zM505 151zM503 178h0zM523 139zM504 178zM504 158zM505 153zM504 161zM504 163zM509 215a1 1 0 01-1 0h1zM523 139zM506 161zM506 196zM506 163z" transform="translate(-41 177)"/><path class="cls-8" d="M509 218v-1l-1-2v-1s0 1 0 0v1h1v-1h-1v-2-1-2a6 6 0 010-3h-1 0l1-1a3 3 0 01-1-2v-3l-1-1 1-1-1-1h1-1l1-1h-1a1 1 0 011-1h-1 1v-1h-1a2 2 0 000-1v-2-1-2a6 6 0 000-2h-1 1a7 7 0 00-1-2l1-3-1-1h1l-1-2 1-2v-1s0 1 0 0v-4-1-4-1-1-1-1-1-1-1a17 17 0 010-3l1 1-1-2h1v-2h-1l1-1v-1-2h1v-1h-1l1-1-1 1v-1a1 1 0 010-1h1v-1c1 0 0 0 0 0l1-2v1a6 6 0 011-2v-1a7 7 0 001-1l1-1 1-1a3 3 0 011 0h1a1 1 0 010-1v0h3-1 2c-1 0 0 0 0 0v0l1 1v-1l1 1h1a1 1 0 001 0v1s0-1 0 0h1l-1-1a2 2 0 00-1 0l1-1h-3l-1-1v1c0-1 0 0 0 0v-1h-1l-1 1-2-1v1h-1-1v1a1 1 0 01-1 0h-1v1l-1 1a3 3 0 00-1 1c0 1 0 1 0 0l-1 1v1c0-1 0 0 0 0h-1l-1 2h1l-1 1v1h1-1s0 1 0 0c0 1 0 1 0 0l-1 2h1c-1 0 0 0 0 0l-1 1v1-1a1 1 0 010 1v0a1 1 0 010 1v0h-1l1 1v1l-1 1 1 1-1-1h1v1h-1v2-1l1 1h-1v1l1 1h-1v1h1l-1 2v2 1 1a3 3 0 010 2v1 0h-1l1 1v1a7 7 0 010 1 4 4 0 010-1v1a1 1 0 010 1l-1 1v3h1l-1 1v1-1 6l1 2-1 1a9 9 0 001 2v8a6 6 0 000 2v-1l1 1v4l1 1h-1l1 1h-1 1a1 1 0 010 1v2a5 5 0 010-1h-1l1 1a1 1 0 000 1h1l-1 1 1 2h-1l1 1v12h-1v1h2v-1-1-1h1a1 1 0 01-1-1l1-1v-1-1h-1 1v-1-1zm-2-9zm0-1zm-1 2zM506 210zM511 139z" transform="translate(-41 177)"/><path class="cls-8" d="M466 374z"/><path class="cls-8" d="M515 138zM517 137zM519 137zM507 153zM507 147a1 1 0 011 0h-1z" transform="translate(-41 177)"/><path class="cls-8" d="M466 338z"/><path class="cls-8" d="M507 147h0zM524 140zM524 140zM524 140zM522 138zM522 138zM520 136h1-1zM518 136c1 0 0 0 0 0zM509 141h-1 1zM509 144z" transform="translate(-41 177)"/><path class="cls-8" d="M466 321v1-1z"/><path class="cls-8" d="M504 163zM504 171s-1 0 0 0z" transform="translate(-41 177)"/><path class="cls-8" d="M463 372z"/><path class="cls-8" d="M540 176zM539 176h0zM531 176zM525 176zM524 176zM531 176h-1 1zM538 177zM533 176v-1zM535 175v1a1 1 0 000-1zM538 176v-1zM532 176zM480 178z" transform="translate(-41 177)"/><path class="cls-8" d="M438 353z"/><path class="cls-8" d="M523 176zM507 177zM538 177zM507 177zM519 176zM522 177zM517 177z" transform="translate(-41 177)"/><path class="cls-8" d="M475 354z"/><path class="cls-8" d="M485 178zM538 176v0zM517 179zM496 179zM516 179zM483 178h2a2 2 0 010-1v1-1 1h1s-1 0 0 0h-1c1 0 0 0 0 0h3s-1 0 0 0c0 1 0 0 0 0h1a2 2 0 012 1v-1 1l1-1v1l1-1 1 1 1-1 1 1v-1 1-1 1h3v-1 1h2a2 2 0 001 0h1a3 3 0 001 0l-1-1 1 1h5a8 8 0 012 0h5v-1h1v1l1-1v1a7 7 0 012-1l-1 1 2-1h-1 2v-1 1c1 0 1 0 0 0h3s0-1 0 0v-1h1v1l1-1h1v1l1-1h4v-1 1l1-1v1h1v-1 1h1l1-1h1c0-1 0 0 0 0v-1h-1v1l-1-1v1h-1s0-1 0 0h-1-2v0a1 1 0 01-1 0s-1 0 0 0h-3-1 1a1 1 0 01-1 0h-2v0h-1v1l-1-1h-1c1 0 0 0 0 0h-1v0h-1v1s0-1 0 0v-1h-1v1a1 1 0 000-1l-1 1v-1l-1 1v-1 1c0-1 0 0 0 0h-3c0-1 0 0 0 0h-1a1 1 0 01-1 0h-1c0 1 0 0 0 0a3 3 0 01-1 0 1 1 0 01-1 0h-3 1l-1-1s0 1 0 0v1h-1l1-1-1 1h-3a1 1 0 00-1-1l-1 1-2-1v1l-1-1v1l-1-1-1 1v-1a2 2 0 00-1 0v1-1h-1l-1 1h-1v-1 1h-2v-1a2 2 0 010 1v-1h-1v0l-1 1-1-1h1l-1 1v-1h-6-1v-1l-1 1v2-1 1h1v-1 0s0 1 0 0v1l1-1v1h2v-1 1a1 1 0 011 0c1 0 0 0 0 0zm6 0zm1 0a1 1 0 00-1 0h1zm-1-2zM489 176zM531 176z" transform="translate(-41 177)"/><path class="cls-8" d="M455 356z"/><path class="cls-8" d="M533 177zM534 177h0zM535 177zM522 178zM526 177a1 1 0 010 1v-1z" transform="translate(-41 177)"/><path class="cls-8" d="M476 356z"/><path class="cls-8" d="M525 178h0zM539 177zM539 177zM539 176zM538 177zM538 177s0-1 0 0zM536 176v-1 1zM535 175zM529 176z" transform="translate(-41 177)"/><path class="cls-8" d="M487 355zM486 353z"/><path class="cls-8" d="M516 177s0-1 0 0zM511 177z" transform="translate(-41 177)"/><path class="cls-8" d="M456 354l1-1-1 1z"/><path class="cls-8" d="M518 215zM519 215a4 4 0 00-1 0h0zM519 213zM519 211zM520 211zM519 213zM518 214zM519 213h1zM520 214a3 3 0 00-1 0zM519 214zM520 213zM517 201zM519 201zM520 211zM520 207h-1a2 2 0 001 0zM518 214zM520 210zM520 211zM520 210zM520 209zM518 202zM518 214zM517 210zM518 205zM517 209h1-1z" transform="translate(-41 177)"/><path class="cls-8" d="M517 202h1-1s1 0 0 0h1v1c-1 0 0 0 0 0h-1 1a1 1 0 01-1 0h1v1s-1 0 0 0a2 2 0 00-1 1h1a1 1 0 01-1 0c1 0 0 0 0 0a2 2 0 011 0h-1a1 1 0 011 0h-1v1a2 2 0 011 0v1s-1 0 0 0h-1 0a1 1 0 011 0l-1 1h1-1l1 1c-1 0 0 0 0 0h-1c-1 0 1 0 0 0h1s-1 0 0 0c-1 0 0 0 0 0h-1 1v1a5 5 0 011 1h-1s1 0 0 0h0l1 1h-1 1-1s1 0 0 0c1 0 0 0 0 0v1s1 0 0 0a1 1 0 001 0 2 2 0 00-1 0h1-1l1 1-1-1v1h1a2 2 0 00-1 0h1a1 1 0 01-1 0v1h1-1v-1h1v-1a2 2 0 011 0h-1 0a1 1 0 011 0 1 1 0 01-1 0h1-1 1-1v-1s1 0 0 0h1-1 1s-1 0 0 0h-1a5 5 0 011 0s-1 0 0 0a1 1 0 01-1 0 1 1 0 011 0v-1h-1 1s-1 0 0 0h-1 1c-1 0 0 0 0 0h-1 1a1 1 0 00-1 0v-1h1-1a2 2 0 001 0h-1 0a4 4 0 011 0s-1 0 0 0h-1 1l-1-1c1 0 0 0 0 0h1a1 1 0 01-1 0h0v-1a6 6 0 011 0h-1s1 0 0 0h1-1 1v-1c-1 0 0 0 0 0s-1 0 0 0l-1-1a1 1 0 001 0v-1s-1 0 0 0c0 0-1 0 0 0h-1 1v-1h-1s1 0 0 0c1 0 0 0 0 0h1-1v-1h1s-1 0 0 0h-1 1a1 1 0 00-1 0h1c1 0 0 0 0 0h-1 1l-1-1h1-1v-1h1a2 2 0 00-1 0 6 6 0 00-1 0c-1 0 0 0 0 0h-1l1 1h-1a4 4 0 011 0h-1 1a3 3 0 01-1 0h1s-1 0 0 0a1 1 0 01-1 0zm1 1zm0 0zm2 0zM520 203zM519 213z" transform="translate(-41 177)"/><path class="cls-8" d="M477 382z"/><path class="cls-8" d="M518 213zM518 214zM518 214zM518 211zM518 212z" transform="translate(-41 177)"/><path class="cls-8" d="M477 387z"/><path class="cls-8" d="M518 211s0 1 0 0zM518 215zM518 215zM518 215zM518 214zM518 214zM519 214c1 0 0 0 0 0zM519 214h0zM519 212h0z" transform="translate(-41 177)"/><path class="cls-8" d="M477 389zM479 389z"/><path class="cls-8" d="M520 209h-1 1zM519 208h0z" transform="translate(-41 177)"/><path class="cls-8" d="M479 382z"/><path class="cls-8" d="M512 189zM513 189h-1c1 0 1 0 0 0zM513 188zM513 188zM514 188zM513 188zM512 189zM513 188zM513 189zM513 188zM511 187zM513 187zM514 188h-1 1zM512 189zM514 188zM514 188zM514 188zM514 188zM512 187zM512 189zM511 188zM512 187zM511 188zM511 187h1-1 1s1 0 0 0h-1 1c-1 0 0 0 0 0h-1 1a2 2 0 01-1 0h1c-1 0 0 0 0 0s-1 0 0 0h-1 0c1 0 0 0 0 0h1c-1 0-1 0 0 0h-1 1-1c1 0 0 0 0 0h1s-1 0 0 0h-1 1-1c1 0 0 0 0 0h1-1 1-1 1-1s1 0 0 0a2 2 0 001 0c-1 0 0 0 0 0s-1 0 0 0c-1 0-1 0 0 0h-1 0a4 4 0 011 0h1-1a3 3 0 011 0h-1c1 0 0 0 0 0s1 0 0 0h1-1 1-1 1-1 1-1c1 0 0 0 0 0h1s-1 0 0 0c0 0 1 0 0 0h1s-1 0 0 0h-1 1-1c1 0 0 0 0 0h1-1 1c-1 0 0 0 0 0h-1c1 0 0 0 0 0s1 0 0 0h1-1 1-1 1-1 0c1 0 0 0 0 0 1 0 0 0 0 0 1 0 0 0 0 0h1a4 4 0 01-1 0c1 0 0 0 0 0h1-1 1c-1 0 0 0 0 0h-1 1c-1 0 0 0 0 0s-1 0 0 0h-1a6 6 0 001 0s-1 0 0 0c0 0-1 0 0 0h-1 1-1c1 0 0 0 0 0h1-1c1 0 0 0 0 0h1-1 1a4 4 0 00-1 0h1a2 2 0 00-1 0h0c1 0 0 0 0 0 1 0 0 0 0 0s1 0 0 0h1-2c-1 0 0 0 0 0h-1 1-1 1-1 1-1zm1 0zm0 0zm2 0zM514 187zM513 188z" transform="translate(-41 177)"/><path class="cls-8" d="M471 364z"/><path class="cls-8" d="M512 188zM512 188zM512 188zM512 188zM512 188z" transform="translate(-41 177)"/><path class="cls-8" d="M470 365z"/><path class="cls-8" d="M512 188zM512 189zM512 189zM512 189zM512 189zM512 189zM513 188c1 0 0 0 0 0zM513 188zM513 188z" transform="translate(-41 177)"/><path class="cls-8" d="M471 365zM473 365z"/><path class="cls-8" d="M514 188zM513 188h1z" transform="translate(-41 177)"/><path class="cls-8" d="M473 364z"/><path class="cls-8" d="M424 146h1l-1-1zM426 143l-1-1 1 1-1 1v1a4 4 0 001-2zM439 98zM462 85zM467 85zM439 98v-1 1zM427 137zM436 110v1zM433 120v-1a1 1 0 010 1zM428 135zM438 104zM537 217zM535 206a1 1 0 000 1zM476 85zM549 103h0zM427 136zM550 103zM497 84a1 1 0 00-1 0h1zM481 84h1a3 3 0 00-1 0zM505 84zM513 84zM552 217s-1 1 0 0zM427 137v-1 1zM505 81h0zM562 157v1a1 1 0 000-1zM510 81a3 3 0 001 1zM552 217z" transform="translate(-41 177)"/><path class="cls-8" d="M543 213l1 1 1 1a15 15 0 002 1v1a10 10 0 002 0 4 4 0 003 0h-1a2 2 0 001-1h1a2 2 0 00-1 0 3 3 0 001 0l-1 1a9 9 0 003-3l-1 1c-1 1 0 0 0 0a7 7 0 01-1 1h1a5 5 0 001-2l1-2a5 5 0 010-2 2 2 0 001-2 2 2 0 010-2v-2-1h1v-6h1a65 65 0 011-8v-1s0-1 0 0v-1c0-1 0-1 0 0a29 29 0 011-7v-3 1l1-9v-3a23 23 0 000-4v-2-1l1-1h-1a6 6 0 011-3l-1-3 1 1v-2h-1a14 14 0 000-3h1l-1-7c0 1 0 1 0 0 0 0 0 1 0 0s0-1 0 0v-1a3 3 0 010-1 2 2 0 000-2l-1-5v-1l-1-5-1-1c1 0 0-2 1-1l-2-5v0a24 24 0 01-1-5l-1-2a8 8 0 00-1-2l-1-2c0-1 0 1 0 0l-3-6a10 10 0 00-1-4 35 35 0 01-2-3l-1-1s0 1 0 0a56 56 0 00-5-6 22 22 0 00-6-4 2 2 0 00-2 0 3 3 0 01-2-1h1a51 51 0 00-12-1h1a5 5 0 00-3 0h-3l1-1c-1 1-3 0-2 1h-6-4v-1l-2 1-4-1-9 1h3a49 49 0 01-6 0c-1 0 0 0 0 0h-7a1 1 0 011 0h-1c1 1-2 1-2 1 1 0-2 0-1-1v1-1l-3 1h1a7 7 0 01-3 0l-5 1-1-1h-2l1 1a28 28 0 01-3 0h1-2 1-1a12 12 0 01-2 0 5 5 0 01-2 1v-1l-3 1c1 0 1 0 0 0h-2 1a25 25 0 00-5 2v-1a18 18 0 00-6 4h1l-1 1a4 4 0 00-1 1 16 16 0 00-2 5 25 25 0 00-2 3s0 1 0 0l-2 9v-1l-1 2h1a4 4 0 010 1h-1s0 1 0 0v2a11 11 0 010 2l-1-1v2a4 4 0 00-1 1v2-1 4c0-2-1 0-1 0l-1 3c0 1 0 0 0 0l-1 5-1 4c0 1 0 0 0 0a8 8 0 00-1 2v2a3 3 0 010-1l-1 2c0 1 0 0 0 0a9 9 0 000 2v-1l1-3h1v-1-1l1-1v-3-1l1-1v-1c0-1 0 0 0 0l1-3v-1l1-2v1l1-3v-3l2-4v-2a3 3 0 011-1 25 25 0 011-4c-1 0-1 1-1-1v1a2 2 0 010-1v1l1-1v-1 1a5 5 0 010-1v-1l1-1v-1l1-3v1-1l2-5a34 34 0 012-3h1a5 5 0 012-1h-1a12 12 0 003-1l1-1-1 1a8 8 0 012-1l5-1c1 0-1 0 0 0a16 16 0 012 0l3-1h1v1-1l2 1v-1h7c1 0 0 0 0 0a11 11 0 013 0h-1a8 8 0 011 0h1v-1l2 1h-1a5 5 0 011 0h3v-1a7 7 0 002 0h-1a4 4 0 012 0h-1 8-3 2-2 10c-1 0 0 0 0 0h3l4-1-1 1h3a2 2 0 011-1v0l7 1h4-1l3-1v1h6a14 14 0 015 0h-1 1l2 1h-2 2l4 1 2 1v1a15 15 0 013 1l-3-1a17 17 0 002 1 7 7 0 012 2l1 2a6 6 0 012 2l4 7c0-2 0 0 1 0a3 3 0 010 1l1 2-1-1v2l1 1a9 9 0 000-1l1 3a28 28 0 002 4s0 1 0 0a38 38 0 001 4l1 2a8 8 0 010 2v-1l1 2h-1a7 7 0 011 2v-1a16 16 0 001 3 24 24 0 010 3v3l2 7a17 17 0 000 4 33 33 0 010 4v3-1 3h1l-1 8v7h-1l1 3-1 6v3 4h-1a6 6 0 011 2h-1v2-1a3 3 0 000 2 4 4 0 010 2 2 2 0 010 2v-1l-1 4v-2s0 1 0 0a13 13 0 01-1 4 3 3 0 000 1 8 8 0 000 1v0a3 3 0 010 1 7 7 0 010 1l-1 2v7a4 4 0 000-1l-1 3v1l-3 3a3 3 0 01-2 0 3 3 0 01-2-1 49 49 0 01-4-5 11 11 0 00-2-2 4 4 0 00-2-1 4 4 0 00-1 0h-1v2a3 3 0 000 1v2a3 3 0 010 2l-1 1v-1a2 2 0 00-1 0 3 3 0 000 1v-2a1 1 0 010-1 7 7 0 01-1-2h1v-3c1 0 1 0 0 0v-1l-2 1a9 9 0 000 2 9 9 0 010-1 2 2 0 000 1 1 1 0 000 1 9 9 0 000 2s0-1 0 0 0-1 0 0v1l1 1-1-1 1 1a7 7 0 000 1 2 2 0 001 1 4 4 0 001 1v1l1-1 1-3 1-1v-1a7 7 0 010-2v-1h1a6 6 0 011 0v1h-1 2v1l1 1 1 1h-1zm15-16zm1-3l-1 1c0 1 0 0 0 0l1-1zm-3 5zM556 200zM439 98v1z" transform="translate(-41 177)"/><path class="cls-8" d="M522 337z"/><path class="cls-8" d="M434 111v1a1 1 0 000-1zM432 117v0zM431 121v1zM481 82zM459 84h1-1zM505 81zM461 84a3 3 0 00-1 0 6 6 0 001 0zM426 140v1zM426 141zM426 141zM427 135zM428 133a10 10 0 00-1 1v1l1-2zM431 126v0zM433 121c-1 1 0 0 0 0zM445 90zM450 86h-1 1z" transform="translate(-41 177)"/><path class="cls-8" d="M413 264h1-1z"/><path class="cls-8" d="M512 84h-1 1zM536 86a2 2 0 001 1 7 7 0 00-1-1z" transform="translate(-41 177)"/><path class="cls-8" d="M519 330v1-1z"/><path d="M208 179c-10-27-37-31-34-41 3-16 68-31 110-2l6 5c18 14 32 34 41 55 4 12 11 39-10 36-17-3-28-19-45-23a40 40 0 00-11-1c-33 1-53 41-61 36s14-35 4-65z" transform="translate(-41 177)" style="fill:url(#Алиса);stroke-miterlimit:10;stroke:#000"/><path class="cls-10" d="M204 244a44 44 0 01-61-11 35 35 0 018-49 28 28 0 0139 7 22 22 0 01-5 31 18 18 0 01-25-4 14 14 0 013-20 11 11 0 0116 2 9 9 0 01-2 13 7 7 0 01-10-2 6 6 0 011-8M167 212c0-68 124-122 278-122" transform="translate(-41 177)"/><path d="M731-53a24 24 0 012-9 33 33 0 014-8 51 51 0 016-7 72 72 0 017-5c10-7 21-13 32-17a322 322 0 0134-12l34-9 36-7 8-1a55 55 0 009-2l9-3 9-4a14 14 0 014-1l5 1a9 9 0 004-1 13 13 0 004-4 12 12 0 002-3l1-2v-1l1-1v-2l2-9 2-8 1-2v-2l1-1v-2l2-2a2 2 0 012 0h1l2 1c6 3 13 7 19 14l5 6 2 4 1 2 1 2 2 2 1 2 1 2 1 2 5 11v1a144 144 0 01-9 20 108 108 0 01-9 13 63 63 0 01-8 9 38 38 0 01-8 6l-2 1-1 1a2 2 0 01-1 0l-2-2-1-2-1-1v-2l-1-1-2-9c0-3-2-5-3-8l-1-2v-1l-1-2-1-1a12 12 0 00-2-3 13 13 0 00-4-3 8 8 0 00-5 0h-4a13 13 0 01-5 0l-9-2a75 75 0 00-9-1 47 47 0 00-9 0l-8 1a618 618 0 00-70 10 303 303 0 00-34 10c-11 4-22 9-32 16a57 57 0 00-13 12c-3 4-6 10-6 16z" transform="translate(-41 177)"/><path class="cls-37" d="M55 677l42-73 43 73H55z"/><path class="cls-38" d="M198 609l5 78"/><path class="cls-37" d="M158 708h53v53h-53z"/><circle class="cls-37" cx="77.21" cy="769.94" r="43.5"/><path class="cls-38" d="M144 557l26 59M1 584l140-20M114 600l40-105M205 601l6-85M242 585l-71-84M299 557l-96-115M240 564l46-131"/></g></g></svg>