<svg xmlns="http://www.w3.org/2000/svg" viewBox="0 0 900 900"><style>.B{fill:#9d3300}.C{fill:#696969}.D{fill:#f0b402}.E{fill:#373737}.F{fill:#fff}.G{fill:#f6223c}.H{fill:#8b0f1b}.I{opacity:.6}.J{fill:#725500}.K{opacity:.5}.L{fill:#a0685f}.M{fill:#ca000a}.N{fill:#f3237e}.O{fill:#eb610a}.P{fill:#1155db}</style><g class="E"><path d="M562 29l5 8c6 10 8 22 14 32 6 11 13 22 21 31 8 5 14 12 20 19l15 16c1-1 2-1 1-3l-3-7-4-2-4-11h16l-2 2h-9l1 8 8-1 1-7 2-3c0 5 0 9-3 13l3 6c3-1 6-1 8 2l10-9-3-4 3-1c-3-5-8-7-11-12 1-3 1-8 4-9 4-1 8 0 11 2l-1 15 5-3 3 1 5-5-2-5 5 4v-7l-4-5 2 8h-2c-2-5-5-8-8-11-5-4-9-10-15-13s-10-8-15-12l-13-13 7 4 13 13 6 4 11 9c5 2 8 7 11 10l-3-14c-4-12-2-28 8-38l-3 6c-3 6-4 12-5 18l1 8 4 16v-4l4-1c4 2 8 6 5 11l1 3c-3-2-1-6-2-9l-6-2c-1 4 3 8 5 12h6l5-2-16 15c-5 6-12 10-18 15l-15 14-11 13c-3 5-5 10-4 16l15-15c-2 0-5 2-6 0-2-4 1-7 4-8l-3 7c3 1 5-2 8-3 2-2 2-5 3-8l-7 3c1-3 4-4 8-5v7l12-11c-2-5 0-13 6-14 2-1 4 1 6 3l7-8c0-3 0-6 2-7 3-3 6-3 9-3l8-9-9-4v-2c7-1 11 4 17 6 18-13 38-24 58-33 10-6 21-11 32-15 8-4 16-10 26-9v2l-10 2-19 8-22 10-6 5-18 7-28 17-12 7 20 17 9 12c2 5 4 10 4 15l3-1c-1 4-4 8-7 11l-10 7-1 1c-6 7-12 14-19 19l6 6 6-3 2 8c0 4-3 7-7 8l-7-4-5-11c-4 5-9 8-14 12 2 1 4 5 7 5 12 2 24 7 35 12 5 3 11 4 16 8 4 3 9 5 13 9 5 3 10 7 13 12-7-2-10-10-17-12-6-3-11-9-18-11-10-4-19-10-30-13l-13-2-9-2 2 4h5l-5 3 4 6 3-10 2 2-3 9-2 1v3l-5-7c-1-2-1-5-3-6l-3-6h8l-3-2c-2-1-4 0-6 2l-12 5c-5 3-11 5-17 5l-8 9-15 16c-10 10-22 18-31 29l-20 18-22 19-30 32c-11 10-20 21-32 31 7 12 12 26 16 39 3 7 6 14 7 21 2 8 5 16 5 25-1 6 3 11 4 17l1 14v7c-2 6-3 12-6 17l-5 10c3 12 8 24 13 37 3 9 6 19 11 29l8 23 9 5 1-2c3 4 6 9 6 14-3-6-10-10-15-14-2 2-4 3-5 6-2 7-4 14-3 21 3-4 3-10 6-15 1-1 3-1 2 1l-4 18c4-4 4-9 6-14l3-3c2 7-3 13-3 19 4-5 5-11 9-16 1 8-1 15-3 21l-2 1v-3l-4 1-3-3-4 1-2-6-3 1c-1-4-2-8-1-12l2-9c0-4 3-6 5-9l-2-6a2006 2006 0 01-14-40c-5-15-12-30-16-46 0-3-3-4-4-7l-5-11-13-1-11-4c-4 6-10 11-12 18-3 4-5 9-9 12 1 8 6 13 7 21l5 15c2 9 7 17 10 26l9 15c1 4 2 8 5 10 4 7 6 15 9 22l8 16c2 2 1 5 1 8-1 4 2 6 4 9 3 6 6 13 1 18l6 19-1 10c0 6-4 10-8 15-1 2 0 5 1 7 1 1 4 2 5 0 4-5 6-11 9-17 4-5 7-10 9-16 2-9-8-16-6-25l1-2c1 6 3 11 6 16 4 7 2 16-3 22l-7 14c1 2 3 5 6 5 4 0 7-3 8-7 4-9 10-16 12-25-1-4-1-9-4-12-4-5-7-10-9-16l1-1 11 16c2 7 4 14 2 20l-8 16c3 2 7 3 11 2l4-13 3-13c2-4-1-9-2-13l-7-18c4 3 5 8 7 13 2 4 5 7 5 12 1 7-3 13-4 20 3 0 7 1 11-1l2-12c0-5 2-10 1-15-2-7-4-15-8-21l-2-5c1 0 3 0 3 2l7 15c2 3 2 7 2 11l10-25c0-5-3-9-5-14-9-2-16-8-22-14-1 5-1 10-3 14l-5 2 1-3c4-7 2-15 5-23 3 3 1 7 4 9 6 7 14 11 22 15 4 4 7 10 6 16-1 8-6 14-8 22-2 3-4 5-4 9-1 7-2 14-5 21-4 1-8 2-13 1l-3 9a277 277 0 00-3 4c-4 1-8-2-12-4-2 3-3 6-6 8l-1 2c-4 2-8 0-11-4l-5 5-2 3h-2l-6-2c-2-2-2-5-3-7l1-5c4-1 5-4 7-7 3-5 2-11 1-17-1-7-5-13-7-20l2 1 1-8-3-5c-4 4-9 6-13 9-2 1-2 3-3 5l-6 22 1 6 6 27c1 2 2 5 4 6l-1 8-2 7-1 8 2 1-2 1c-1 10-7 18-11 27l-12 24 2 1c-4 2-4 8-7 11v-9l-6-3v13l1 7v8c-4-2-3-7-3-10-5 7-13 10-21 12-7 0-14 2-21 0s-12-5-18-8l2 25 3-1-2 4c1 3 3 7 2 10-3-2-3-6-4-9-6 5-13 7-19 10l-16 4h-10l-4-1-3-2h-5l3 5 2 2 1 5-3-1c-8-12-13-25-19-39l-8-29-3-14-6-11-8-17c-2-5-3-10-7-13v-2c-6-10-10-21-14-33l-11-24h-4l-3-1-2 3 6-1 3 6v8l1 7c-1 1 0 2 1 3h1c-2 2 0 5 0 8l3 15c3 10 4 21 8 31 1 6 1 13 3 19v14l-2-3v-4l-9 9c-5 5-12 7-18 10-8 2-15 4-23 3 2 6 2 13 5 18 5 1 10-1 15-2l-1 2-3 2h-11l3 11v2l-5-12-10-36-1-2v-1l-3-9c-6-12-10-25-14-38l-17-43-6-8-5-15c0-5-2-9-1-14v-22l-8-22-17 7 1 34-2 12-9-6-11-7c-8-5-15-10-21-17l-10 4-14 5c-8 3-16 3-24 4-2 1-3-1-3-3l5-11c4-9 7-19 9-29l3-5c1 0 2 1 2 3-2 10-5 19-9 28l-5 14c11-3 21-5 31-10 5-2 10-2 13-7h13l-5 5 23 17 9 9v-44l1-4c2 0 2 2 3 3 8-4 15-10 23-13 3-2 6-5 10-6l4-3 1-12c-5 0-10 2-14 0-8-2-15-8-21-12l-4-4h7l15-35v-6c-5 1-10 4-15 7l-14 7-6 2 6 5-8-2c-3-2-7 0-10-2l2-3-15-6c-14-2-24-13-34-22v56l-8 5c-10 7-22 9-33 13l17 5c8 2 15 4 22 8l4 4-5-1-2 2v-1c-9-1-17-4-25-9-4-2-9-1-14-4l-8-4h4l-3-1 3-2c10-5 22-7 33-11v-2c4 0 7-1 10-4v-18l2-36c0-2 0-5 2-6l1 4c6 0 8 6 13 8l-3-5 7 6-2-16-1-13 1-7 12-10 7-4 12-12c4-2 8-5 13-5l-6-12-1 3c-1 2-4 1-6 0-1 2-2 4-5 5l2 1-3 2c-2 0-5-2-5-4l-1-1-1 1c-2 2-4 3-5 6-1-1-4-1-4-3l-1-11c-2 3-6 4-9 6-4-2-3-7-2-10 3-2-2-3-2 0-2 1-5 0-8-2-1-4 0-9 2-14l-4-3c1 10 1 22-5 31-1 3-4 3-6 4-4 1-8-1-12-2-3-1-5-5-7-7l-6-9-5-24c-2-9-5-18-5-27v-2l-2-38-9-12c-3-4-3-10-7-14-1-2-3-3-3-5l11-7 14-8c-1-4-3-8-2-12 1-5 4-9 6-13l7-13 11-13 9-9-2-1 4-3-6-15-8-5v2l-13-10-7-7c-4-3-4-9-6-13l3-2 3 1-6-21 8 3c-1-9 0-18 4-26 1-5 0-10 2-15l4-16-1-2c1-1 3-3 4-1 4 3 6 7 7 11 2 4 5 8 5 13l-5-8c-2-6-5-11-9-15 1 4-1 8-2 12l-4 26-2-2c-1 8-2 17-1 25l6 8-5-4h-2l-6-5c2 8 4 16 8 23-3 0-5-3-7-5 0 5 2 10 5 14 12 8 25 16 39 20l-6 1c4 0 8 0 12 2-6 3-12 0-17-4 2 10 7 17 12 26l-7-7-12 11c-3 5-8 8-10 13l-11 17c-3 6-1 12 1 17 10-6 21-12 30-20l31-21c5-4 10-6 14-11l17-14 5 10c2 4 7 5 9 9l1 8c2 3 5 6 6 11s6 8 10 8l-7-8-2-9 8 3 1 1 3 1 6 1-18-18 3 1-6-11-8-5v1l5 13c-4-4-6-10-9-14l-8-5c-2-1-3 1-4 3l-6 1-9-2 1 6c-5-3-5-9-7-14l-9 2 4-4 4-1v-4l2 3 5-2 1-6c-2 0-4 0-5-2-3-4-1-10 2-14-4 3-10 3-14 0-3-2-4-6-5-10-1-8 3-15 7-21 5-3 12-4 17-2 2 1 4 4 4 6l-3-2c-5-4-12-2-17 1-3 6-7 12-6 19 2 5 7 10 13 9l8-7c4-5 3-12 3-18l2 1c1 4 2 8 0 12l-8 11a341 341 0 013 1l-4 5c-1 3 0 6 2 9l2-2c6-1 4-9 1-12h3c3 4 4 9 1 13 3 0 6 2 8 4l4-1-3-3v-2l3 1 6-5c-2-2-6-3-6-7l7-1c-5-2-9-6-12-10l4 1c1-5 4-9 6-14 2-4 7-8 7-14 0-13 3-27-1-40-4 1-4 6-6 10-3-6-1-13-2-19-4-1-8 3-12 5 0 4-1 8-3 11v-29c-5 2-8 6-12 9v14c-3-4-2-10-3-15l-2-16c0-2-1-6-4-5-7 5-11 14-18 19 4-7 9-14 15-19 2-2 6-3 7 0 4 5 4 12 5 18l10-8c2-1 4 1 5 3v16c4-3 8-7 13-6 4 2 2 8 3 11l6-2 3-20-4 5c-2 2-5 2-8 3l-3-3c1-4 1-9 3-13l11-18 1 3c-6 7-12 16-11 26-1 2 2 2 3 1l8-6c5-3 8-10 14-11l-5 15c-3 5-1 11 0 16l5 19 7-22 12-21 1-1v-2l5-9 7-12 9-13 10-10-1 26c-2 13-1 26 1 39l1 13 7-12 1-1 1-2 1-1a200 200 0 0119-22v-2l18-18c1 3-2 4-3 6-5 8-13 13-18 20-6 7-13 14-18 22-3 6-8 11-9 18l-2-9-2-28v-20l1-22c-9 8-15 19-22 29-3 5-3 11-7 15-4 8-10 16-12 25l-6 18 1 9-4-6a223 223 0 01-7-46c-2 5-4 10-4 15-2 15-2 31-3 47v34c1 9 1 18 3 26l2 11c2 10 7 20 13 28 3 6 8 10 12 14 3 3 6 0 9-1l35-19c2-2 4-6 7-7 3-3 7-5 11-6 3 1 5 4 7 6 2 1 3-1 4-2l12-5 16-7 21-6c7-3 15-4 21-10l-5-8-4-10-2-4v-22l-1-18c-2-10 1-19 3-29l2-27c-1-5 1-11 1-16-5 4-7 11-12 16l-13 18-11 20c-4-9-6-18-6-27 0-11 2-22 4-33l6-21c-6 3-11 8-17 12l-2-1 16-12c2-1 4 0 5 1-1 9-4 18-7 27l-3 20 3 24 2 4c3-9 10-15 14-23l14-20 5-7c2 0 3-2 4-1l-1 11-1 26 8-13c7-13 17-24 25-37l6-8c5-7 10-14 18-18-1 4 0 9-2 14l-2 9-8 28 9-7c4 0 6-3 9-5l22-21 13-8 21-14c4-1 8-4 12-2l-1 8-11 26c-2 7-7 13-9 19-5 1-3 9-6 12l-13 8 6-2 14-7c6-4 13-6 18-10l-4-1 17-10 39-14c1 9-2 18-7 25-4-1-5 3-6 6-6 10-12 19-17 30-3 6-12 7-13 14 6-3 11-8 17-12l15-10c8-6 17-11 27-11 0 6-4 11-7 16-6 10-16 17-23 26l-5 10c-10 21-22 41-31 63l-5 8v15l2-1 1-12-2 37c0 2-2 4-4 4-4-3-4-10-7-13l-4 16c0 2-3 2-3 0l-4-8v11c-1 3-4 0-5-1l-5 4 11 4 10 7 1 1c8 4 17 5 26 9l11-10 13-11 26-24 17-14 4 1-16 16 6 3 20-20h3l-22 21 4 4 4-3 24-25-3-3-3 2v-2a41 41 0 000-6l4 2c6-6 11-12 18-17l8-9-4-4c-9 8-18 15-26 24v-4l21-19c2-4 6-6 9-9l41-41c2-1 3-3 3-6l5-18c1-3 5-4 7-6l-4-6h1v-2l1-3-14-14-9-10c-5-4-11-9-15-15-5-8-12-15-17-24l-12-28c-2-5-5-10-6-16m95 69c-3 1-3 5-3 8l10 1 1-6c-2-2-5-3-8-3m24 6c3 0 5-2 6-4-3 0-5 2-6 4m12 9c-1 3-4 5-6 6l-4 1-11 12c-2 4-6 5-8 8l-33 32 5 4 74-72-6-4c-4 4-9 8-11 13m17-7l-72 71 4 5 65-65c3-3 7-5 9-9-2 0-4-4-6-2m-53 2c2 2 3 4 6 3v-3h-6m46 16l-58 57c-4 2 1 6 2 8l37-34 40-39-6-6-15 14m-41-4l2 1 7-8h-2l-7 7m-500-2c0 3-1 6 1 9 0-5 2-9 4-13l-5 4m563-1l-9 9-68 65 5 4 73-69 4-5-5-4m-87 11c1 2 1 5 4 4l-4-10c-2 2 0 4 0 6m93-5l-57 54-20 20 2 8c8-6 15-14 22-21 4-1 6-5 9-8l49-45c-1-3-2-7-5-8m-66 12l8-7c0-1 1-3-1-4-6 0-9 7-7 11m-18-3c0 1 1 3 2 2 2-1 0-3-2-2m78 12c2 1 5-1 6 2 1 4-2 8-5 11l-6 1c-2-3-1-6 0-9l-19 17c0 2 3 3 3 5s-2 4-4 5c-2 2-4 5-8 4-2 1-3-2-2-4l-8 8c-1 3 0 7-3 9-3 3-7 7-12 5-4 3-8 6-11 11l9-1c4-1 6-5 10-6l17-11c14-10 27-21 39-33l11-13c0-5-2-9-5-13l-12 12m-86-7c-3 2-3 6 0 8l8-9c-2-4-6-2-8 1m85 11c-3 2-4 5-3 8 2-1 5-1 7-4 2-1 1-4 1-6l-5 2m-32 30c4 0 7-3 9-6 2-2-1-3-2-4-3 3-6 6-7 10m-62-4l-14 17-8 7c1 1 3 3 5 1l19-18 2-3-4-4m-17 28l4 3 20-19 2-3-4-4-22 23m95-19l3 6c0 2 2 0 2-1l-5-5m-90 24l5 6 22-21-5-7-22 22m52-12c1 2 2 1 3 0 4-1 7-4 6-8l-9 8m47-5c-2 1-4 1-4 3l5 4c0 2 3 0 1-1 2-3 1-6 2-9-2 0-4 1-4 3m-93 24l3 6 23-21-4-6-22 21m-481-7h2l-5 10a257 257 0 003 1l7 7v3l-7-1 6 6-8 6 3 2c-1 4-5 3-8 3h-1l1 2-2 7 2 3c5 0 10 2 14 3-1 1 2 3 3 2l4 3-3-22c-2-7-2-15-3-22l-1-24-7 11m506-5l-21 19 3 8 23-22-3-6c-1-1-2 0-2 1m-55 8l-15 14 5 3 17-16 7-8-3-2-11 9m15-5l-24 24 4 4 24-23c0-2-2-4-4-5m-275 6c5 5 10 10 17 11l-3-3v-1l-8-4c-2-1-3-3-6-3m257 23l5 5 23-23-5-5-23 23m27-14l-20 20 2 5 7-5 18-18-4-4-3 2m-279 1c-2 2-2 5 0 7 3 2 7-2 6-5-1-2-4-3-6-2m285 4l-22 22 2 7 6-6 21-19c-2-2-4-7-7-4m-203 2h-8l5 2c5 1 11 0 15-4l-12 2m-85 13c-6 4-13 6-20 8l-48 18c-5 3-11 4-16 6l1 13c-4 5-10 8-15 11l-13 9-8 2c-1-2-2-3-1-5l8-20-5 3c-4 4-10 5-15 8l-17 8c-7 1-13-1-19-3v-1c-1-3-5 1-1 1l7 11 14 1c-10 5-21 1-30-3l13 13 22 1c-1 3-5 2-8 2-5 0-9 2-14 1l-6-1 15 10c2 3 5 1 7 0-2 4-6 5-9 7l15 3c8-1 17 2 25 4 7 2 14 2 21 1l10-1c4 0 7-2 11-1 3-2 7-2 10-2-1 2-3 4-5 4 1 5 1 10 3 14v5l-2-1c-8 4-17 7-25 13l-20 11v-3c2-1 5-3 6-6 6-5 13-8 20-11 0-5 2-9 4-13 2-3 4-6 8-8-11 2-21 4-32 3l-24-3 4 9c2 2-2 5-3 3l-3-7-2-6-7-1c2 4 4 9 7 12v1l1 2 1 4c1 3 4 4 4 7l10 17 3-2 2 3-2 1-1 2c-2 0-4 2-5 3l8 2-2 2c-4 1-7 0-11-1-3-1-8-1-11-4 2 2 4 6 7 7l8 10 5 1-2 2 3 2-5-1-13 8c0 2 2 3 3 2l12 1c-2 6-8 10-12 15 4-2 9-3 13-6 3-3 7-5 11-5 0 6-4 11-6 16l-6 9-5 11c6-3 11-9 16-13 3-3 7-4 9-7 2 2 4 3 3 5l-2-2-6 14c-1 7-4 13-6 20l5-4c6-4 9-10 15-14 1 2-1 3-2 5l2 1 1 25 5-6-1-2 9-6c0 3-3 5-5 7l2 3 17 33 3 11c4 13 9 25 9 39-1 11-2 23-6 33l-4 16 11 2c10 0 20-2 29-5l16-5 5-1 7 8 15 19c2 3 5 4 6 7l3-5 8-27c1-3 3-5 2-7l13-4 22-8c6-1 10-6 15-9l-7-8c-6-11-10-22-14-33l-2-12-1 1-2-23v-21c1-10 1-21 3-31-2-3-6-4-9-6l-12-7c-1-1-3-2-3-4l9 3h2c5 2 8 6 13 9l-8-11-5-10c-1-3 0-6 2-8l14 5 16 4c2 0 5 0 5-3 0-4-1-8-4-11-6-10-16-17-24-25l-10-9c-1-2-1-5-3-6 2-1 3 0 4 1 5 3 11 4 16 6 2 2 5 2 7 2l-9-12-14-21c-5 0-10 1-14 3-1-2 0-3 1-4l14-11 12-13c-8 1-15 6-23 8-3 1-6 2-9 0l3-5c4-6 10-10 15-15l7-9-21 7h-4l5-5 5-7c1-4 5-6 6-9l-3-1c-5 3-8 8-13 12l-11 6c-16 4-29 14-43 21 2 0 3 2 4 4-7 1-13-4-18-9-5 5-11 8-18 9-2 1-4 1-5-1 5-4 12-5 17-8 4-4 10-7 15-10 5-6 13-9 17-15l19-14 11-15-16 5c-4 1-8 4-12 3 0-4 6-3 9-6 5-8 13-14 18-22 3-5 8-9 9-15l-14 9-21 16c-2 1-3 2-5 1 5-6 12-11 18-15l10-23c1-3 3-5 2-8l-20 15m220 17c1 1 2 4 4 4l26-25-4-5-26 26m64-15c4-2 7-6 11-10l-11 10m-196-6c-2 0-2 3-1 4 2 1 5 3 6 0 2-3-2-6-5-4m163 1l-26 25 4 6 28-26c-1-2-4-5-6-5m-463 4l1 4-1 3 1 4h5c0 2-2 3-3 4h5l-1-14c-1-3-5-2-7-1m469 3l-27 26 3 5 12-10 18-18c-2-1-4-5-6-3m-219 3v1l1 19c4-3 9-6 12-11l6-4c-5-4-13-7-19-5m-10 9c-6 9-14 17-21 25l16-4h4c-3 2-4 6-6 9l-4 5c-3 4-6 9-10 12v6c2-1 3-3 5-3s3 2 4 4c1-2 4-3 6-1 2 0 4 1 4 4l-6 1-2-1h-5l-1-3c-2 2-5 4-7 2l-2-7c1 4-1 9-3 13 0 3-3 5-3 8 9-6 20-10 30-13 9-3 14-12 23-16 4 0 3 4 2 6l10-2 10 1 7-2c1-2 1-4 3-4 2 1 6 1 4-2l1-8c4-1 6 4 8 6v-10l3-6-2-5-6 1c-2 0-5-1-7-3-7-4-13-9-17-15-2-4-7-5-10-6 1 2 2 3 5 4-3 4-8 5-10 9-4 5-9 7-14 11l-2-2c-2-7-1-15-1-23-4 2-4 6-6 9m-247-4l2 5 4-1c3 3 5-4 1-2l-4-4-3 2m454 25l3 5 17-15 11-12-3-6-28 28m-224-26l-2 4 6-4h-4m-221 26c-7 7-16 12-24 18-10 7-21 13-31 21l-10 7c-8 3-15 9-22 13-6 3-12 5-16 10l12 22 6 7v6l1 12 2 21c1 14 3 27 7 40 2 9 7 17 12 24 2 3 6 5 9 5s7-2 8-5 3-5 3-8l2-15-2-17c1-13-3-26-7-38l-4-5 5 3 2 4c9-8 19-16 30-23l14-10 15-9c8-7 18-13 28-17 5-1 8-6 12-7-6-4-12-8-17-14-1 0-3 0-3-2h10l-11-11c-3-2-6-4-7-7l9 2-1-7-6-7-1-8-7-9-3-9-15 13m432-12l-27 27 3 6 9-8 20-19-5-6m-322 6c-5 5-10 10-12 17l-6 16c12-4 23-12 33-20 0-6-2-12-5-16-4 0-7 1-10 3m300 28l4 5 27-26-3-6-28 27m31-20l-27 26 3 5 13-11 16-15c-2-1-2-4-5-5m-75 28l6 5 24-24-6-4-24 23m0-4c-1 1-5 3-2 4l18-18c-6 3-10 9-16 14m8 9c-2 2 1 4 2 5 6-4 10-10 15-14l10-10-4-3-23 22m27-17l-23 23c0 2 3 4 4 6l24-23c-1-3-2-5-5-6m-2 15l-16 15 2 5 11-9 15-15-3-4c-4 2-6 5-9 8m-129-4l-11 2-5 8c5-2 11-4 17-3l2 3-15 15c-3 3-8 6-8 11l16-5c5-2 10-5 15-5-2 5-6 10-10 14l-12 12c3 0 5 0 8 2 0 2 0 4 2 6l9 11 10 15c1 2 0 6-3 5l-18-6 4 3 14 13 15 19c3 5 6 13-1 16l3 8c3-4 8-7 12-9l18-7c7-4 15-2 22-2-8-14-12-30-18-45l-9-29c-2-9-7-17-11-25-2-6-6-10-9-15l-10-7c-6-3-13-3-19-6-3-1-6 0-8 1m85 6l-15 14 3 2 17-17c1-1 3-2 2-4l-7 5m-165 12l15-7 3-4 2-5-20 16m198 6c-2 2 0 5 1 7l13-12 13-13-3-4-24 22m-43-2c2 1 5 1 6 3a517 517 0 01-1 2l19-19-5-4-19 18m9 4l-2 4c3 2 5 0 7-2l15-14-3-4-17 16m4 6l3 6 18-17c-1-2-2-5-4-6l-17 17m38-5c-2 2-5 4-6 7 3-1 4-3 6-5 4-4 8-7 11-12l-11 10m-35 13l3 5 19-18-3-5-19 18m3 7l3 5 20-19-3-5-20 19m3 7l1 3c5-4 8-9 14-13l7-7-1-2-21 19m-350-1c-8 7-18 11-26 18l-16 10-21 17c3 7 4 15 6 23 1-2 1-4 3-4l8-1c0-5-5-8-4-13l8-2v-7h6v-4l-2 1-1-6c3-3 8 2 12 0l1-11c3-2 6 0 9 0l5-4 6 1c1-4 4-8 7-11l3 1c3-2 6-3 8-6 1-2 4-1 6-1l1-3h4l5 10c1 4 7 5 10 2 3-1 4 3 7 4-2-7-6-14-10-21l-7-10c-9 6-19 10-28 17m33-17l7 10 7 19 2-1c0 4 1 8 3 11 2-1 3-3 3-6 2 0 3-1 2-3-3-9-9-17-12-26-5 0-8-4-12-4m-20 22c-1 2-3 3-5 3l1 3c-3 1-5 1-7-1l-7 10c-2 2-5 1-7 0l-5 6-6-2v7c-3 3-5 5-9 6l-3-2c2 2 3 6 1 8-1 2-3 1-5 0 0 3-1 6 1 8l-9 1c1 3 2 7 5 10-2 5-7 7-12 5-1 5-3 9-3 14 1 4 4 7 6 10l3-4c-1 7-5 14-1 20 5 0 8-4 10-7 2 6-2 12-3 18 3-3 5-7 9-8l-1 3 2-3 2 1c2 3 2 7 2 11l5-4 3-5 3 8c4-3 5-7 7-11 2 0 2 3 4 4l6-6-1 6c4 6 8 12 9 19l-4-5-11 6-4 7c4-1 6-5 10-6-1 6-2 13-5 18l9-3-3 4 2 5 6-1c1 2 1 5 3 7l5-2-2 10c3-1 7-2 8-5 2 1 2 4 3 6l4 2 3-2c0-2-1-5 2-5 2 2 2 6 5 7 1-2 1-4 3-5 1 1 1 4 3 4h5l1-2 2 1 2-1v-35a220 220 0 00-4-47c1-4 2-7 1-11l-7 5 7 11 1 3c-7-1-9-8-12-13l-4 6-3-1c3-6 9-9 14-14 3-2 3-5 4-8l-1-1 3-12 3-10c-3-5-9-8-8-15 4 2 8 5 12 3v3c1 0 4 1 4-2-4 0-7-3-10-5l-1-4 2 1c0-4 2-7 3-11-1 3-4 6-7 8h-4l1-3-2-3c-4 1-7-3-10-6-2 4-7 4-10 1-2-4-5-7-6-11-2 3-6 0-8 3m48 16l-2 8c2 2 5 2 8 3-2-4-3-8-6-11m-1 29l-3 11 5-3c1-1 3-1 3-3l-5-5m-6 21v12c5-4 8-9 13-12-4 0-9 2-13 0m201 15l5 10 5-16-15-6c2 4 2 9 5 12m-189-1c-4 1-8 3-11 6l3 37v24l1 36-1 24c2 18 0 37 0 55l-1 17c0 12 0 24-2 36-1 6 1 12-3 17-2 2-2 5-2 8-1 6-2 13 2 19 3 2 6 1 9 0l-3-12c0-3 0-5 2-7 0 13 7 25 18 33l15 8 8-6-11-9c-4-3-10-5-13-9l-5-7c-2-3-2-7-2-10v-11c1 6 1 13 4 19 4 5 8 10 14 14l14 10c5 1 11-2 15-5 0-2-3-2-5-2-7 0-15-3-20-8-6-3-8-9-10-15-2-4-2-9-2-14-1-1 1-2 1-3 1 6 1 14 5 19 3 5 6 10 11 13l18 5c4 0 8-2 12-4v-6c-6-2-13 1-19-2-5-2-7-7-11-10-4-6-9-12-12-19 3 0 4 4 6 6 3 6 8 11 13 16l12 6 4-4c3-2 5-5 3-8-7 0-13-5-18-10-4-4-9-9-10-14 3 1 4 4 7 6l2-17c0-6-2-12-8-15l3-6 4-23 1-20c0-3-2-7-1-10v-36l-1-10v-43c-2 1-4 0-4-2v-28c-5 5-8 12-15 14-3 1-4 6-8 5l3-12 10-25-14 13c-3 3-7 3-11 4-2 1-2-2-1-3 3-4 4-10 7-15l12-18c-5 2-9 6-15 8m200-4c-1 1 0 4 1 2 2 0 1-3-1-2m4 1c-2 4-7 7-6 12 4-3 7-8 12-11l-6-1m-7 18l3 7h-5l-3 33c-2 13 1 26 4 39l1 6h18l20-7c4-3 9-5 11-10-2 0-5-1-6-4-2-4-2-9 0-13-4-3-7-7-8-11 0-3-4-2-5-4-2-2-3-5-3-9-6 0-10-4-11-9-2-8 2-16 4-24 0-3-1-7-3-10l-17 16m-156 35l-2 4c0 2 2 4 3 5l7 13 4-1c-4-7-7-15-12-21m-146 28l3 33c3 2 7 6 11 6l20 11c3 2 6 0 9-1-5-12-10-24-11-36 2 0 2 2 2 3 2 10 6 19 10 28l1 4 11-5c7-4 15-7 23-9l2-2-1 12c-4 13-10 25-15 38 7 1 13 5 19 7l10 2 1-40c-2-9 0-18-1-27l-1-8h1c1-2-2-3-2-1-3 2-7 0-11-1-1 1-3 3-6 3l-2-3c-3 4-7 3-10 2-2-1-2-3-3-5-3 2-6 2-10 3v-8c-3-2-5-5-5-9-1 1-3 2-5 1h-4c-1-2 0-5 1-7l-5 2c-1-6 1-11 2-16-2 1-4 3-7 3-2 0-1-3-1-4-9 8-18 15-26 24m144-17v22c2 3 1 7 4 9 4 4 4 10 8 14l7 5c5 0 7-7 6-11l-11 2 2-3 7-4-5-8-7 2c0-3 3-4 5-6l-4-6-7 2c-3-2 2-4 3-5l-4-9c-1-1-2-4-4-4m12 14c2 2 4 6 7 7l-4-9-3 2m192 18c-11 6-22 11-34 12l-11-1 4 13 6 14c1 3 4 5 6 7-1-7-4-15 0-21l4 1 9 7c5-6 6-14 9-21 2-2 3-5 6-5v8c2-1 4-3 5-6l4-12-1-3-7 7m9 0l-1 10c-2 3-5 6-9 7l-1 6c-3-2-1-6-2-8-3 6-6 12-11 18l4 3c-7 0-12-7-17-11l2 21 3 6 11 15c3-6 3-14 8-19 4-2 7 1 9 4h1c2-4 3-8 6-11 5 2 7 8 10 11v1c1 3 4-2 1-2l4-5-12-31c-2-5-3-11-6-15m-211 2l-1 35 1 9v27l-2 17 18 8 5-12 8-33c2-12-1-24-3-36l-6 4c-4 0-8-2-11-5-4-4-6-10-9-14m210 50l-1 8-4-9c-1-1-4-3-6-1-2 1-3 4-4 6 0 5-2 9-3 14 1 6 5 10 8 15l10 21 4 11 4 16c4 0 7-4 11-5-2 3-1 7 0 11l6-2 7-6 2-3 2 5c3-1 5-1 7-3l1-3c1 2 4 4 6 2l1 3v-3l-2-4v-6c-3-1-4-4-5-6-4 2-7 6-11 7l-3-1-1 3-2-4 8-2c5-2 8-6 11-10-8-18-17-35-24-54-1-2-1-5-4-4 1 3 1 6-1 9-2-1-5-2-6-4-1-4-4-7-6-10-3 2-3 6-5 9m-64 20l-18 5-4 14 10 2h11c10-1 18-7 28-9 6-2 12-5 17-10-4-6-7-13-13-18-9 7-19 13-31 16m21 18c-7 3-15 6-22 6-8 3-15 1-22-2l-6 18 19 1h25c8 0 16-2 22-6l16-9 3-2c-2-7-7-13-10-19-7 7-16 10-25 13m-122 4l-11 1-13-2c-1 6-5 13-4 19l16 2c5 0 10 0 14-2l1 1 14-2c11-4 21-8 31-14l-10-15c-12 6-25 11-38 12m-47 0c-3 6-4 13-5 19 6 6 8 16 7 24l-3 12c2 3 5 6 9 7v-3l5 7c3 1 6 0 8 2s1 5 1 7h3c-2-7-4-14-8-20l-3-30c-1-7 1-14 3-20-6 2-12-2-17-5m-59 9l-9 7c4 7 8 15 8 24-1 9 1 17 2 26l4-12c2-6 1-11 2-17l2-35-9 7m155-4c-4 3-7 6-12 8l-11 5c-18 5-36 8-54 4v22l14 1h11l32-7c8-3 15-8 22-12l9-7c-2-4-5-6-6-10l-5-4m86 14c-8 3-16 5-24 5l-15-1c-9 0-17-1-25-3-1 2-2 3-1 5l4 14c9 5 19 7 29 7 6 2 13 2 19 1l21-6 17-8 7-2c-1-8-5-16-7-24-8 5-16 9-25 12m77-2c0 2 1 3 3 3l-1-5-2 2m-151 4l1 2c-6 1-8 8-13 10-8 3-16 8-25 10l-29 5c-8 1-15 2-23-1l6 18 2 3 36-3c11-1 21-6 30-11l24-15-4-14-2-3-3-1m84 23l-12 5c-9 2-17 4-26 2-4-3-9-1-14-2-6-1-12-3-17-6l4 21 6 2c7 1 15 4 22 3l31-1 11-4c7-1 14-4 21-8l-3-24c-7 5-15 8-23 12m64-6l-3 6 8-5-5-1m-36 4l1 8c2 5 1 11 1 16l3 1c5 7 4 16 3 23-3 8-5 15-10 22-2 2-2 5-2 8 1-1 2 0 3 1l-3 2v4l5-8c5 1 10 2 16 1l15-5-1-2c-4-9-6-18-7-27-1-4-3-8-1-12 2-12 5-23 10-33l-4 1c-2 0-3-2-4-3-4 4-8 8-14 8-4 0-4-5-4-8l-7 3m-125 15c-5 4-11 5-17 8-9 5-19 4-29 6-7 1-15 1-22-1l7 19c9-1 17 0 26-2 10 0 19-3 28-5 7-1 12-5 18-8 7-3 14-6 17-13-2-7-2-14-6-21-6 7-14 12-22 17m112 8h12l-1-7-11 7m-83-1l-2 3c-6 6-13 11-21 15l-10 3c-6 4-14 4-21 5-11 3-24 3-35 2l9 23c14 1 27 0 40-3 15-6 31-12 45-19-1-10-2-20-5-29m3 2c2 5 4 10 4 16l1 10 25 3c7 0 14 2 21 1h12c-2-4-6-8-5-13s4-9 7-13c-11 4-23 2-35 3-10 0-21-2-30-7m69 3c-4 5-9 10-8 17 5-6 7-14 15-16-1 4-5 6-7 9-2 4-5 8-4 13l1 1c2-6 5-11 10-15l4-2-2 3c-3 4-7 8-8 13 0 3-1 6 2 8 3-5 5-11 10-14l-5 10-2 9 12-10 3 2v9c3-3 4-7 6-11 1-8 3-17 1-25-7 0-13-2-20-1-2-1-6-2-8 0m-82 35c-8 3-15 7-23 9-14 5-30 8-45 5l9 18c1 1 1 3 3 3l12 3 15-2c12-2 23-10 35-13 6-1 11-6 17-9-1-4-1-7-3-10-2-2-1-6 1-8l5 20c7 4 15 7 23 9l12-1c13 0 25-2 37-6l2-24-12 12c-4 0-3-5-3-8-3 1-5-1-6-4-12 4-24 0-36 1-8 0-16-1-24-4l2 5h-2l1 2-1 2h-1l-2-10c-5 4-10 8-16 10m-163-7l2 4c4 2 8 2 12 2l-7-8-7 2m65 2c-2 6-7 9-13 10-3 0-6 3-8 6-3 2-7 4-11 3-6-3-11-9-17-13-3 1-7 2-10 1l4 11 18 2c6-1 12 0 18-2 10-3 20-6 29-11l-3-10c-2 1-4 3-7 3m-19 9c0 3 3-1 0 0m21 5c-7 4-14 7-22 8-11 2-23 3-34-1 1 5 2 11 5 15 12 3 25 2 37-2 9-2 17-7 24-13-1-4 0-8-2-12l-8 5m204 9l-3 6c8 6 18 10 29 9l3-19c-7 8-20 10-29 4m-97 7c-7 5-15 7-24 9-6 3-12 6-19 7h-12l-12-3 10 25c7 0 13 0 20-2 6-1 12-1 17-3l-3 3c8-1 16-5 23-8s13-8 19-12c-2-8-5-16-6-25-4 4-9 6-13 9m-110 5l-18 5c-10 0-20 3-29-1 0 7 3 12 6 18h17l9-1 14-5 19-11-4-17c-4 5-9 9-14 12m126-10l7 22 16 8 7 1v-2c7 1 13 2 20 1l20-8c1 0 3 0 2-2l-1-18c-12 6-26 6-40 6-11 2-22-2-31-8m77 6c-1 4-3 9 1 12 6 6 14 11 22 14l7-17c-8 2-16 0-22-4l-8-5m-185 10c-6 7-15 11-23 15l-15 4h-21l7 19c11 0 21-2 31-5 5-1 8-4 12-6l13-8-4-19m184 5l-1 18c5 4 10 7 16 9h1c3-4 3-9 6-13-9-2-16-8-22-14m-72 2l-8 7a75 75 0 01-44 15c-8 2-15 3-23 1 5 8 6 18 9 27h16c7-1 13-4 20-6s16-4 23-9c4-3 7-7 12-9l-5-26m47 10c-4 2-8 4-12 3l-11-1c-8-1-15-5-21-10 2 9 5 18 5 26 5 4 11 8 18 10 6 1 11 4 17 3 8 0 15-5 22-9l1 2c-5 4-9 8-16 10-6 2-12-1-18-1-9 0-18-4-25-10l2 27c8 4 17 7 25 9 5 1 10 1 15-1 7-2 14-5 20-9l-1-21c0-2-1-4 1-6h-3l1-2 1-29c-6 5-14 8-21 9m-163 11c-5 4-10 6-16 8-10 2-20 6-30 4l8 24h10l17-5c3 0 6-2 9-4l13-12c0-7 0-14-2-20l-9 5m187-1l1 15c2 3 5 4 8 6 3-4 3-10 7-14-6 1-12-3-16-7m-68 9c-4 5-9 9-15 12l-15 6-10 5c-9 4-19 5-28 1 1 9 6 17 8 26 13 2 26 3 38-2 4-2 8-2 11-5 3-4 8-7 13-10 2-6 0-12 0-18l-1-14-1-1m-8 46c-10 6-21 8-32 9-7 0-13-1-19-4 2 7 5 15 9 21h26v1l-4 1c6 0 11-2 17-4l18-9-3-24-12 9z"/><path d="M99 79c1-2 3-4 5-3 4 2 4 7 4 11h-2l-1 4 15-12v8c-2 2-2 5-2 7-1 6-3 12 0 18l4-3c2 2 6 4 8 1 10-9 19-20 32-25 2 5-1 12-6 15 2-5 5-9 5-13l-18 12-10 11c-2 3-5 3-8 4l-1-2-2 2-1-2-5 4v-2l-2-2c-1-10 2-19 4-29l-11 9c-4 3-4 8-7 12l-6 7-9 7c-4 3-9 4-14 3l-2 2c-1-3-3-7 0-9 1 1 0 4 2 5 5 1 10 0 14-4-4-6-8-11-11-18-1-2-3-4-3-7 2-3 6-4 9-6l9-6c2 0 3 1 4 3l7 16 4-14v-5l-5 1m-3 15l2 8 2-3-4-5z"/></g><path d="M195 107c7-10 13-21 22-29l-1 22v20l2 28 2 9c1-7 6-12 9-18 5-8 12-15 18-22 5-7 13-12 18-20 1-2 4-3 3-6l1-1 2 1c6-4 11-9 17-12l-6 21c-2 11-4 22-4 33 0 9 2 18 6 27l11-20 13-18c5-5 7-12 12-16 0 5-2 11-1 16l-2 27c-2 10-5 19-3 29l1 18v22l2 4 4 10 5 8c-6 6-14 7-21 10l-21 6-16 7-12 5c-1 0-3 0-4 2-2-2-4-5-7-6-4 1-8 3-11 6-3 1-5 5-7 7l-35 19c-3 1-6 4-9 1-4-4-9-8-12-14-6-8-11-18-13-28l-2-11c-2-8-2-17-3-26v-34c1-16 1-32 3-47 0-5 2-10 4-15l1 7c0 13 3 26 6 39l4 6-1-9 6-18c2-9 8-17 12-25 4-4 4-10 7-15m75 128c-3 2-3 6 0 8 2 3 7 1 8-2 1-4-4-8-8-6m-77 27c-3 2-4 7-1 9 3 3 8 0 9-3 0-4-4-8-8-6z" class="G"/><path d="M107 92l11-9c-2 10-5 19-4 29l2 2v2l5-4 1 2 2-2 1 2c3-1 6-1 8-4l10-11 18-12c0 4-3 8-5 13l-1 1-1-3-11 18c-2 4-2 9-3 13l3 3c3-1 6-1 8-3l4-5-3 20-6 2c-1-3 1-9-3-11-5-1-9 3-13 6v-16c-1-2-3-4-5-3l-10 8c-1-6-1-13-5-18-1-3-5-2-7 0-6 5-11 12-15 19 7-5 11-14 18-19 3-1 4 3 4 5l2 16c1 5 0 11 3 15v-14c4-3 7-7 12-9v29c2-3 3-7 3-11 4-2 8-6 12-5 1 6-1 13 2 19 2-4 2-9 6-10 4 13 1 27 1 40 0 6-5 10-7 14-2 5-5 9-6 14l-4-1c3 4 7 8 12 10l-7 1c0 4 4 5 6 7l-6 5-3-1v2l3 3-4 1c-2-2-5-4-8-4 3-4 2-9-1-13h-4l1-2-4 1 8-11c2-4 1-8 0-12l-2-1-1-4 3 2c0-2-2-5-4-6-5-2-12-1-17 2-4 6-8 13-7 21 1 4 2 8 5 10 4 3 10 3 14 0-3 4-5 10-2 14 1 2 3 2 5 2l-1 6-5 2-2-3v4l-4 1-4 4 9-2c2 5 2 11 7 14l-1-6 9 2 6-1c1-2 2-4 4-3l8 5c3 4 5 10 9 14l-5-13v-1l8 5 6 11-3-1 18 18-6-1c0-2-2-2-4-2l-8-3 2 9 7 8c-4 0-9-3-10-8s-4-8-6-11l-1-8c-2-4-7-5-9-9l-5-10-17 14c-4 5-9 7-14 11l-31 21c-9 8-20 14-30 20-2-5-4-11-1-17l11-17c2-5 7-8 10-13l12-11 7 7c-5-9-10-16-12-26 5 4 11 7 17 4-4-2-8-2-12-2l6-1c-14-4-27-12-39-20-3-4-5-9-5-14 2 2 4 5 7 5-4-7-6-15-8-23l6 5h2l5 4-6-8c-1-8 0-17 1-25l2 2 4-26c1-4 3-8 2-12 4 4 7 9 9 15l5 8c0-5-3-9-5-13h2l1 1 15-28v-4l1-1 9-7 6-7c3-4 3-9 7-12m-48 89l2 2c0 4 5 5 8 5v-1l5 1v-1l1 1c0-4-3-5-6-7-3-1-7-3-10 0m6 22v2l6 7c2 3 5 3 8 4h10c-1-6-3-11-6-17l-5-1-13 5z" class="M"/><path d="M678 87l6 2c1 3-1 7 2 9v1h-3c-2-4-6-8-5-12z" class="C"/><path d="M189 115c3-7 7-15 12-21l-7 12-5 9zm66-11l10-10-10 10z" class="G"/><path d="M693 95l9 4-8 9c-3 0-6 0-9 3-2 1-2 4-2 7l-7 8c-2-2-4-4-6-3-6 1-8 9-6 14l-12 11v-7c-4 1-7 2-8 5l-1 1c-3 1-6 4-4 8 1 2 4 0 6 0l-15 15c-1-6 1-11 4-16l11-13 15-14c6-5 13-9 18-15l16-15-5 2 4-4z" class="B"/><path d="M657 98c3 0 6 1 8 3l-1 6-10-1c0-3 0-7 3-8zm24 6c1-2 3-4 6-4-1 2-3 4-6 4z" class="C"/><path d="M693 113c2-5 7-9 11-13l6 4-74 72-5-4 33-32c2-3 6-4 8-8l11-12 4-1c2-1 5-3 6-6zm17-7c2-2 4 2 6 2-2 4-6 6-9 9l-65 65-4-5 72-71z" class="B"/><path d="M657 108h6v3c-3 1-4-1-6-3z" class="C"/><path d="M245 116l5-7v2l-5 5z" class="G"/><path d="M703 124l15-14 6 6-40 39-37 34c-1-2-6-6-2-8l58-57z" class="B"/><path d="M424 123c3-3 1-11 6-12l-1 9c5-2 11-5 16-9l4 1c-5 4-12 6-18 10l-14 7-6 2 13-8zm64-5c1-3 2-7 6-6l-12 21-9 15 26-17c6-2 11-5 17-5 2-1 3 2 5 3-1 4-4 8-6 11-8 14-20 25-29 38l-5 12-7 12c-1 10-8 17-13 25l-12 27-1 12-2 1v-15l5-8c9-22 21-42 31-63l5-10c7-9 17-16 23-26 3-5 7-10 7-16-10 0-19 5-27 11l-15 10c-6 4-11 9-17 12 1-7 10-8 13-14 5-11 11-20 17-30zm174 2l7-7h2l-7 8-2-1z" class="C"/><path d="M162 118l5-4c-2 4-4 8-4 13-2-3-1-6-1-9z" class="M"/><path d="M632 114h10l-1 7-8 1-1-8z" class="C"/><path d="M188 118l1-2v1l-1 1z" class="G"/><path d="M725 117l5 4-4 5-73 69-5-4 68-65 9-9z" class="B"/><path d="M84 119v4l-15 28-1-1 16-31z" class="E"/><path d="M638 128c0-2-2-4 0-6l4 10c-3 1-3-2-4-4z" class="C"/><path d="M731 123c3 1 4 5 5 8l-49 45c-3 3-5 7-9 8-7 7-14 15-22 21l-2-8 20-20 57-54z" class="B"/><path d="M665 135c-2-4 1-11 7-11 2 1 1 3 1 4l-8 7zm-18-3c2-1 4 1 2 2-1 1-2-1-2-2z" class="C"/><path d="M230 133h1l-1 1v-1z" class="H I"/><path d="M725 144l12-12c3 4 5 8 5 13l-11 13c-12 12-25 23-39 33l-17 11c-4 1-6 5-10 6l-9 1c3-5 7-8 11-11 5 2 9-2 12-5 3-2 2-6 3-9l8-8c-1 2 0 5 2 4 4 1 6-2 8-4 2-1 4-3 4-5s-3-3-3-5l19-17c-1 3-2 6 0 9l6-1c3-3 6-7 5-11-1-3-4-1-6-2z" class="B"/><path d="M639 137c2-3 6-5 8-1l-8 9c-3-2-3-6 0-8zM644 146l7-3c-1 3-1 6-3 8-3 1-5 4-8 3l3-7 1-1zm80 2l5-2c0 2 1 5-1 6-2 3-5 3-7 4-1-3 0-6 3-8z" class="C"/><path d="M283 150l1 2-1-2z" class="H I"/><path d="M730 161l2-1c1 3 3 5 6 6 0 2 1 2 2 2l-5 1-6-5v-2l1-1z" class="C"/><path d="M732 160h1l11 8c3 4 3 10-1 14l-1-2v-11l-4 3 3 7 1 3c-4-2-7-6-7-11l-6-5v-2l6 5 5-1-2-2c-3-1-5-3-6-6z" class="E"/><path d="M738 166l2 2c-1 0-2 0-2-2z" class="J K"/><path d="M692 178c1-4 4-7 7-10 1 1 4 2 2 4-2 3-5 6-9 6zm46-6l4-3v11l-1-1-3-7z" class="C"/><path d="M630 174l4 4-2 3-19 18c-2 2-4 0-5-1l8-7 14-17z" class="B"/><path d="M59 181c3-3 7-1 10 0 3 2 6 3 6 7l-1-1-6-4-2 3 3 1v1c-3 0-8-1-8-5l3 2v-2l-1-1h-3l-1-1z" class="E"/><path d="M613 202l22-23 4 4-2 3-20 19-4-3z" class="B"/><path d="M60 182h3l1 1v2l-3-2-1-1zm6 4l2-3 6 4v1l-5-1-3-1z" class="F"/><path d="M708 183l5 5c0 1-2 3-2 1l-3-6z" class="C"/><path d="M618 207l22-22 5 7-22 21-5-6z" class="B"/><path d="M670 195l9-8c1 4-2 7-6 8-1 1-2 2-3 0zm47-5c0-2 2-3 4-3-1 3 0 6-2 9l-1 1-5-4c0-2 2-2 4-3z" class="C"/><path d="M107 197c5-3 12-5 17-1l1 4c0 6 1 13-3 18l-8 7c-6 1-11-4-13-9-1-7 3-13 6-19m0 3l2 3c1 1 3 1 2 3l-5-2c1 2 4 3 7 4 2 1 6 2 8 0-3 0-8 1-7-4l8 3c0-2-2-3-4-4-4-1-7-3-11-3z" class="L"/><path d="M624 214l22-21 4 6-23 21-3-6z" class="B"/><path d="M718 197l1-1c2 1-1 3-1 1z" class="J K"/><path d="M65 203l13-5 5 1c3 6 5 11 6 17H79c-3-1-6-1-8-4l-6-7v-2m9 2h6c1 2 2 3 4 3l-1-4h-3l2-4-8 5m-5 2l4 5c4 1 9 3 13 2l-2-5c-5-2-10-2-15-2z" class="E"/><path d="M682 202c2-2 4-3 6-2l3 2h-9z" class="C"/><path d="M74 205l8-5-2 4h3l1 4c-2 0-3-1-4-3h-6z" class="O"/><path d="M107 200c4 0 7 2 11 3 2 1 4 2 4 4l-8-3c-1 5 4 4 7 4-2 2-6 1-8 0-3-1-6-2-7-4l5 2c1-2-1-2-2-3l-2-3z" class="E"/><path d="M649 202c0-1 1-2 2-1l3 6-23 22-3-8 21-19zm-55 8l11-9 3 2-7 8-17 16-5-3 15-14z" class="B"/><path d="M688 203l9 2v1l-3 10-4-6 5-3h-5l-2-4z" class="C"/><path d="M609 205c2 1 4 3 4 5l-24 23-4-4 24-24z" class="B"/><path d="M69 207c5 0 10 0 15 2l2 5c-4 1-9-1-13-2l-4-5z" class="D"/><path d="M334 211c3 0 4 2 6 3l8 4v1l3 3c-7-1-12-6-17-11z" class="F"/><path d="M591 234l23-23 5 5-23 23-5-5zM618 220l3-2 4 4-18 18-7 5-2-5 20-20z" class="B"/><path d="M145 220l1 1-1-1z" class="G"/><path d="M339 221c2-1 5 0 6 2 1 3-3 7-6 5-2-2-2-5 0-7z" class="F"/><path d="M624 225c3-3 5 2 7 4l-21 19-6 6-2-7 22-22z" class="B"/><path d="M122 225h1c3 3 5 11-1 12l-4-7 4-5z" class="O"/><path d="M421 227l12-2c-4 4-10 5-15 4l-5-2h8zm-85 13l20-15c1 3-1 5-2 8l-10 23c-6 4-13 9-18 15 2 1 3 0 5-1l21-16 14-9c-1 6-6 10-9 15-5 8-13 14-18 22-3 3-9 2-9 6 4 1 8-2 12-3l16-5-11 15-19 14c-4 6-12 9-17 15-5 3-11 6-15 10-5 3-12 4-17 8 1 2 3 2 5 1 7-1 13-4 18-9 5 5 11 10 18 9-1-2-2-4-4-4 14-7 27-17 43-21l11-6c5-4 8-9 13-12l3 1c-1 3-5 5-6 9l-5 7-5 5h4l21-7-7 9c-5 5-11 9-15 15l-3 5c3 2 6 1 9 0 8-2 15-7 23-8l-12 13-14 11c-1 1-2 2-1 4 4-2 9-3 14-3l14 21 9 12c-2 0-5 0-7-2-5-2-11-3-16-6-1-1-2-2-4-1 2 1 2 4 3 6l10 9c8 8 18 15 24 25 3 3 4 7 4 11 0 3-3 3-5 3l-16-4-14-5c-2 2-3 5-2 8l5 10 8 11c-5-3-8-7-13-9h-2l-9-3c0 2 2 3 3 4l12 7c3 2 7 3 9 6-2 10-2 21-3 31v21l2 23 1-1 2 12c4 11 8 22 14 33l7 8c-5 3-9 8-15 9l-22 8-13 4c1 2-1 4-2 7l-8 27-3 5c-1-3-4-4-6-7l-15-19-7-8-5 1-16 5c-9 3-19 5-29 5l-11-2 4-16c4-10 5-22 6-33 0-14-5-26-9-39l-3-11-17-33-2-3c2-2 5-4 5-7l-9 6 1 2-5 6-1-25-2-1c1-2 3-3 2-5-6 4-9 10-15 14l-5 4c2-7 5-13 6-20l6-14 2 2c1-2-1-3-3-5-2 3-6 4-9 7-5 4-10 10-16 13l5-11 6-9c2-5 6-10 6-16-4 0-8 2-11 5-4 3-9 4-13 6 4-5 10-9 12-15l-12-1c-1 1-3 0-3-2l13-8 5 1-3-2 2-2-5-1-8-10c-3-1-5-5-7-7 3 3 8 3 11 4 4 1 7 2 11 1l2-2-8-2c1-1 3-3 5-3l1-2 2-1 1-1 20-11c8-6 17-9 25-13l2 1v-5c-2-4-2-9-3-14 2 0 4-2 5-4-3 0-7 0-10 2-4-1-7 1-11 1l-10 1-21-1c-8-2-17-5-25-4l-15-3c3-2 7-3 9-7-2 1-5 3-7 0l-15-10 6 1c5 1 9-1 14-1 3 0 7 1 8-2l-22-1-13-13c9 4 20 8 30 3l-14-1-7-11h1c6 2 12 4 19 3l17-8c5-3 11-4 15-8l5-3-8 20c-1 2 0 3 1 5l8-2 13-9c5-3 11-6 15-11l-1-13c5-2 11-3 16-6l48-18c7-2 14-4 20-8z" class="F"/><path d="M551 250c8-9 17-16 26-24l4 4-8 9c-7 5-12 11-18 17l-4-2-2-2 2-2z" class="B"/><path d="M120 239c-2-3-3-6-2-9l4 7-2 2z" class="M"/><path d="M556 257l26-26 4 5-26 25c-2 0-3-3-4-4zm64-15l11-10c-4 4-7 8-11 10z" class="B"/><path d="M270 235c4-2 9 2 8 6-1 3-6 5-8 2-3-2-3-6 0-8z" class="E"/><path d="M424 236c3-2 7 1 5 4-1 3-4 1-6 0-1-1-1-4 1-4z" class="F"/><path d="M587 237c2 0 5 3 6 5l-28 26-4-6 26-25z" class="B"/><path d="M124 241c2-1 6-2 7 1l1 14h-5c1-1 3-2 3-4h-5l-1-4 1-3-1-4z" class="O"/><path d="M593 244c2-2 4 2 6 3l-18 18-12 10-3-5 27-26z" class="B"/><path d="M135 244h1v2l-1-2z" class="H I"/><path d="M374 247c6-2 14 1 19 5l-6 4c-3 5-8 8-12 11l-1-19v-1z" class="D"/><path d="M364 256c2-3 2-7 6-9 0 8-1 16 1 23l2 2c5-4 10-6 14-11 2-4 7-5 10-9-3-1-4-2-5-4 3 1 8 2 10 6 4 6 10 11 17 15 2 2 5 3 7 3l6-1 2 5-3 6v10c-2-2-4-7-8-6l-1 8-4 2c-2 0-2 2-3 4l-7 2-10-1-10 2c1-2 2-6-2-6-9 4-14 13-23 16-10 3-21 7-30 13 0-3 3-5 3-8 2-4 4-9 3-13l2 7c2 2 5 0 7-2l1 3h5l2 1 6-1c0-3-2-4-4-4-2-2-5-1-6 1-1-2-2-4-4-4s-3 2-5 3v-6c4-3 7-8 10-12l4-5c2-3 3-7 6-9h-4l-16 4c7-8 15-16 21-25z" class="F"/><path d="M374 248v-1 1z" class="L"/><path d="M530 266l21-20v4l-2 2 2 2v3l-4-3-13 13-4-1z" class="C"/><path d="M571 277l28-28 3 6-11 12-17 15-3-5z" class="B"/><path d="M347 251h4l-6 4 2-4z" class="F"/><path d="M124 254c4-2 2 5-1 2h1v-2z" class="D"/><path d="M534 267l13-13a555 555 0 004 6l-7 6-20 20-6-3 16-16z" class="B"/><path d="M150 259c1 0 3 0 3 2-1 1-4-1-3-2z" class="H I"/><path d="M544 266l7-6v2l-4 4h-3z" class="C"/><path d="M551 262l3-2 3 3-24 25-4 3-4-4 22-21 4-4z" class="B"/><path d="M193 262c4-2 8 2 8 6-1 3-6 6-9 3-3-2-2-7 1-9z" class="E"/><path d="M126 277l15-13 3 9 7 9 1 8 6 7 1 7-9-2c1 3 4 5 7 7l11 11h-10c0 2 2 2 3 2 5 6 11 10 17 14-4 1-7 6-12 7-10 4-20 10-28 17l-15 9-14 10c-11 7-21 15-30 23l-2-4-5-3 4 5c4 12 8 25 7 38l2 17-2 15c0 3-2 5-3 8s-5 5-8 5-7-2-9-5c-5-7-10-15-12-24-4-13-6-26-7-40l-2-21-1-12v-6l-6-7-12-22c4-5 10-7 16-10 7-4 14-10 22-13l10-7c10-8 21-14 31-21 8-6 17-11 24-18m-12 51c-5-3-9-8-15-10v3l2 15-16 5 1 5 18 1 2 15 2 4c2-1 4-3 4-5 2-5 4-10 4-15 5 2 12 3 16-1h3c-2-5-9-5-11-9l3-19c-6 2-9 7-13 11z" class="C"/><path d="M558 265l5 6-20 19-9 8-3-6 27-27z" class="B"/><path d="M236 271c3-2 6-3 10-3 3 4 5 10 5 16-10 8-21 16-33 20l6-16c2-7 7-12 12-17m-1 6c-1 1-2 3 0 5 2 0 5 0 5-3 0-2-3-3-5-2z" class="D"/><path d="M252 270c1-2 3-2 4-2-1 1-2 3-4 2z" class="L"/><path d="M536 299l28-27 3 6-27 26-4-5z" class="B"/><path d="M235 277c2-1 5 0 5 2 0 3-3 3-5 3-2-2-1-4 0-5z" class="E"/><path d="M567 279c3 1 3 4 5 5l-16 15-13 11-3-5 27-26zm-75 28l24-23 6 4-24 24-6-5zm0-4c6-5 10-11 16-14l-18 18c-3-1 1-3 2-4zm8 9l23-22 4 3-10 10c-5 4-9 10-15 14-1-1-4-3-2-5z" class="B"/><path d="M170 294c2 0 4 0 4 2l-3-1-1-1z" class="F"/><path d="M527 295c3 1 4 3 5 6l-24 23c-1-2-4-4-4-6l23-23z" class="B"/><path d="M167 298c-4 0 0-4 1-1v1h-1z" class="C"/><path d="M525 310c3-3 5-6 9-8l3 4-15 15-11 9-2-5 16-15z" class="B"/><path d="M396 306c2-1 5-2 8-1 6 3 13 3 19 6l10 7c3 5 7 9 9 15 4 8 9 16 11 25l9 29c6 15 10 31 18 45-7 0-15-2-22 2l-18 7c-4 2-9 5-12 9l-3-8c7-3 4-11 1-16l-15-19-14-13-4-3 18 6c3 1 4-3 3-5l-10-15-9-11c-2-2-2-4-2-6-3-2-5-2-8-2l12-12c4-4 8-9 10-14-5 0-10 3-15 5l-16 5c0-5 5-8 8-11l15-15-2-3c-6-1-12 1-17 3l5-8 11-2z" class="G"/><path d="M481 312l7-5c1 2-1 3-2 4l-17 17-3-2 15-14zm33 18l24-22 3 4-13 13-13 12c-1-2-3-5-1-7zm-43-2l19-18 5 4-19 19-3-2h4c-1-2-4-2-6-3z" class="B"/><path d="M436 315l1 1-1-1z" class="H I"/><path d="M480 332l17-16 3 4-15 14c-2 2-4 4-7 2l2-4z" class="B"/><path d="M114 328c4-4 7-9 13-11l-3 19c2 4 9 4 11 9h-1c-6-2-11-4-15-8 4-4 3-10 5-16-3 4-7 7-11 9l-12-9 4 15c-5 4-12 7-18 8l19-1 3 20 5-18c0-2 3-1 4-1l14 1c-4 4-11 3-16 1 0 5-2 10-4 15 0 2-2 4-4 5l-2-4-2-15-18-1-1-5 16-5-2-15v-3c6 2 10 7 15 10z" class="E"/><path d="M101 321l12 9c4-2 8-5 11-9-2 6-1 12-5 16 4 4 9 6 15 8h-2l-14-1c-1 0-4-1-4 1l-5 18-3-20-19 1c6-1 13-4 18-8l-4-15z" class="M"/><path d="M484 338l17-17c2 1 3 4 4 6l-18 17-3-6zm38-5l11-10c-3 5-7 8-11 12-2 2-3 4-6 5 1-3 4-5 6-7zm-35 13l19-18 3 5-19 18-3-5zm3 7l20-19 3 5-20 19-3-5zm3 7l21-19 1 2-7 7c-6 4-9 9-14 13l-1-3z" class="B"/><path d="M143 359c9-7 19-11 28-17l7 10c4 7 8 14 10 21-3-1-4-5-7-4-3 3-9 2-10-2l-5-10h-4l-1 3c-2 0-5-1-6 1-2 3-5 4-8 6l-3-1c-3 3-6 7-7 11l-6-1-5 4c-3 0-6-2-9 0l-1 11c-4 2-9-3-12 0l1 6 2-1v4h-6v7l-8 2c-1 5 4 8 4 13l-8 1c-2 0-2 2-3 4-2-8-3-16-6-23l21-17 16-10c8-7 18-11 26-18z" class="P"/><path d="M176 342c4 0 7 4 12 4 3 9 9 17 12 26 1 2 0 3-2 3 0 3-1 5-3 6-2-3-3-7-3-11l-2 1-7-19-7-10z" class="C"/><path d="M192 347l7 1v11c-3-3-5-8-7-12z" class="M"/><path d="M199 348l2 6-1 8-1-2v-12z" class="G"/><path d="M201 354l3 7-3 5-1-4 1-8z" class="H I"/><path d="M156 364c2-3 6 0 8-3 1 4 4 7 6 11 3 3 8 3 10-1 3 3 6 7 10 6l2 3-1 3h4c3-2 6-5 7-8-1 4-3 7-3 11l-2-1 1 4c3 2 6 5 10 5 0 3-3 2-4 2v-3c-4 2-8-1-12-3-1 7 5 10 8 15l-3 10-3 12 1 1c-1 3-1 6-4 8-5 5-11 8-14 14l3 1 4-6c3 5 5 12 12 13l-1-3 1 1c2 13 3 27 2 41v35l-2 1-2-1-1 2h-5c-2 0-2-3-3-4-2 1-2 3-3 5-3-1-3-5-5-7-3 0-2 3-2 5l-3 2-4-2c-1-2-1-5-3-6-1 3-5 4-8 5l2-10-5 2c-2-2-2-5-3-7l-6 1-2-5 3-4-9 3c3-5 4-12 5-18-4 1-6 5-10 6l4-7 11-6 4 5c-1-7-5-13-9-19l1-6-6 6c-2-1-2-4-4-4-2 4-3 8-7 11l-3-8-3 5-5 4c0-4 0-8-2-11l-2-1-2 3 1-3c-4 1-6 5-9 8 1-6 5-12 3-18-2 3-5 7-10 7-4-6 0-13 1-20l-3 4c-2-3-5-6-6-10 0-5 2-9 3-14 5 2 10 0 12-5-3-3-4-7-5-10l9-1c-2-2-1-5-1-8 2 1 4 2 5 0 2-2 1-6-1-8l3 2c4-1 6-3 9-6v-7l6 2 5-6c2 1 5 2 7 0l7-10c2 2 4 2 7 1l-1-3c2 0 4-1 5-3m-8 37c3 3 7-1 10-2 1 3 4 5 6 3s0-4-1-6c1-1 4-2 2-4-6 2-12 6-17 9m-7 17l-2-1c0 3 3 3 5 4 3 1 5 3 8 3 1-4-1-7-4-10l-6-2c-2 2-3 4-1 6m-30 1c-3 1-6 2-6 5l11-4c0 1 1 4 3 3 3 0 1-4 0-5l6-4c-5-1-10 3-14 5z" class="F"/><path d="M204 380c3 3 4 7 6 11-3-1-6-1-8-3l2-8z" class="C"/><path d="M148 401c5-3 11-7 17-9 2 2-1 3-2 4 1 2 3 4 1 6s-5 0-6-3c-3 1-7 5-10 2z" class="E"/><path d="M203 409l5 5c0 2-2 2-3 3l-5 3 3-11z" class="G"/><path d="M141 418c-2-2-1-4 1-6l3 1 5 7v2c-3-2-6-4-9-4z" class="D"/><path d="M111 419c4-2 9-6 14-5l-6 4c1 1 3 5 0 5-2 1-3-2-3-3l-11 4c0-3 3-4 6-5zm34-6l3 1c3 3 5 6 4 10-3 0-5-2-8-3-2-1-5-1-5-4l2 1c3 0 6 2 9 4v-2l-5-7z" class="E"/><path d="M197 430c4 2 9 0 13 0-5 3-8 8-13 12v-12z" class="G"/><path d="M398 445c-3-3-3-8-5-12l15 6-5 16-5-10z" class="F"/><path d="M209 444c6-2 10-6 15-8l-12 18c-3 5-4 11-7 15-1 1-1 4 1 3 4-1 8-1 11-4l14-13-10 25-3 12c4 1 5-4 8-5 7-2 10-9 15-14v28c0 2 2 3 4 2v43l1 10v36c-1 3 1 7 1 10l-1 20-4 23-3 6c6 3 8 9 8 15l-2 17c-3-2-4-5-7-6 1 5 6 10 10 14 5 5 11 10 18 10 2 3 0 6-3 8l-4 4-12-6c-5-5-10-10-13-16-2-2-3-6-6-6 3 7 8 13 12 19 4 3 6 8 11 10 6 3 13 0 19 2v6c-4 2-8 4-12 4l-18-5c-5-3-8-8-11-13-4-5-4-13-5-19 0 1-2 2-1 3 0 5 0 10 2 14 2 6 4 12 10 15 5 5 13 8 20 8 2 0 5 0 5 2-4 3-10 6-15 5l-14-10c-6-4-10-9-14-14-3-6-3-13-4-19v11c0 3 0 7 2 10l5 7c3 4 9 6 13 9l11 9-8 6-15-8c-11-8-18-20-18-33-2 2-2 4-2 7l3 12c-3 1-6 2-9 0-4-6-3-13-2-19 0-3 0-6 2-8 4-5 2-11 3-17 2-12 2-24 2-36l1-17c0-18 2-37 0-55l1-24-1-36v-24l-3-37c3-3 7-5 11-6z" class="G"/><path d="M409 440c2-1 3 2 1 2-1 2-2-1-1-2zm4 1l6 1c-5 3-8 8-12 11-1-5 4-8 6-12zm-7 18l17-16c2 3 3 7 3 10-2 8-6 16-4 24 1 5 5 9 11 9 0 4 1 7 3 9 1 2 5 1 5 4 1 4 4 8 8 11-2 4-2 9 0 13 1 3 4 4 6 4-2 5-7 7-11 10l-20 7h-18l-1-6c-3-13-6-26-4-39l3-33h5l-3-7z" class="B"/><path d="M97 469c0-3 5-2 2 0h-2z" class="F"/><path d="M120 481l1-1 1 1h-2z" class="C"/><path d="M469 511c2-7 8-12 12-18l11 4 13 1 5 11c1 3 4 4 4 7 4 16 11 31 16 46l6 18 8 22 2 6c-2 3-5 5-5 9l-2 9c-1 4 0 8 1 12l3-1 2 6 4-1 3 3 4-1v3l2-1h1l-1 3 5-2c2-4 2-9 3-14 6 6 13 12 22 14 2 5 5 9 5 14l-10 25c0-4 0-8-2-11l-7-15c0-2-2-2-3-2l2 5c4 6 6 14 8 21 1 5-1 10-1 15l-2 12c-4 2-8 1-11 1 1-7 5-13 4-20 0-5-3-8-5-12-2-5-3-10-7-13l7 18c1 4 4 9 2 13l-3 13-4 13c-4 1-8 0-11-2l8-16c2-6 0-13-2-20l-11-16-1 1c2 6 5 11 9 16 3 3 3 8 4 12-2 9-8 16-12 25-1 4-4 7-8 7-3 0-5-3-6-5l7-14c5-6 7-15 3-22-3-5-5-10-6-16l-1 2c-2 9 8 16 6 25-2 6-5 11-9 16-3 6-5 12-9 17-1 2-4 1-5 0-1-2-2-5-1-7 4-5 8-9 8-15l1-10-6-19c5-5 2-12-1-18-2-3-5-5-4-9 0-3 1-6-1-8l-8-16c-3-7-5-15-9-22-3-2-4-6-5-10l-9-15c-3-9-8-17-10-26l-5-15c-1-8-6-13-7-21 4-3 6-8 9-12z" class="G"/><path d="M250 494c5 6 8 14 12 21l-4 1-7-13c-1-1-3-3-3-5l2-4z" class="B"/><path d="M104 522c8-9 17-16 26-24 0 1-1 4 1 4 3 0 5-2 7-3-1 5-3 10-2 16l5-2c-1 2-2 5-1 7h4c2 1 4 0 5-1 0 4 2 7 5 9v8c4-1 7-1 10-3 1 2 1 4 3 5 3 1 7 2 10-2l2 3c3 0 5-2 6-3 4 1 8 3 11 1l1 1 1 8c1 9-1 18 1 27l-1 40-10-2c-6-2-12-6-19-7 5-13 11-25 15-38l1-12-2 2c-8 2-16 5-23 9l-11 5-1-4c-4-9-8-18-10-28 0-1 0-3-2-3 1 12 6 24 11 36-3 1-6 3-9 1l-20-11c-4 0-8-4-11-6l-3-33z" class="P"/><path d="M248 505c2 0 3 3 4 4l4 9c-1 1-6 3-3 5l7-2 4 6c-2 2-5 3-5 6l7-2 5 8-7 4-2 3 11-2c1 4-1 11-6 11l-7-5c-4-4-4-10-8-14-3-2-2-6-4-9v-22z" class="L"/><path d="M260 519l3-2 4 9c-3-1-5-5-7-7z" class="B"/><path d="M196 537c0-2 3-1 2 1h-1l-1-1z" class="C"/><path d="M461 537c3 4 4 10 6 15l12 31-4 5-1 1c-3-3-5-9-10-11-3 3-4 7-6 11h-1c-2-3-5-6-9-4-5 5-5 13-8 19l-11-15-3-6-2-21c5 4 10 11 17 11l-4-3c5-6 8-12 11-18 1 2-1 6 2 8l1-6c4-1 7-4 9-7l1-10z" class="N"/><path d="M250 539c3 4 5 10 9 14 3 3 7 5 11 5l6-4c2 12 5 24 3 36l-8 33-5 12-18-8 2-17v-27l-1-9 1-35z" class="B"/><path fill="#1c1c1c" d="M87 546c10 9 20 20 34 22l15 6-2 3c3 2 7 0 10 2l8 2-6-5 6-2 14-7c5-3 10-6 15-7v6l-15 35h-7l4 4c6 4 13 10 21 12 4 2 9 0 14 0l-1 12-4 3c-4 1-7 4-10 6-8 3-15 9-23 13-1-1-1-3-3-3l-1 4v44l-9-9-23-17 5-5h-13c-3 5-8 5-13 7-10 5-20 7-31 10l5-14c4-9 7-18 9-28 0-2-1-3-2-3l-3 5 1-4 2-2 5 1-4-4c-7-4-14-6-22-8l-17-5c11-4 23-6 33-13l8-5v-56m33 43l-7 3c-2 1-5-1-6 1l-8 8c-3 4-7 7-7 12-1 8 3 15 8 21l9 10c4 5 11 7 17 6l10-3c5-1 10-4 13-8 4-4 4-9 5-14 2-7-1-14-3-22-1-5-6-8-11-10-6-3-13-5-20-4z"/><path d="M460 589c2-3 2-7 5-9 2 3 5 6 6 10 1 2 4 3 6 4 2-3 2-6 1-9 3-1 3 2 4 4 7 19 16 36 24 54-3 4-6 8-11 10l-8 2 2 4 1-3 3 1c4-1 7-5 11-7 1 2 2 5 5 6v6l2 4h-1c-2 2-5 0-6-2l-1 3c-2 2-4 2-7 3l-2-5-2 3-7 6-6 2c-1-4-2-8 0-11-4 1-7 5-11 5l-4-16-4-11-10-21c-3-5-7-9-8-15 1-5 3-9 3-14 1-2 2-5 4-6 2-2 5 0 6 1l4 9 1-8m-5 22c-3 2-1 8 3 6 3-2 1-9-3-6m32 5c-3 2-1 8 3 7 4-2 1-8-3-7m-14 8l-3 3h1l1 10c5 3 8-5 7-9-1-2-4-3-6-4z" class="F"/><path d="M475 588c3 0 0 5-1 2v-1l1-1z" class="L"/><path d="M120 589c7-1 14 1 20 4 5 2 10 5 11 10 2 8 5 15 3 22-1 5-1 10-5 14-3 4-8 7-13 8l-10 3c-6 1-13-1-17-6l-9-10c-5-6-9-13-8-21 0-5 4-8 7-12l8-8c1-2 4 0 6-1l7-3m-1 7l-2-1c-6 2-10 6-15 10-4 4-7 10-5 16 3 6 6 11 11 15 2 4 6 6 10 7 5 3 10 2 14 2 5-4 11-6 15-11 3-6 4-13 2-19v-2h-1c-1-4-3-9-6-12-5-6-13-9-21-7l-2 2z" class="C"/><path d="M396 609c12-3 22-9 31-16 6 5 9 12 13 18-5 5-11 8-17 10-10 2-18 8-28 9h-11l-10-2 4-14 18-5z" class="D"/><path d="M119 596l2-2c8-2 16 1 21 7 3 3 5 8 6 12l1 2c2 6 1 13-2 19-4 5-10 7-15 11-4 0-9 1-14-2-4-1-8-3-10-7-5-4-8-9-11-15-2-6 1-12 5-16 5-4 9-8 15-10l2 1m4 16l-4 5c-1 5 3 10 8 11 4-1 7-6 7-10-1-5-6-8-11-6z" class="F"/><path d="M545 614c1-3 3-4 5-6 5 4 12 8 15 14l-1 1c-3 8-1 16-5 23h-1c2-6 4-13 3-21-4 5-5 11-9 16 0-6 5-12 3-19l-3 3c-2 5-2 10-6 14l4-18c1-2-1-2-2-1-3 5-3 11-6 15-1-7 1-14 3-21z" class="N"/><path d="M123 612c5-2 10 1 11 6 0 4-3 9-7 10-5-1-9-6-8-11l4-5z" class="C"/><path d="M455 611c4-3 6 4 3 6-4 2-6-4-3-6z" class="E"/><path d="M148 613h1v2l-1-2z" class="L"/><path d="M417 627c9-3 18-6 25-13 3 6 8 12 10 19l-3 2-16 9c-6 4-14 6-22 6h-25l-19-1 6-18c7 3 14 5 22 2 7 0 15-3 22-6z" class="D"/><path d="M487 616c4-1 7 5 3 7-4 1-6-5-3-7z" class="E"/><path d="M295 631c13-1 26-6 38-12l10 15c-10 6-20 10-31 14l-14 2-1-1c-4 2-9 2-14 2l-16-2c-1-6 3-13 4-19l13 2 11-1zm178-7c2 1 5 2 6 4l-5 3-1-3-2-1h-1l3-3z" class="D"/><path d="M471 627l2 1 1 3 5-3c1 4-2 12-7 9l-1-10z" class="E"/><path d="M248 631c5 3 11 7 17 5-2 6-4 13-3 20l3 30c4 6 6 13 8 20h-3c0-2 1-5-1-7s-5-1-8-2l-5-7v3c-4-1-7-4-9-7l3-12c1-8-1-18-7-24 1-6 2-13 5-19m6 38l2 2c0-2 0-2-2-2zm-65-29l9-7-2 35c-1 6 0 11-2 17l-4 12c-1-9-3-17-2-26 0-9-4-17-8-24l9-7z" class="P"/><path d="M344 636l5 4c1 4 4 6 6 10l-9 7c-7 4-14 9-22 12l-32 7h-11l-14-1v-22c18 4 36 1 54-4l11-5c5-2 8-5 12-8zm86 14c9-3 17-7 25-12 2 8 6 16 7 24l-7 2-17 8-21 6c-6 1-13 1-19-1-10 0-20-2-29-7l-4-14c-1-2 0-3 1-5 8 2 16 3 25 3l15 1c8 0 16-2 24-5z" class="D"/><path d="M507 648l2-2 1 5c-2 0-3-1-3-3z" class="N"/><path d="M356 652l3 1 2 3 4 14-24 15c-9 5-19 10-30 11l-36 3-2-3-6-18c8 3 15 2 23 1l29-5c9-2 17-7 25-10 5-2 7-9 13-10l-1-2zm84 23c8-4 16-7 23-12l3 24c-7 4-14 7-21 8l-11 4-31 1c-7 1-15-2-22-3l-6-2-4-21c5 3 11 5 17 6 5 1 10-1 14 2 9 2 17 0 26-2l12-5z" class="D"/><path d="M510 666h1v3l-1-3z" class="L"/><path d="M254 669c2 0 2 0 2 2l-2-2z" class="C"/><path d="M504 669l5 1-8 5 3-6zm-36 4l7-3c0 3 0 8 4 8 6 0 10-4 14-8 1 1 2 3 4 3l4-1c-5 10-8 21-10 33-2 4 0 8 1 12 1 9 3 18 7 27l1 2-15 5c-6 1-11 0-16-1l-5 8v-4l3-2c-1-1-2-2-3-1 0-3 0-6 2-8 5-7 7-14 10-22 1-7 2-16-3-23l-3-1c0-5 1-11-1-16l-1-8z" class="N"/><path d="M343 688c8-5 16-10 22-17 4 7 4 14 6 21-3 7-10 10-17 13-6 3-11 7-18 8-9 2-18 5-28 5-9 2-17 1-26 2l-7-19c7 2 15 2 22 1 10-2 20-1 29-6 6-3 12-4 17-8zm112 8l11-7 1 7h-12zm-83-1c3 9 4 19 5 29-14 7-30 13-45 19-13 3-26 4-40 3l-9-23c11 1 24 1 35-2 7-1 15-1 21-5l10-3c8-4 15-9 21-15l2-3zm3 2c9 5 20 7 30 7 12-1 24 1 35-3-3 4-6 8-7 13s3 9 5 13h-12c-7 1-14-1-21-1l-25-3-1-10c0-6-2-11-4-16z" class="D"/><path d="M444 700c2-2 6-1 8 0 7-1 13 1 20 1 2 8 0 17-1 25-2 4-3 8-6 11v-9l-3-2-12 10 2-9 5-10c-5 3-7 9-10 14-3-2-2-5-2-8 1-5 5-9 8-13l2-3-4 2c-5 4-8 9-10 15l-1-1c-1-5 2-9 4-13 2-3 6-5 7-9-8 2-10 10-15 16-1-7 4-12 8-17z" class="N"/><path d="M267 710l3 1 1 1-6 1 2-3zm95 25c6-2 11-6 16-10l2 10h1l1-2-1-2h2l-2-5c8 3 16 4 24 4 12-1 24 3 36-1 1 3 3 5 6 4 0 3-1 8 3 8l12-12-2 24c-12 4-24 6-37 6l-12 1c-8-2-16-5-23-9l-5-20c-2 2-3 6-1 8 2 3 2 6 3 10-6 3-11 8-17 9-12 3-23 11-35 13l-15 2-12-3c-2 0-2-2-3-3l-9-18c15 3 31 0 45-5 8-2 15-6 23-9zm-163-7l7-2 7 8c-4 0-8 0-12-2l-2-4zm65 2c3 0 5-2 7-3l3 10c-9 5-19 8-29 11-6 2-12 1-18 2l-18-2-4-11c3 1 7 0 10-1 6 4 11 10 17 13 4 1 8-1 11-3 2-3 5-6 8-6 6-1 11-4 13-10z" class="D"/><path d="M275 733l1 3c-1-1-2-2-1-3z" class="J K"/><path d="M245 739c3-1 0 3 0 0z" class="L"/><path d="M266 744l8-5c2 4 1 8 2 12-7 6-15 11-24 13-12 4-25 5-37 2-3-4-4-10-5-15 11 4 23 3 34 1 8-1 15-4 22-8zm204 9c9 6 22 4 29-4l-3 19c-11 1-21-3-29-9l3-6zm-97 7c4-3 9-5 13-9 1 9 4 17 6 25-6 4-12 9-19 12s-15 7-23 8l3-3c-5 2-11 2-17 3-7 2-13 2-20 2l-10-25 12 3h12c7-1 13-4 19-7 9-2 17-4 24-9z" class="D"/><path d="M500 759l2-7-2 7z" class="J K"/><g class="D"><path d="M263 765c5-3 10-7 14-12l4 17-19 11-14 5-9 1h-17c-3-6-6-11-6-18 9 4 19 1 29 1l18-5zm126-10c9 6 20 10 31 8 14 0 28 0 40-6l1 18c1 2-1 2-2 2l-20 8c-7 1-13 0-20-1v2l-7-1-16-8-7-22zm77 6l8 5c6 4 14 6 22 4l-7 17c-8-3-16-8-22-14-4-3-2-8-1-12z"/><path d="M281 771l4 19-13 8c-4 2-7 5-12 6-10 3-20 5-31 5l-7-19h21l15-4c8-4 17-8 23-15zm184 5c6 6 13 12 22 14-3 4-3 9-6 13h-1c-6-2-11-5-16-9l1-18zm-72 2l5 26c-5 2-8 6-12 9-7 5-16 7-23 9s-13 5-20 6h-16c-3-9-4-19-9-27 8 2 15 1 23-1a75 75 0 0044-15l8-7zm47 10c7-1 15-4 21-9l-1 29-1 2h3c-2 2-1 4-1 6l1 21c-6 4-13 7-20 9-5 2-10 2-15 1-8-2-17-5-25-9l-2-27c7 6 16 10 25 10 6 0 12 3 18 1 7-2 11-6 16-10l-1-2c-7 4-14 9-22 9-6 1-11-2-17-3-7-2-13-6-18-10 0-8-3-17-5-26 6 5 13 9 21 10l11 1c4 1 8-1 12-3zm-163 11l9-5c2 6 2 13 2 20l-13 12c-3 2-6 4-9 4l-17 5h-10l-8-24c10 2 20-2 30-4 6-2 11-4 16-8zm187-1c4 4 10 8 16 7-4 4-4 10-7 14-3-2-6-3-8-6l-1-15zm-68 9l1 1 1 14c0 6 2 12 0 18-5 3-10 6-13 10-3 3-7 3-11 5-12 5-25 4-38 2-2-9-7-17-8-26 9 4 19 3 28-1l10-5 15-6c6-3 11-7 15-12zm-168 4l3 9-3-9z"/></g><path d="M288 817l1-1v4c1 3 0 6-1 8l-4 1-2 7-5-1-2 6-5-1-1 9-4 6-4 2-4 8-1 12c0 2-1 5-3 3l-10-11c-2-3-1-7-1-10l5 12v-2l1 1c-1 3 3 7 6 7l1-19 3-2 1-2 1-1 3-1c0-3 2-6 4-9l1-8 6 1 2-6 4 2 2-7h6v-8z" class="J K"/><path d="M280 825l8-8v8h-6l-2 7-4-2-2 6-6-1-1 8c-2 3-4 6-4 9l-3 1-1 1c-5 1-10 3-15 2-3-5-3-12-5-18 8 1 15-1 23-3 6-3 13-5 18-10zm185-5l6 3-1 7h-4l-1 3v-13z" class="D"/><path d="M231 821l1 2-1-2z" class="J K"/><path d="M442 850c8-2 16-5 21-12 0 3-1 8 3 10l2 2v5c-3-2-5-1-8 0l11 4c8 3 16 3 23 4-2 3-6 3-10 3l-27 3c-3 2-5 5-9 6l-15 5-8 3-7 1-13 1c-7 1-14 1-21 5l-15-5 16-4c6-3 13-5 19-10 1 3 1 7 4 9 1-3-1-7-2-10l2-4-3 1-2-25c6 3 11 6 18 8s14 0 21 0z" class="D"/><path d="M466 840l5 1-1 7 6 2c0 1-2 3 0 4 4 3 9 6 14 6h24c-11 6-24 7-36 9l-12 3c-5 3-11 3-16 5-6 2-12 2-17 5l-9 6c-3 2-7 2-10 3-3 0-6-2-9-1-10 2-20 3-29 2l-9-7h2l15 5c7-4 14-4 21-5l13-1 7-1 8-3 15-5c4-1 6-4 9-6l27-3c4 0 8 0 10-3-7-1-15-1-23-4l-11-4c3-1 5-2 8 0v-5l-2-2v-8z" class="J K"/><path d="M388 853l12-9 3 24-18 9c-6 2-11 4-17 4l4-1v-1h-26c-4-6-7-14-9-21 6 3 12 4 19 4 11-1 22-3 32-9zm-144 5h11l-1 19c-3 0-7-4-6-7l-1-1-3-11zm103 24h5l3 2-5 3-3-5z" class="D"/><path d="M355 884l4 1v8l6 7h-8c-2-3-1-7-4-10l-3-3 5-3z" class="J K"/></svg>