<svg viewBox="0 0 900 900" xmlns="http://www.w3.org/2000/svg"><style>.B{fill:#9d3300}.C{fill:#696969}.D{fill:#f0b402}.E{fill:#373737}.F{fill:#fff}.G{fill:#f6223c}.L{fill:#a0685f}.M{fill:#ca000a}.N{fill:#f3237e}.O{fill:#eb610a}.P{fill:#1155db}</style><g class="E"><path d="M562 29l5 8c6 10 8 22 14 32 6 11 13 22 21 31 8 5 14 12 20 19l15 16c1-1 2-1 1-3l-3-7-4-2-4-11h17s0 8-3 12l3 6c3-1 6-1 8 2l10-9-3-4 3-1c-3-5-8-7-11-12 1-3 1-8 4-9 4-1 8 0 11 2l-1 15 5-3 3 1 5-5-2-5 5 4v-7l-4-5 2 8h-2c-2-5-5-8-8-11-5-4-9-10-15-13s-10-8-15-12l-13-13 7 4 30 26c5 2 8 7 11 10l-3-14c-4-12-2-28 8-38l-3 6c-3 6-4 12-5 18l1 8 4 16v-4l4-1c4 2 7 9 5 11l1 3s-8 4 7-5l17 6c18-13 38-24 58-33 10-6 21-11 32-15 8-4 16-10 26-9v2l-115 56 20 17 9 12c2 5 4 10 4 15l3-1c-1 4-7 11-7 11l-30 27 6 6 6-3 2 8c0 4-3 7-7 8l-7-4-5-11c-4 5-9 8-14 12 2 1 4 5 7 5 12 2 24 7 35 12 5 3 11 4 16 8 4 3 9 5 13 9 5 3 10 7 13 12-7-2-10-10-17-12-6-3-11-9-18-11-10-4-19-10-30-13l-13-2v1l2 2-3 9-2 1v3l-5-7c-1-2-1-5-3-6l-3-6h-1l-12 5c-5 3-11 5-17 5l-8 9-15 16c-10 10-22 18-31 29l-72 69c-11 10-20 21-32 31 7 12 12 26 16 39 3 7 6 14 7 21 2 8 5 16 5 25-1 6 3 11 4 17l1 14v7c-2 6-3 12-6 17l-5 10c3 12 8 24 13 37 3 9 6 19 11 29l8 23 9 5 1-2c3 4 6 14 6 14l-1 1s1 7 4 9c6 7 14 11 22 15 4 4 7 10 6 16-1 8-6 14-8 22-2 3-4 5-4 9-1 7-2 14-5 21-4 1-8 2-13 1l-3 9-3 4c-4 1-8-2-12-4-2 3-3 6-6 8l-1 2c-13 3-6-9-16 1l-2 3h-2l-6-2c-2-2-2-5-3-7l1-5c4-1 5-4 7-7 3-5 2-11 1-17-1-7-5-13-7-20l2 1 1-8-3-5c-4 4-9 6-13 9-2 1-2 3-3 5l-6 22 1 6 6 27c1 2 2 5 4 6l-1 8-2 7-1 8 2 1-2 1c-1 10-7 18-11 27l-12 24 2 1c-4 2-4 8-7 11-1-14-6-15-6 1l1 7v8s-54 35-63 37h-44l-4-1-8-2 3 5 2 2 1 5-3-1c-8-12-13-25-19-39l-8-29-3-14-6-11-8-17c-2-5-3-10-7-13v-2c-6-10-10-21-14-33l-11-24h-4l-3-1-2 3 6-1 3 6v8l1 7c-1 1 0 2 1 3h1c-2 2 0 5 0 8l3 15c3 10 4 21 8 31 1 6 1 13 3 19v14l-2-3v-4c-6 7-10 14-15 15-10 2-11 18-15 23l-1 2-3 2-8 13-5-12-10-36-1-2v-1l-3-9c-6-12-10-25-14-38l-17-43-6-8-5-15c0-5-2-9-1-14v-22l-8-22-17 7 1 34-2 12-20-13c-8-5-15-10-21-17l-24 9c-8 3-16 3-24 4-2 1-3-1-3-3l5-11c4-9 9-29 9-29l1-5-46-18 3-2c10-5 33-11 33-11l10-6v-18l2-36c0-2 0-5 2-6l1 4c6 0 13 8 13 8l4 1-2-16-1-13 1-7 12-10 19-16c4-2 8-5 13-5l-6-12-1 3c-1 2-4 1-6 0-1 2-2 4-5 5l2 1-3 2c-2 0-5-2-5-4l-1-1-1 1c-2 2-4 3-5 6-1-1-4-1-4-3l-1-11c-2 3-6 4-9 6-4-2-2-10-2-10h-2s-5 0-8-2c-1-4 0-9 2-14l-4-3c1 10 1 22-5 31-1 3-4 3-6 4-4 1-8-1-12-2-3-1-5-5-7-7l-6-9-5-24c-2-9-5-18-5-27v-2l-2-38-9-12c-3-4-3-10-7-14-1-2-3-3-3-5l11-7 14-8c-1-4-3-8-2-12 1-5 4-9 6-13l7-13 11-13 9-9-2-1 4-3-6-15-8-5v2l-13-10-7-7c-4-3-4-9-6-13l3-2 3 1-6-21 8 3c-1-9 0-18 4-26 1-5 0-10 2-15l4-16-1-2c1-1 3-3 4-1 4 3 7 11 7 11l38-42s6-1 7 2c4 5 3 13 4 19l10-8c2-1 4 1 5 3 19 31-4-15 24-27l1 3c-6 7-12 16-11 26-1 2 2 2 3 1l8-6c5-3 8-10 14-11l-5 15c-3 5-1 11 0 16l5 19 7-22 12-21 1-1v-2l5-9 7-12 9-13 10-10-1 26c-2 13-1 26 1 39l1 13 7-12 1-1 1-2 1-1 19-22v-2l19-19 16-12c2-1 4 0 5 1-1 9-4 18-7 27l-3 20 3 24 2 4c3-9 10-15 14-23l19-27c2 0 3-2 4-1l-1 11-1 26 8-13c7-13 17-24 25-37l6-8c5-7 10-14 18-18-1 4 0 9-2 14l-2 9-8 28 9-7c4 0 6-3 9-5l22-21 34-22c4-1 8-4 12-2l-1 8-11 26c-2 7-7 13-9 19-5 1-3 9-6 12l-13 8 20-9c6-4 13-6 18-10l-4-1 17-10 39-14c1 9-2 18-7 25-4-1-5 3-6 6-6 10-12 19-17 30-3 6-12 7-13 14 6-3 11-8 17-12l15-10c8-6 17-11 27-11 0 6-4 11-7 16-6 10-16 17-23 26l-5 10s-22 50-36 71v15l2-1 1-12-2 37c0 2-2 4-4 4-4-3-4-10-7-13l-4 16c0 2-3 2-3 0-6-13-4-7-4 3-1 3-4 0-5-1l-5 4 11 4 10 7 1 1c8 4 17 5 26 9l11-10 77-69-9 13 9-13 21-19c2-4 6-6 9-9l41-41c2-1 3-3 3-6l5-18c1-3 5-4 7-6l-4-6h1v-2l1-3-14-14-9-10c-5-4-11-9-15-15-5-8-12-15-17-24l-12-28c-2-5-5-10-6-16m-4e2 89c0 3-1 6 1 9 0-5 2-9 4-13l-5 4m-19 89h2l-5 10 3 1 7 7v3l-7-1 6 6-8 6 3 2c-1 4-5 3-8 3h-1l1 2-2 7 2 3c5 0 14 3 14 3l3 2 4 3-3-22c-2-7-2-15-3-22l-1-24-7 11m92 167s14-13 16-17c2-3 4-6 8-8-11 2-21 4-32 3l-24-3 4 9c2 2-2 5-3 3l-3-7-2-6-7-1c2 4 4 9 7 12v1l1 2 1 4c1 3 4 4 4 7l10 17 19-15M117 251l2 5 4-1 1-2-4-4-3 2m364 60c-27 28 21-15 0 0m-165 12 15-7 3-4 2-5-20 16m192 26 7-7M194 449c1-4 2-7 1-11l-7 5 7 11m257 82c-11 6-22 11-34 12l-11-1 4 13 6 14c1 3 4 5 6 7-1-7-4-15 0-21l4 1 9 7c5-6 6-14 9-21 2-2 3-5 6-5v8c2-1 4-3 5-6l4-12-1-3-7 7"/><path d="M99 79c1-2 3-4 5-3 3 2 2 11 2 11l-1 4 15-12v8c-2 2-2 5-2 7-1 6-3 12 0 18l4-3c2 2 6 4 8 1 10-9 19-20 32-25 2 5-1 12-6 15 2-5 5-9 5-13l-28 23c-2 3-5 3-8 4l-1-2-2 2-1-2-5 4v-2l-2-2c-1-10 2-19 4-29l-11 9c-4 3-4 8-7 12l-6 7-9 7c-4 3-9 4-14 3l-2 2c-1-3-3-7 0-9 1 1 0 4 2 5 5 1 10 0 14-4-4-6-8-11-11-18-1-2-3-4-3-7 2-3 6-4 9-6l9-6c2 0 3 1 4 3l7 16 4-14v-5l-5 1"/></g><path class="G" d="M195 107c7-10 13-21 22-29l-1 22v20l2 28 2 9c1-7 6-12 9-18 5-8 12-15 18-22 5-7 13-12 18-20 1-2 4-3 3-6l1-1 2 1c6-4 11-9 17-12l-6 21c-2 11-4 22-4 33 0 9 2 18 6 27l11-20 13-18c5-5 7-12 12-16 0 5-2 11-1 16l-2 27c-2 10-5 19-3 29l1 18v22l2 4 4 10 5 8c-6 6-14 7-21 10l-49 18-4 2c-2-2-4-5-7-6-4 1-8 3-11 6-3 1-5 5-7 7l-35 19c-3 1-6 4-9 1-4-4-9-8-12-14-6-8-11-18-13-28l-2-11c-2-8-2-17-3-26v-34c1-16 1-32 3-47 0-5 2-10 4-15l1 7c0 13 3 26 6 39l4 6-1-9 6-18c2-9 8-17 12-25 4-4 4-10 7-15"/><path class="M" d="M107 92l11-9c-2 10-5 19-4 29l2 2v2l5-4 1 2 2-2 1 2c3-1 6-1 8-4l10-11 18-12c0 4-3 8-5 13l-1 1-1-3-11 18c-2 4-2 9-3 13l3 3c3-1 6-1 8-3l4-5-3 20-6 2c-1-3 1-9-3-11-5-1-9 3-13 6v-16c-1-2-3-4-5-3l-10 8c-1-6-1-13-5-18-1-3-5-2-7 0-6 5-11 12-15 19 7-5 11-14 18-19 3-1 4 3 4 5l2 16c1 5 0 11 3 15v-14c4-3 7-7 12-9v29c2-3 3-7 3-11 4-2 8-6 12-5 1 6-1 13 2 19 2-4 2-9 6-10 4 13 1 27 1 40 0 6-5 10-7 14-2 5-5 9-6 14l-4-1c3 4 7 8 12 10l-7 1c0 4 4 5 6 7l-6 5-3-1v2l3 3-4 1c-2-2-5-4-8-4 3-4 2-9-1-13h-4l-3-1 8-11c2-4 1-8 0-12l-2-1-1-4 3 2c0-2-2-5-4-6-5-2-12-1-17 2-4 6-8 13-7 21 1 4 2 8 5 10 4 3 10 3 14 0-3 4-5 10-2 14 1 2 3 2 5 2l-1 6-5 2-2-3v4l-4 1-4 4 9-2c2 5 2 11 7 14l-1-6 9 2 6-1c1-2 2-4 4-3l8 5c3 4 5 10 9 14l-5-13v-1l8 5 6 11-3-1 18 18-6-1-4-2-8-3 2 9 7 8c-4 0-9-3-10-8s-4-8-6-11l-1-8c-12-18-19-15-31-5-4 5-9 7-14 11l-31 21c-9 8-20 14-30 20-2-5-4-11-1-17l11-17c2-5 7-8 10-13l12-11 7 7c-5-9-10-16-12-26 5 4 11 7 17 4-4-2-8-2-12-2l6-1c-14-4-27-12-39-20-3-4-5-9-5-14 2 2 4 5 7 5-4-7-6-15-8-23l6 5h2l5 4-6-8c-1-8 0-17 1-25l2 2 4-26c1-4 3-8 2-12 4 4 7 9 9 15l5 8c0-5-3-9-5-13h2l1 1 15-28v-4l1-1 15-14c3-4 3-9 7-12"/><path class="C" d="M678 87l6 2c1 3-1 7 2 9v1h-3c-2-4-6-8-5-12z"/><path class="B" d="M693 95l9 4-8 9c-3 0-6 0-9 3-2 1-2 4-2 7l-7 8c-2-2-4-4-6-3-6 1-8 9-6 14l-12 11v-7c-4 1-7 2-8 5l-1 1c-3 1-6 4-4 8 1 2 4 0 6 0l-15 15c-1-6 1-11 4-16l11-13 15-14c6-5 13-9 18-15l16-15-5 2z"/><path class="C" d="M657 98c3 0 6 1 8 3l-1 6-10-1c0-3 0-7 3-8zm24 6c1-2 3-4 6-4-1 2-3 4-6 4z"/><path class="B" d="M693 113c2-5 7-9 11-13l6 4-74 72-5-4 33-32c2-3 6-4 8-8l11-12 4-1c2-1 5-3 6-6zm17-7c2-2 4 2 6 2-2 4-6 6-9 9l-65 65-4-5z"/><path class="C" d="M657 108h6v3c-3 1-4-1-6-3z"/><path class="B" d="M703 124l15-14 6 6-40 39-37 34c-1-2-6-6-2-8z"/><path class="C" d="M424 123c3-3 1-11 6-12l-1 9c5-2 11-5 16-9l4 1c-5 4-12 6-18 10l-14 7-6 2zm64-5c1-3 2-7 6-6l-12 21-9 15 26-17c6-2 11-5 17-5 2-1 3 2 5 3-1 4-4 8-6 11-8 14-20 25-29 38l-5 12-7 12c-1 10-8 17-13 25l-12 27-1 12-2 1v-15l5-8c9-22 21-42 31-63l5-10c7-9 17-16 23-26 3-5 7-10 7-16-10 0-19 5-27 11l-15 10c-6 4-11 9-17 12 1-7 10-8 13-14 5-11 11-20 17-30zm174 2 7-7h2l-7 8z"/><path class="M" d="M162 118l5-4c-2 4-4 8-4 13-2-3-1-6-1-9z"/><path class="C" d="M632 114h10l-1 7-8 1z"/><path class="B" d="M725 117l5 4-4 5-73 69-5-4 68-65z"/><path class="E" d="M84 119v4l-15 28-1-1z"/><path class="C" d="M638 128c0-2-2-4 0-6l4 10c-3 1-3-2-4-4z"/><path class="B" d="M731 123c3 1 4 5 5 8l-49 45c-3 3-5 7-9 8-7 7-14 15-22 21l-2-8 20-20z"/><path class="C" d="M665 135c-2-4 1-11 7-11 2 1 1 3 1 4zm-18-3c2-1 4 1 2 2-1 1-2-1-2-2z"/><path class="B" d="M725 144l12-12c3 4 5 8 5 13l-11 13c-12 12-25 23-39 33l-17 11c-4 1-6 5-10 6l-9 1c3-5 7-8 11-11 5 2 9-2 12-5 3-2 2-6 3-9l8-8c-1 2 0 5 2 4 4 1 6-2 8-4 2-1 4-3 4-5s-3-3-3-5l19-17c-1 3-2 6 0 9l6-1c3-3 6-7 5-11-1-3-4-1-6-2z"/><path class="C" d="M639 137c2-3 6-5 8-1l-8 9c-3-2-3-6 0-8zm5 9 7-3c-1 3-1 6-3 8-3 1-5 4-8 3l3-7zm80 2 5-2c0 2 1 5-1 6-2 3-5 3-7 4-1-3 0-6 3-8z"/><path d="M283 150l1 2z" opacity=".6" fill="#8b0f1b"/><path class="C" d="M730 161l2-1c1 3 6 6 6 6l2 2-5 1-6-5v-2z"/><path class="E" d="M732 160h1l11 8c3 4-1 14-1 14h-1s-7-6-7-11l-6-5v-2l6 5 5-1-2-2c-3-1-5-3-6-6z"/><path class="C" d="M692 178c1-4 4-7 7-10 1 1 4 2 2 4-2 3-5 6-9 6zm46-6 4-3v11l-1-1z"/><path class="B" d="M630 174l4 4-2 3-19 18c-2 2-4 0-5-1l8-7z"/><path class="E" d="M59 181c3-3 7-1 10 0 3 2 6 3 6 7l-7-5-2 3 3 1v1c-3 0-8-1-8-5l3 2v-2l-1-1h-3z"/><path class="B" d="M613 202l22-23 4 4-2 3-20 19z"/><path class="F" d="M60 182h3l1 1v2l-3-2zm6 4 2-3 6 4v1l-5-1z"/><path class="C" d="M708 183l5 5c0 1-2 3-2 1z"/><path class="B" d="M618 207l22-22 5 7-22 21z"/><path class="C" d="M670 195l9-8c1 4-2 7-6 8-1 1-2 2-3 0zm47-5c0-2 2-3 4-3-1 3 0 6-2 9l-1 1-5-4c0-2 2-2 4-3z"/><path class="L" d="M107 197c5-3 12-5 17-1l1 4c0 6 1 13-3 18l-8 7c-6 1-11-4-13-9-1-7 3-13 6-19"/><path class="B" d="M624 214l22-21 4 6-23 21z"/><path class="E" d="M65 203l13-5 5 1c3 6 5 11 6 17H79c-3-1-6-1-8-4l-6-7v-2m9 2h6c1 2 2 3 4 3l-1-4h-3l2-4-8 5m-5 2 4 5c4 1 9 3 13 2l-2-5c-5-2-10-2-15-2z"/><path class="C" d="M682 202c2-2 4-3 6-2l3 2z"/><path class="O" d="M74 205l8-5-2 4h3l1 4c-2 0-3-1-4-3z"/><path class="E" d="M107 2e2c4 0 7 2 11 3 2 1 4 2 4 4l-8-3c-1 5 4 4 7 4-2 2-6 1-8 0-3-1-6-2-7-4l5 2c1-2-1-2-2-3z"/><path class="B" d="M649 202c0-1 1-2 2-1l3 6-23 22-3-8zm-55 8 11-9 3 2-7 8-17 16-5-3z"/><path class="C" d="M688 203l9 2v1l-3 10-4-6 5-3h-5z"/><path class="B" d="M609 205c2 1 4 3 4 5l-24 23-4-4z"/><path class="D" d="M69 207c5 0 10 0 15 2l2 5c-4 1-9-1-13-2z"/><path class="F" d="M334 211c3 0 4 2 6 3l8 4v1l3 3c-7-1-12-6-17-11z"/><path class="B" d="M591 234l23-23 5 5-23 23zm27-14 3-2 4 4-18 18-7 5-2-5z"/><path class="F" d="M339 221c2-1 5 0 6 2 1 3-3 7-6 5-2-2-2-5 0-7z"/><path class="B" d="M624 225c3-3 5 2 7 4l-27 25-2-7z"/><path class="O" d="M122 225h1c3 3 5 11-1 12l-4-7z"/><path class="F" d="M421 227l12-2c-4 4-10 5-15 4l-5-2zm-85 13 20-15c1 3-1 5-2 8l-10 23c-6 4-13 9-18 15 2 1 3 0 5-1l21-16 14-9c-1 6-6 10-9 15-5 8-13 14-18 22-3 3-9 2-9 6 4 1 8-2 12-3l16-5-11 15-19 14c-4 6-12 9-17 15-5 3-11 6-15 10-5 3-12 4-17 8 1 2 3 2 5 1 7-1 13-4 18-9 5 5 11 10 18 9-1-2-2-4-4-4 14-7 27-17 43-21l11-6c5-4 8-9 13-12l3 1c-1 3-5 5-6 9l-5 7-5 5h4l21-7-7 9c-5 5-11 9-15 15l-3 5c3 2 6 1 9 0 8-2 15-7 23-8l-12 13-14 11c-1 1-2 2-1 4 4-2 9-3 14-3l23 33c-2 0-5 0-7-2-5-2-11-3-16-6-1-1-2-2-4-1 2 1 2 4 3 6l10 9c8 8 18 15 24 25 3 3 4 7 4 11 0 3-3 3-5 3l-16-4-14-5c-2 2-3 5-2 8l5 10 8 11c-5-3-8-7-13-9h-2l-9-3c0 2 2 3 3 4l12 7c3 2 7 3 9 6-2 10-2 21-3 31v21l3 22 2 12c4 11 8 22 14 33l7 8c-5 3-9 8-15 9l-22 8-13 4c1 2-1 4-2 7l-8 27-3 5c-1-3-4-4-6-7l-22-27-21 6c-9 3-19 5-29 5l-11-2 4-16c4-10 5-22 6-33 0-14-5-26-9-39l-3-11-19-36c2-2 5-4 5-7l-9 6 1 2-5 6-1-25-2-1c1-2 3-3 2-5-6 4-9 10-15 14l-5 4c2-7 5-13 6-20l6-14 2 2c1-2-1-3-3-5-2 3-6 4-9 7-5 4-10 10-16 13l5-11 6-9c2-5 6-10 6-16-4 0-8 2-11 5-4 3-9 4-13 6 4-5 10-9 12-15l-12-1c-1 1-3 0-3-2l13-8 5 1-3-2 2-2-5-1-8-10c-3-1-5-5-7-7 3 3 8 3 11 4 4 1 7 2 11 1l2-2-8-2c1-1 3-3 5-3l1-2 2-1 1-1 20-11c8-6 17-9 25-13l2 1v-5c-2-4-2-9-3-14 2 0 4-2 5-4-3 0-7 0-10 2-4-1-7 1-11 1l-10 1-21-1c-8-2-17-5-25-4l-15-3c3-2 7-3 9-7-2 1-5 3-7 0l-15-10 6 1c5 1 9-1 14-1 3 0 7 1 8-2l-22-1-13-13c9 4 20 8 30 3l-14-1-7-11h1c6 2 12 4 19 3l17-8c5-3 11-4 15-8l5-3-8 20c-1 2 0 3 1 5l21-11c5-3 11-6 15-11l-1-13c5-2 11-3 16-6l48-18c7-2 14-4 20-8z"/><path class="B" d="M551 250c8-9 17-16 26-24l4 4-8 9c-7 5-12 11-18 17l-4-2-2-2zm5 7 26-26 4 5-26 25c-2 0-3-3-4-4z"/><path class="E" d="M270 235c4-2 9 2 8 6-1 3-6 5-8 2-3-2-3-6 0-8z"/><path class="F" d="M424 236c3-2 7 1 5 4-1 3-4 1-6 0-1-1-1-4 1-4z"/><path class="B" d="M587 237c2 0 5 3 6 5l-28 26-4-6z"/><path class="O" d="M124 241c2-1 6-2 7 1l1 14h-5c1-1 3-2 3-4h-5l-1-4 1-3z"/><path class="B" d="M593 244c2-2 4 2 6 3l-18 18-12 10-3-5z"/><path class="D" d="M374 247c6-2 14 1 19 5l-6 4c-3 5-8 8-12 11l-1-19z"/><path class="F" d="M364 256c2-3 2-7 6-9 0 8-1 16 1 23l2 2c5-4 10-6 14-11 2-4 7-5 10-9-3-1-4-2-5-4 3 1 8 2 10 6 4 6 10 11 17 15 2 2 5 3 7 3l6-1 2 5-3 6v10c-2-2-4-7-8-6l-1 8-4 2c-2 0-2 2-3 4l-7 2-10-1-10 2c1-2 2-6-2-6-9 4-14 13-23 16-10 3-21 7-30 13 0-3 3-5 3-8 2-4 4-9 3-13l2 7c2 2 5 0 7-2l1 3h5l2 1 6-1c0-3-2-4-4-4-2-2-5-1-6 1-1-2-2-4-4-4s-3 2-5 3v-6c4-3 7-8 10-12l4-5c2-3 3-7 6-9h-4l-16 4c7-8 15-16 21-25z"/><path class="B" d="M571 277l28-28 3 6-11 12-17 15zm-37-10 13-13 4 6-27 26-6-3zm17-5 3-2 3 3-24 25-4 3-4-4 22-21z"/><path class="E" d="M193 262c4-2 8 2 8 6-1 3-6 6-9 3-3-2-2-7 1-9z"/><path class="C" d="M126 277l15-13 3 9 7 9 1 8 6 7 1 7-9-2c1 3 4 5 7 7l11 11h-10c0 2 2 2 3 2 5 6 11 10 17 14-4 1-7 6-12 7-10 4-20 10-28 17l-29 19c-11 7-21 15-30 23l-2-4-5-3 4 5c4 12 8 25 7 38l2 17-2 15c0 3-2 5-3 8s-5 5-8 5-7-2-9-5c-5-7-10-15-12-24-4-13-6-26-7-40l-2-21-1-12v-6l-6-7-12-22c4-5 10-7 16-10 7-4 14-10 22-13l41-28c8-6 17-11 24-18"/><path class="B" d="M558 265l5 6-20 19-9 8-3-6z"/><path class="D" d="M236 271c3-2 6-3 10-3 3 4 5 10 5 16-10 8-21 16-33 20l6-16c2-7 7-12 12-17m-1 6c-1 1-2 3 0 5 2 0 5 0 5-3 0-2-3-3-5-2z"/><path class="B" d="M536 299l28-27 3 6-27 26z"/><path class="E" d="M235 277c2-1 5 0 5 2 0 3-3 3-5 3-2-2-1-4 0-5z"/><path class="B" d="M567 279c3 1 3 4 5 5l-16 15c-31 24-1-9 11-20zm-75 28c29-29 36-25 6 5zm0-4c6-5 10-11 16-14l-18 18c-3-1 1-3 2-4zm8 9c35-38 26-12 2 5-1-1-4-3-2-5z"/><path class="B" d="M527 295c3 1 4 3 5 6l-24 23c-1-2-4-4-4-6zm-2 15c3-3 5-6 9-8l3 4-15 15-11 9-2-5z"/><path class="G" d="M396 306c2-1 5-2 8-1 6 3 13 3 19 6l10 7c3 5 7 9 9 15 4 8 9 16 11 25l9 29c6 15 10 31 18 45-7 0-14 4-21 8l-19 1c-4 2-9 5-12 9l-3-8c7-3 4-11 1-16l-33-35 18 6c3 1 4-3 3-5l-19-26c-2-2-2-4-2-6-3-2-5-2-8-2l12-12c4-4 8-9 10-14-5 0-10 3-15 5l-16 5c0-5 5-8 8-11l15-15-2-3c-6-1-12 1-17 3l5-8z"/><path class="B" d="M481 312l7-5c1 2-1 3-2 4l-17 17-3-2zm33 18 24-22 3 4-13 13-13 12c-1-2-3-5-1-7zm-43-2 19-18 5 4-19 19-3-2h4c-1-2-4-2-6-3zm9 4 17-16 3 4-15 14c-2 2-4 4-7 2z"/><path class="E" d="M114 328c4-4 7-9 13-11l-3 19c2 4 9 4 11 9h-1c-6-2-11-4-15-8 4-4 3-10 5-16-3 4-7 7-11 9l-12-9 4 15c-5 4-12 7-18 8l19-1 3 20 5-18c0-2 3-1 4-1l14 1c-4 4-11 3-16 1 0 5-2 10-4 15 0 2-2 4-4 5l-2-4-2-15-18-1-1-5 16-5-2-15v-3c6 2 10 7 15 10z"/><path class="M" d="M101 321l12 9c4-2 8-5 11-9-2 6-1 12-5 16 4 4 9 6 15 8h-2l-14-1c-1 0-4-1-4 1l-5 18-3-20-19 1c6-1 13-4 18-8z"/><path class="B" d="M484 338c23-23 24-14 3 6zm38-5 11-10c-3 5-7 8-11 12-9 9-6 4 0-2zm-35 13c24-24 26-17 3 5zm3 7c25-25 27-18 3 5zm3 7c5-3 19-22 22-17l-7 7c-6 4-9 9-14 13z"/><path class="P" d="M143 359c9-7 19-11 28-17l7 10c4 7 8 14 10 21-3-1-4-5-7-4-3 3-9 2-10-2l-5-10h-4l-1 3c-2 0-5-1-6 1-2 3-5 4-8 6l-3-1c-3 3-6 7-7 11l-6-1-5 4c-3 0-6-2-9 0l-1 11c-4 2-9-3-12 0l1 6 2-1v4h-6v7l-8 2c-1 5 4 8 4 13l-8 1c-2 0-2 2-3 4-2-8-3-16-6-23l21-17z"/><path class="C" d="M176 342c4 0 7 4 12 4 3 9 9 17 12 26 1 2 0 3-2 3 0 3-1 5-3 6-2-3-3-7-3-11l-2 1-7-19z"/><path class="M" d="M192 347l7 1v11c-3-3-5-8-7-12z"/><path class="F" d="M156 364c2-3 6 0 8-3 1 4 4 7 6 11 3 3 8 3 10-1 3 3 6 7 10 6l2 3-1 3h4c3-2 6-5 7-8-1 4-3 7-3 11l-2-1 1 4c3 2 6 5 10 5 0 3-3 2-4 2v-3c-4 2-8-1-12-3-1 7 5 10 8 15l-3 10-3 12 1 1c-1 3-1 6-4 8-5 5-11 8-14 14l3 1 4-6c3 5 5 12 12 13l-1-3 1 1c2 13 3 27 2 41v35l-2 1-2-1-1 2h-5c-2 0-2-3-3-4-2 1-2 3-3 5-3-1-3-5-5-7-3 0-2 3-2 5l-3 2-4-2c-1-2-1-5-3-6-1 3-5 4-8 5l2-10-5 2c-2-2-2-5-3-7l-6 1-2-5 3-4-9 3c3-5 4-12 5-18-4 1-6 5-10 6l4-7 11-6 4 5c-1-7-5-13-9-19l1-6-6 6c-2-1-2-4-4-4-2 4-3 8-7 11l-3-8-3 5-5 4c0-4 0-8-2-11l-2-1c-1-6 0-6-1 0-4 1-6 5-9 8 1-6 5-12 3-18-2 3-5 7-10 7-4-6 0-13 1-20l-3 4c-2-3-5-6-6-10 0-5 2-9 3-14 5 2 10 0 12-5-3-3-4-7-5-10l9-1c-2-2-1-5-1-8 2 1 4 2 5 0 2-2 1-6-1-8l3 2c4-1 6-3 9-6v-7l6 2 5-6c2 1 5 2 7 0l7-10c2 2 4 2 7 1l-1-3c2 0 4-1 5-3"/><path class="C" d="M204 380c3 3 4 7 6 11-3-1-6-1-8-3z"/><path class="E" d="M148 401c5-3 11-7 17-9 2 2-1 3-2 4 1 2 3 4 1 6s-5 0-6-3c-3 1-7 5-10 2z"/><path class="G" d="M203 409l5 5c0 2-2 2-3 3l-5 3z"/><path class="D" d="M141 418c-2-2-1-4 1-6l3 1 5 7v2c-3-2-6-4-9-4z"/><path class="E" d="M111 419c4-2 9-6 14-5l-6 4c1 1 3 5 0 5-2 1-3-2-3-3l-11 4c0-3 3-4 6-5zm34-6 3 1c3 3 5 6 4 10-3 0-5-2-8-3-2-1-5-1-5-4l2 1c3 0 6 2 9 4v-2z"/><path class="G" d="M197 430c4 2 9 0 13 0-5 3-8 8-13 12z"/><path class="F" d="M398 445c-3-3-3-8-5-12l15 6-5 16z"/><path class="G" d="M209 444c6-2 10-6 15-8l-12 18c-3 5-4 11-7 15-1 1-1 4 1 3 4-1 8-1 11-4l14-13-10 25-3 12c4 1 5-4 8-5 7-2 10-9 15-14v28c0 2 2 3 4 2v43l1 10v36c-1 3 1 7 1 10l-1 20-4 23-3 6c6 3 8 9 8 15l-2 17c-3-2-4-5-7-6 1 5 6 10 10 14 5 5 11 10 18 10 2 3 0 6-3 8l-4 4-12-6c-5-5-10-10-13-16-2-2-3-6-6-6 3 7 8 13 12 19 4 3 6 8 11 10 6 3 13 0 19 2v6c-4 2-8 4-12 4l-18-5c-5-3-8-8-11-13-4-5-4-13-5-19 0 1-2 2-1 3 0 5 0 10 2 14 2 6 4 12 10 15 5 5 13 8 20 8 2 0 5 0 5 2-4 3-10 6-15 5l-14-10c-6-4-10-9-14-14-3-6-3-13-4-19v11c0 3 0 7 2 10l5 7c3 4 9 6 13 9l11 9-8 6-15-8c-11-8-18-20-18-33-2 2-2 4-2 7l3 12c-3 1-6 2-9 0-4-6-3-13-2-19 0-3 0-6 2-8 4-5 2-11 3-17 2-12 2-24 2-36l1-17c0-18 2-37 0-55l1-24-1-36v-24l-3-37c3-3 7-5 11-6z"/><path class="B" d="M413 441l6 1c-5 3-8 8-12 11-1-5 4-8 6-12zm-7 18 17-16c2 3 3 7 3 10-2 8-6 16-4 24 1 5 5 9 11 9 0 4 1 7 3 9 1 2 5 1 5 4 1 4 4 8 8 11-2 4-2 9 0 13 1 3 4 4 6 4-2 5-7 7-11 10l-20 7h-18l-1-6c-3-13-6-26-4-39l3-33h5z"/><path class="G" d="M469 511c2-7 8-12 12-18l24 5 5 11c1 3 4 4 4 7 4 16 11 31 16 46l14 40 2 6c-2 3-5 5-5 9l-2 9c-1 4 0 8 1 12l3-1 2 6 4-1 3 3 4-1v3l2-1h1l-1 3 5-2c2-4 2-9 3-14 6 6 13 12 22 14 2 5 5 9 5 14l-10 25c0-4 0-8-2-11l-7-15c0-2-2-2-3-2l2 5c4 6 6 14 8 21 1 5-1 10-1 15l-2 12c-4 2-8 1-11 1 1-7 5-13 4-20 0-5-3-8-5-12-2-5-3-10-7-13l7 18c1 4 4 9 2 13l-3 13-4 13c-4 1-8 0-11-2l8-16c2-6 0-13-2-20l-11-16-1 1c2 6 5 11 9 16 3 3 3 8 4 12-2 9-8 16-12 25-1 4-4 7-8 7-3 0-5-3-6-5l7-14c5-6 7-15 3-22-3-5-5-10-6-16l-1 2c-2 9 8 16 6 25-2 6-5 11-9 16-3 6-5 12-9 17-1 2-4 1-5 0-1-2-2-5-1-7 4-5 8-9 8-15l1-10-6-19c5-5 2-12-1-18-2-3-5-5-4-9 0-3 1-6-1-8l-8-16c-3-7-5-15-9-22-3-2-4-6-5-10l-9-15c-3-9-8-17-10-26l-5-15c-1-8-6-13-7-21 4-3 6-8 9-12z"/><path class="B" d="M250 494c5 6 8 14 12 21l-4 1-7-13c-1-1-3-3-3-5z"/><path class="P" d="M104 522c8-9 17-16 26-24 0 1-1 4 1 4 3 0 5-2 7-3-1 5-3 10-2 16l5-2c-1 2-2 5-1 7h4c2 1 4 0 5-1 0 4 2 7 5 9v8c4-1 7-1 10-3 1 2 1 4 3 5 3 1 7 2 10-2l2 3c3 0 5-2 6-3 4 1 8 3 11 1l1 1 1 8c1 9-1 18 1 27l-1 40-10-2c-6-2-12-6-19-7 5-13 11-25 15-38l1-12-2 2c-8 2-16 5-23 9l-11 5-1-4c-4-9-8-18-10-28 0-1 0-3-2-3 1 12 6 24 11 36-3 1-6 3-9 1l-20-11c-4 0-8-4-11-6z"/><path class="L" d="M248 505c2 0 3 3 4 4l4 9c-1 1-6 3-3 5l7-2 4 6c-2 2-5 3-5 6l7-2 5 8-7 4-2 3 11-2c1 4-1 11-6 11l-7-5c-4-4-4-10-8-14-3-2-2-6-4-9z"/><path class="B" d="M260 519l3-2 4 9c-3-1-5-5-7-7z"/><path class="N" d="M461 537c3 4 4 10 6 15l12 31-4 5-1 1c-3-3-5-9-10-11-3 3-4 7-6 11h-1c-2-3-5-6-9-4-5 5-5 13-8 19l-11-15-3-6-2-21c5 4 10 11 17 11l-4-3c5-6 8-12 11-18 1 2-1 6 2 8l1-6c4-1 7-4 9-7z"/><path class="B" d="M250 539c3 4 5 10 9 14 3 3 7 5 11 5l6-4c2 12 5 24 3 36l-8 33-5 12-18-8 2-17v-27l-1-9z"/><path d="M87 546c10 9 20 20 34 22l15 6-2 3c3 2 7 0 10 2l8 2-6-5 20-9c5-3 10-6 15-7v6l-15 35h-7l4 4c6 4 13 10 21 12 4 2 9 0 14 0l-1 12-4 3c-4 1-7 4-10 6-8 3-15 9-23 13-1-1-1-3-3-3l-1 4v44l-32-26 5-5h-13c-3 5-8 5-13 7-10 5-20 7-31 10l5-14c4-9 7-18 9-28 0-2-1-3-2-3l-3 5 1-4 2-2 5 1-4-4c-7-4-14-6-22-8l-17-5c11-4 23-6 33-13l8-5v-56" fill="#1c1c1c"/><path class="F" d="M460 589c2-3 2-7 5-9 2 3 5 6 6 10 1 2 4 3 6 4 2-3 2-6 1-9 3-1 3 2 4 4 7 19 16 36 24 54-3 4-6 8-11 10l-8 2 2 4 1-3 3 1c4-1 7-5 11-7 1 2 2 5 5 6v6l1 4s-5 0-6-2l-1 3c-2 2-4 2-7 3l-2-5-2 3-7 6-6 2c-1-4-2-8 0-11-4 1-7 5-11 5l-4-16-4-11-10-21c-3-5-7-9-8-15 1-5 3-9 3-14 1-2 2-5 4-6 2-2 5 0 6 1l4 9 1-8"/><path class="C" d="M120 589c39-7 49 54 16 58-52 12-56-51-16-58"/><path class="D" d="M396 609c12-3 22-9 31-16 6 5 9 12 13 18-5 5-11 8-17 10-10 2-18 8-28 9h-11l-10-2 4-14z"/><path class="F" d="M121 594c38 0 41 46 8 51-43 1-34-49-8-51z"/><path class="N" d="M545 614c1-3 3-4 5-6 5 4 12 8 15 14l-1 1c-3 8-1 16-5 23h-1c2-6 4-13 3-21-4 5-5 11-9 16 0-6 5-12 3-19l-3 3c-2 5-2 10-6 14l4-18c1-2-1-2-2-1-3 5-3 11-6 15-1-7 1-14 3-21z"/><path class="C" d="M126 612c12 1 10 14 1 16-11-2-11-14-1-16z"/><path class="E" d="M455 611c4-3 6 4 3 6-4 2-6-4-3-6z"/><path class="D" d="M417 627c9-3 18-6 25-13 3 6 8 12 10 19l-3 2-16 9c-6 4-14 6-22 6h-25l-19-1 6-18c7 3 14 5 22 2 7 0 15-3 22-6z"/><path class="E" d="M487 616c4-1 7 5 3 7-4 1-6-5-3-7z"/><path class="D" d="M295 631c13-1 26-6 38-12l10 15c-10 6-20 10-31 14l-14 2-1-1c-4 2-9 2-14 2l-16-2c-1-6 3-13 4-19l13 2zm178-7c2 1 5 2 6 4l-5 3-1-3-2-1h-1z"/><path class="E" d="M471 627l2 1 1 3 5-3c1 4-2 12-7 9z"/><path class="P" d="M248 631c5 3 11 7 17 5-2 6-4 13-3 20l3 30c4 6 6 13 8 20h-3c0-2 1-5-1-7s-5-1-8-2l-5-7v3c-4-1-7-4-9-7l3-12c1-8-1-18-7-24 1-6 2-13 5-19m-59 9 9-7-2 35c-1 6 0 11-2 17l-4 12c-1-9-3-17-2-26 0-9-4-17-8-24z"/><path class="D" d="M344 636l5 4c1 4 4 6 6 10l-9 7c-7 4-14 9-22 12l-32 7h-11l-14-1v-22c18 4 36 1 54-4l11-5c5-2 8-5 12-8zm86 14c9-3 17-7 25-12 2 8 6 16 7 24l-24 10-21 6c-6 1-13 1-19-1-10 0-20-2-29-7l-4-14c-1-2 0-3 1-5 8 2 16 3 25 3l15 1c8 0 16-2 24-5z"/><path class="N" d="M507 648l2-2 1 5c-2 0-3-1-3-3z"/><path class="D" d="M356 652l3 1 2 3 4 14-24 15c-9 5-19 10-30 11l-36 3-2-3-6-18c8 3 15 2 23 1l29-5c9-2 17-7 25-10 5-2 7-9 13-10zm84 23c8-4 16-7 23-12l3 24c-7 4-14 7-21 8l-11 4-31 1c-7 1-15-2-22-3l-6-2-4-21c5 3 11 5 17 6 5 1 10-1 14 2 9 2 17 0 26-2z"/><path class="N" d="M504 669l5 1-8 5zm-36 4 7-3c0 3 0 8 4 8 6 0 10-4 14-8 1 1 2 3 4 3l4-1c-5 10-8 21-10 33-2 4 0 8 1 12 1 9 3 18 7 27l1 2-15 5c-6 1-11 0-16-1l-5 8v-4l3-2c-1-1-2-2-3-1 0-3 0-6 2-8 5-7 7-14 10-22 1-7 2-16-3-23l-3-1c0-5 1-11-1-16z"/><path class="D" d="M343 688c8-5 16-10 22-17 4 7 4 14 6 21-3 7-10 10-17 13-6 3-11 7-18 8-9 2-18 5-28 5-9 2-17 1-26 2l-7-19c7 2 15 2 22 1 10-2 20-1 29-6 6-3 12-4 17-8zm112 8 11-7 1 7zm-83-1c3 9 4 19 5 29-14 7-30 13-45 19-13 3-26 4-40 3l-9-23c11 1 24 1 35-2 7-1 15-1 21-5l10-3c8-4 15-9 21-15zm3 2c9 5 20 7 30 7 12-1 24 1 35-3-3 4-6 8-7 13s3 9 5 13h-12c-7 1-14-1-21-1l-25-3-1-10c0-6-2-11-4-16z"/><path class="N" d="M444 7e2c2-2 6-1 8 0 26-8 26 24 13 37v-9l-3-2-12 10 2-9 5-10c-5 3-7 9-10 14-3-2-2-5-2-8 1-5 5-9 8-13l2-3-4 2c-5 4-8 9-10 15l-1-1c-1-5 2-9 4-13 2-3 6-5 7-9-8 2-10 10-15 16-1-7 4-12 8-17z"/><path class="D" d="M267 710l3 1 1 1-6 1zm95 25c6-2 11-6 16-10l2 10h1l1-2-1-2h2l-2-5c8 3 16 4 24 4 12-1 24 3 36-1 1 3 3 5 6 4 0 3-1 8 3 8l12-12-2 24c-12 4-24 6-37 6l-12 1c-8-2-16-5-23-9l-5-20c-2 2-3 6-1 8 2 3 2 6 3 10-6 3-11 8-17 9-12 3-23 11-35 13l-15 2-12-3c-2 0-2-2-3-3l-9-18c15 3 31 0 45-5 8-2 15-6 23-9zm-163-7 7-2 7 8c-4 0-8 0-12-2zm65 2c3 0 5-2 7-3l3 10c-9 5-19 8-29 11-6 2-12 1-18 2l-18-2-4-11c3 1 7 0 10-1 6 4 11 10 17 13 4 1 8-1 11-3 2-3 5-6 8-6 6-1 11-4 13-10z"/><path class="D" d="M266 744l8-5c2 4 1 8 2 12-7 6-15 11-24 13-12 4-25 5-37 2-3-4-4-10-5-15 11 4 23 3 34 1 8-1 15-4 22-8zm204 9c9 6 22 4 29-4l-3 19c-11 1-21-3-29-9zm-97 7c4-3 9-5 13-9 1 9 4 17 6 25-6 4-12 9-19 12s-15 7-23 8l3-3c-5 2-11 2-17 3-7 2-13 2-20 2l-10-25 12 3h12c7-1 13-4 19-7 9-2 17-4 24-9z"/><g class="D"><path d="M263 765c5-3 10-7 14-12l4 17-19 11-14 5-9 1h-17c-3-6-6-11-6-18 9 4 19 1 29 1zm126-10c9 6 20 10 31 8 14 0 28 0 40-6l1 18c1 2-1 2-2 2l-20 8c-7 1-13 0-20-1v2l-7-1-16-8zm77 6 8 5c6 4 14 6 22 4l-7 17c-8-3-16-8-22-14-4-3-2-8-1-12z"/><path d="M281 771l4 19-13 8c-4 2-7 5-12 6-10 3-20 5-31 5l-7-19h21l15-4c8-4 17-8 23-15zm184 5c6 6 13 12 22 14-3 4-3 9-6 13h-1c-6-2-11-5-16-9zm-72 2 5 26c-5 2-8 6-12 9-7 5-16 7-23 9s-13 5-20 6h-16c-3-9-4-19-9-27 8 2 15 1 23-1zm47 10c7-1 15-4 21-9l-1 29-1 2h3c-2 2-1 4-1 6l1 21c-6 4-13 7-20 9-5 2-10 2-15 1-8-2-17-5-25-9l-2-27c7 6 16 10 25 10 6 0 12 3 18 1 7-2 11-6 16-10l-1-2c-7 4-14 9-22 9-6 1-11-2-17-3-7-2-13-6-18-10 0-8-3-17-5-26 6 5 13 9 21 10l11 1c4 1 8-1 12-3zm-163 11 9-5c2 6 2 13 2 20l-13 12c-3 2-6 4-9 4l-17 5h-10l-8-24c10 2 20-2 30-4 6-2 11-4 16-8zm187-1c4 4 10 8 16 7-4 4-4 10-7 14-3-2-6-3-8-6zm-68 9 1 1 1 14c0 6 2 12 0 18-5 3-10 6-13 10-3 3-7 3-11 5-12 5-25 4-38 2-2-9-7-17-8-26 9 4 19 3 28-1l10-5 15-6c6-3 11-7 15-12zm-168 4 3 9z"/></g><path class="D" d="M280 825l8-8v8h-6l-2 7-4-2-2 6-6-1-1 8c-2 3-4 6-4 9l-3 1-1 1c-5 1-10 3-15 2-3-5-3-12-5-18 8 1 15-1 23-3 6-3 13-5 18-10zm185-5 6 3-1 7h-4l-1 3z"/><path d="M231 821l1 2z" opacity=".5" fill="#725500"/><path class="D" d="M442 850c8-2 16-5 21-12 0 3-1 8 3 10l2 2v5c-3-2-5-1-8 0l11 4c8 3 16 3 23 4-2 3-6 3-10 3l-27 3c-3 2-5 5-9 6l-23 8-7 1-13 1c-7 1-14 1-21 5l-15-5 16-4c6-3 13-5 19-10 1 3 1 7 4 9 1-3-1-7-2-10l2-4-3 1-2-25c6 3 11 6 18 8s14 0 21 0z"/><path class="D" d="M388 853l12-9 3 24-18 9c-8 4-17 4-17 4l-22-2-9-21c6 3 12 4 19 4 11-1 22-3 32-9zm-144 5h11l-1 19c-3 0-7-4-6-7l-1-1zm103 24h5l3 2-5 3z"/></svg>